<?xml version="1.0" encoding="utf-8"?>
<!-- Generator: Adobe Illustrator 24.1.2, SVG Export Plug-In . SVG Version: 6.00 Build 0)  -->
<svg version="1.1" xmlns="http://www.w3.org/2000/svg" xmlns:xlink="http://www.w3.org/1999/xlink" x="0px" y="0px"
	 viewBox="0 0 800 600" style="enable-background:new 0 0 800 600;" xml:space="preserve">
<style type="text/css">
	.st0{fill:#A1A19E;}
	.st1{fill:#A996A8;}
	.st2{fill:#DC7A26;}
	.st3{fill:#FFE1CA;}
	.st4{fill:#E0A273;}
	.st5{fill:#FFD1AD;}
	.st6{fill:#E3C3AA;}
	.st7{fill:#F5D2B7;}
	.st8{fill:#482A2B;}
	.st9{fill:#65AF69;}
	.st10{fill:#2F6139;}
	.st11{fill:#9D4F8E;}
	.st12{fill:#D7E8E2;}
	.st13{opacity:0.8;fill:#FFFFFF;}
	.st14{fill:#FFFFFF;}
	.st15{fill:#C5BCC4;}
	.st16{fill:none;stroke:#A996A8;stroke-width:2.1282;stroke-linecap:round;stroke-miterlimit:10;}
	.st17{fill:#939393;}
	.st18{fill:#A9A9A9;}
	.st19{fill:none;stroke:#A996A8;stroke-width:2.2842;stroke-linecap:round;stroke-miterlimit:10;}
	.st20{fill:#EAAF7D;}
	.st21{fill:none;stroke:#FFFFFF;stroke-width:2.4821;stroke-linecap:round;stroke-miterlimit:10;}
	.st22{fill:none;stroke:#DC7A26;stroke-width:1.241;stroke-linecap:round;stroke-miterlimit:10;}
	.st23{fill:none;stroke:#DC7A26;stroke-width:1.4774;stroke-linecap:round;stroke-miterlimit:10;}
	.st24{fill:none;stroke:#DC7A26;stroke-width:1.4411;stroke-linecap:round;stroke-miterlimit:10;}
	.st25{fill:#A58262;}
	.st26{fill:#CFAA7B;}
	.st27{clip-path:url(#SVGID_2_);}
	.st28{fill:#7E553B;}
	.st29{clip-path:url(#SVGID_4_);}
	.st30{fill:#AF5E27;}
	.st31{fill:#EDB280;}
	.st32{fill:#332412;}
	.st33{fill:#989898;}
	.st34{fill:#75366C;}
	.st35{fill:#6E6E6E;}
	.st36{fill:#7C82CE;}
	.st37{fill:none;}
	.st38{fill:#7F717E;}
	.st39{fill:#BAABB9;}
	.st40{fill:#A699A5;}
	.st41{fill:#5E565E;}
	.st42{fill:#844415;}
	.st43{fill:#85684F;}
	.st44{fill:#F5D8C2;}
	.st45{fill:#526775;}
	.st46{fill:#889149;}
	.st47{opacity:0.4;fill:#9D4F8E;}
	.st48{fill:#A2DE47;}
	.st49{fill:#8EB256;}
	.st50{fill:#7C9C4B;}
	.st51{fill:#295431;}
	.st52{fill:#F3F3F1;}
	.st53{fill:#A68862;}
	.st54{fill:#854378;}
	.st55{fill:#DC8D49;}
	.st56{display:none;}
	.st57{display:inline;opacity:0.46;}
</style>
<g id="Слой_1">
	<path class="st0" d="M308.63,94.28c0-0.33,6.12-0.59,13.66-0.59c7.54,0,13.66,0.27,13.66,0.59s-6.07,1.16-13.62,1.16
		S308.63,94.61,308.63,94.28z"/>
	<rect x="29.1" y="518.39" class="st1" width="14.14" height="81.75"/>
	<g>
		<polygon class="st2" points="173.76,52.38 173.76,127.92 161.74,127.92 161.74,52.38 163.15,52.38 163.15,53.83 172.21,53.83 
			172.21,52.38 		"/>
		<rect x="163.16" y="53.83" class="st3" width="8.68" height="74.09"/>
		<rect x="163.16" y="53.83" class="st4" width="1.65" height="70.91"/>
		<rect x="164.81" y="53.83" class="st5" width="1.65" height="70.91"/>
		<rect x="166.49" y="53.83" class="st6" width="1.65" height="70.91"/>
		<rect x="168.15" y="53.83" class="st7" width="1.65" height="70.91"/>
		<rect x="169.8" y="53.83" class="st3" width="2.41" height="70.91"/>
	</g>
	<g>
		<polygon class="st8" points="152.06,67.36 152.06,127.92 137.57,127.92 137.57,67.36 139.27,67.36 139.27,68.52 150.19,68.52 
			150.19,67.36 		"/>
		<rect x="139.28" y="68.51" class="st3" width="10.47" height="59.41"/>
		<rect x="139.28" y="68.51" class="st4" width="1.99" height="56.86"/>
		<rect x="141.27" y="68.51" class="st5" width="1.99" height="56.86"/>
		<rect x="143.3" y="68.51" class="st6" width="1.99" height="56.86"/>
		<rect x="145.29" y="68.51" class="st7" width="1.99" height="56.86"/>
		<rect x="147.28" y="68.52" class="st3" width="2.9" height="56.85"/>
	</g>
	<rect x="725.55" y="518.39" class="st1" width="14.14" height="81.75"/>
	<path class="st9" d="M322.33,85.87c0,0,2.88-20.78,29.49-20.78C351.82,65.1,347.26,94.49,322.33,85.87"/>
	<path class="st10" d="M323.69,84.64c-0.24,0.08-0.48,0.16-0.72,0.23c-0.76,0.25-1.5,0.46-2.21,0.62
		c-22.35,5.44-26.56-21.63-26.56-21.63c15.65,0,23.09,7.19,26.56,13.11c1.07,1.81,1.76,3.51,2.21,4.84
		C323.54,83.52,323.69,84.64,323.69,84.64z"/>
	<path class="st11" d="M137.57,54.11v70.64h-17.13V54.11c0-0.95,0.77-1.73,1.73-1.73h13.67C136.8,52.38,137.57,53.16,137.57,54.11z"
		/>
	<g>
		<rect x="525.89" y="65.17" class="st8" width="231.11" height="211.64"/>
		<rect x="536.83" y="75.19" class="st12" width="209.21" height="191.61"/>
		<path class="st13" d="M593.36,126.53c-5.47,6.9-18.72,9.24-25.3,6.26c-4.5-2.04-5.03-6.2-8.43-6.26
			c-2.72-0.05-3.34,3.09-6.75,5.01c-2.77,1.55-7.47,2.47-16.04,0.6V91.22c9.23-2.97,14.51-2.33,17.73-1
			c5.9,2.44,5.87,7.66,13.5,10.02c4.93,1.52,6.29-0.24,11.81,1.25c8.96,2.42,12.96,9.08,13.5,10.02
			C594.34,113.21,598.39,120.19,593.36,126.53z"/>
		<rect x="632.16" y="73.93" class="st8" width="15.18" height="194.11"/>
		<rect x="529.26" y="165.35" class="st8" width="219.3" height="11.27"/>
		<path class="st14" d="M746.05,139.87v25.48h-43.39c-3.59-1.94-5.95-4.61-6.39-7.51c-0.32-2.07,0.1-5.84,3.37-7.51
			c3.69-1.89,7.59,0.66,11.81-1.25c3.07-1.4,2.28-3.33,5.06-6.26c3.59-3.78,10.32-6.25,16.87-6.26
			C738.8,136.54,743.11,138.22,746.05,139.87z"/>
	</g>
	<polygon class="st1" points="739.69,508.23 739.69,532.4 29.1,532.4 29.1,518.39 35.03,508.23 	"/>
	<polygon class="st15" points="776.58,416.71 739.69,518.39 29.1,518.39 35.03,508.23 96.08,416.71 	"/>
	<line class="st16" x1="114.92" y1="438.89" x2="697.18" y2="438.89"/>
	<polygon class="st17" points="463.4,440.3 463.37,449.12 588.35,449.12 588.34,440.3 	"/>
	<ellipse class="st17" cx="525.86" cy="449.12" rx="62.49" ry="8.82"/>
	<ellipse class="st18" cx="525.89" cy="440.3" rx="62.49" ry="8.82"/>
	<line class="st16" x1="597.68" y1="467.83" x2="718.04" y2="467.27"/>
	<line class="st19" x1="98.4" y1="467.55" x2="577.06" y2="467.55"/>
	<line class="st19" x1="65.45" y1="498.05" x2="496.01" y2="498.05"/>
	<path class="st17" d="M532.62,443.21h-14.07c-6.43,0-11.64-5.21-11.64-11.64v-42.87h37.35v42.87
		C544.26,438,539.04,443.21,532.62,443.21z"/>
	<polygon class="st17" points="469.15,508.38 333.07,508.35 333.07,502.87 469.38,502.87 	"/>
	<path class="st18" d="M663.02,398.25H387.77c-11.44,0-20.72-9.28-20.72-20.72V215.86c0-11.44,9.28-20.72,20.72-20.72h275.25
		c11.44,0,20.72,9.28,20.72,20.72v161.67C683.74,388.98,674.47,398.25,663.02,398.25z"/>
	<path class="st20" d="M645.39,383H405.4c-11.44,0-20.72-9.28-20.72-20.72V234.52c0-11.44,9.28-20.72,20.72-20.72h239.99
		c11.44,0,20.72,9.28,20.72,20.72v127.75C666.12,373.72,656.84,383,645.39,383z"/>
	<line class="st21" x1="605.24" y1="226.33" x2="573.37" y2="226.33"/>
	<line class="st21" x1="605.24" y1="236.38" x2="573.37" y2="236.38"/>
	<line class="st21" x1="605.24" y1="247.11" x2="573.37" y2="247.11"/>
	<circle class="st14" cx="483.39" cy="358.69" r="16.08"/>
	<circle class="st14" cx="523.47" cy="358.69" r="16.08"/>
	<circle class="st14" cx="563.55" cy="358.69" r="16.08"/>
	<g>
		<path class="st2" d="M489,363.07h-13.86c-0.79,0-1.44-0.64-1.44-1.44v-5.62c0-0.79,0.64-1.44,1.44-1.44H489
			c0.79,0,1.44,0.64,1.44,1.44v5.62C490.44,362.43,489.79,363.07,489,363.07z"/>
		<polygon class="st2" points="489.45,357.44 493.06,353.83 493.06,363.55 489.63,360.12 		"/>
	</g>
	<rect x="513.98" y="355.42" class="st2" width="4.15" height="6.8"/>
	<path class="st2" d="M518.13,355.42l5.34-4.21c2.95,4.8,2.62,10.42,0.2,15.38l-5.54-4.37V355.42z"/>
	<path class="st22" d="M525.86,350.47c0.88,1.16,2.15,3.18,2.68,5.96c1.1,5.7-1.74,10.18-2.46,11.24"/>
	<path class="st23" d="M528.51,348.83c1.05,1.39,2.56,3.79,3.19,7.09c1.3,6.78-2.07,12.12-2.93,13.39"/>
	<line class="st24" x1="558.23" y1="348.91" x2="558.23" y2="365.26"/>
	<line class="st24" x1="568.75" y1="348.91" x2="568.75" y2="365.26"/>
	<g>
		<path class="st2" d="M564.92,362.74h-2.86c-0.84,0-1.52-0.68-1.52-1.52v-12.57c0-0.84,0.68-1.52,1.52-1.52h2.86
			c0.84,0,1.52,0.68,1.52,1.52v12.57C566.44,362.06,565.76,362.74,564.92,362.74z"/>
		<line class="st24" x1="558.23" y1="365.26" x2="568.75" y2="365.26"/>
		<line class="st24" x1="563.49" y1="365.26" x2="563.49" y2="371.52"/>
	</g>
	<g>
		<g>
			<path class="st25" d="M573.23,329.9h-17.48c0.05-1.8,0-3.6-0.18-5.38c-0.03-0.35-0.07-0.72-0.11-1.12
				c-0.36-3.48-1.14-8.88-4.36-13.99c-0.33-0.51-0.68-1.03-1.06-1.54c-0.24-0.32-0.47-0.63-0.73-0.93
				c-0.73-0.91-1.52-1.75-2.38-2.54c-0.28-0.26-0.47-0.58-0.56-0.92c-0.02-0.02-0.02-0.03-0.02-0.04c-0.06-0.24-0.08-0.47-0.06-0.71
				c0.03-0.31,0.12-0.62,0.3-0.9l0.47-0.74l0.48-0.76l0.35-0.56l0.08-0.13l0.82-1.3c0.38-0.6,1.03-0.95,1.71-0.95
				c0.16,0,0.34,0.02,0.5,0.07c0.03,0,0.05,0.01,0.08,0.02c0.42,0.12,0.93,0.29,1.49,0.49c0.16,0.05,0.34,0.12,0.51,0.19
				c4.27,1.62,11.43,5.36,16.12,13.21c2.41,4.04,3.56,8.16,3.97,12.02C573.43,325.68,573.41,327.87,573.23,329.9z"/>
		</g>
		<g>
			<path class="st8" d="M551.67,306.66c-0.48-0.65-0.96-1.23-1.4-1.74c-0.75-0.85-1.43-1.52-1.96-2.01
				c0.06-0.09,0.11-0.19,0.18-0.28c0.21-0.32,0.4-0.64,0.6-0.96c-0.29,0.23-0.59,0.43-0.89,0.63c-0.47,0.33-0.95,0.64-1.43,0.93
				c-0.02,0.02-0.05,0.04-0.08,0.05c-0.1,0.07-0.21,0.13-0.31,0.2c0.08,0.34,0.28,0.66,0.56,0.92c0.85,0.79,1.65,1.64,2.38,2.54
				c0.26,0.3,0.49,0.61,0.73,0.93c0.38,0.51,0.73,1.03,1.06,1.54c3.21,5.11,4,10.51,4.36,13.99h2.04
				C557.07,319.15,556.1,312.64,551.67,306.66z M575.29,323.4c-0.42-4.17-1.68-8.63-4.32-13.06c-4.59-7.69-11.39-11.67-15.99-13.61
				c-0.14-0.06-0.29-0.12-0.43-0.19c-0.73-0.29-1.4-0.54-1.98-0.73c-0.32-0.1-0.62-0.2-0.89-0.28c-0.1-0.03-0.21-0.06-0.31-0.07
				c0,0,0,0-0.01,0c-0.29-0.07-0.57-0.1-0.85-0.1c-0.11,0-0.24,0.01-0.35,0.02c-1.15,0.09-2.24,0.69-2.93,1.66v0.01
				c-0.05,0.06-0.1,0.12-0.14,0.2l-0.98,1.56c-0.01,0.02-0.02,0.03-0.03,0.03l-0.12,0.18c0.01,0.01,0.01,0.01,0,0.02l-0.77,1.23
				l-0.2,0.31v0.01l-0.06,0.09l-0.05,0.08c-0.23,0.36-0.39,0.74-0.49,1.13v0.01c-0.04,0.15-0.07,0.29-0.09,0.44
				c-0.03,0.22-0.04,0.42-0.04,0.64c0.01,0.48,0.1,0.96,0.28,1.4c0.01,0.03,0.02,0.07,0.03,0.1c0.22,0.53,0.55,1,0.99,1.41
				c0.51,0.47,1,0.97,1.46,1.48c0.49,0.55,0.96,1.11,1.4,1.7c3.71,5.02,4.62,10.67,5.01,14.33c0.05,0.47,0.09,0.92,0.13,1.32
				c0.16,1.71,0.23,3.44,0.16,5.18h4.06c0.06-2.27-0.05-4.15-0.19-5.56c-0.03-0.3-0.06-0.61-0.09-0.94
				c-0.43-4.25-1.4-10.76-5.83-16.74c-0.48-0.65-0.96-1.23-1.4-1.74c-0.75-0.85-1.43-1.52-1.96-2.01c0.06-0.09,0.11-0.19,0.18-0.28
				c0.21-0.32,0.4-0.64,0.6-0.96c0.11-0.18,0.23-0.35,0.34-0.53c0.36-0.58,0.73-1.15,1.09-1.73c0.26,0.08,0.59,0.19,0.98,0.31
				c3.32,1.13,11.06,4.44,16,12.69c2.19,3.69,3.29,7.44,3.69,10.98c0.27,2.28,0.24,4.47,0.04,6.5h4.11
				C575.51,327.86,575.52,325.68,575.29,323.4z"/>
		</g>
	</g>
	<g>
		<g>
			<g>
				<path class="st25" d="M498.06,302.83c-1.28,1.41-2.43,2.98-3.45,4.65c-2.91,4.74-4.67,10.09-5.21,15.92
					c-0.02,0.18-0.04,0.34-0.05,0.51c-0.06,0.8-0.12,1.64-0.18,2.49c-0.02,0.56-0.04,1.15-0.05,1.75c-0.01,0.15-0.03,0.82-0.03,0.82
					c-0.01,0.3-0.01,0.61-0.01,0.92h-15.59c0.08-2.27,0.34-4.44,0.79-6.5c0.31-1.4,0.7-2.74,1.19-4.01
					c2.53-6.59,6.44-12.25,11.61-16.8c1.74-1.54,3.6-2.94,5.55-4.15c0.6-0.37,1.19-0.72,1.8-1.05c0.02-0.02,0.04-0.03,0.06-0.04
					c0.31-0.16,0.65-0.25,0.98-0.25c0.47,0,0.94,0.16,1.31,0.48c0.56,0.46,1.15,0.93,1.75,1.35c0.02,0.01,0.04,0.03,0.05,0.04
					c0.44,0.35,0.73,0.85,0.79,1.42c0.01,0.04,0.01,0.07,0.01,0.1c0,0.24-0.03,0.47-0.11,0.69c-0.08,0.3-0.25,0.58-0.46,0.8
					C498.56,302.27,498.3,302.54,498.06,302.83z"/>
			</g>
			<g>
				<path class="st8" d="M501.39,300.22c0-0.03-0.01-0.07-0.01-0.1c-0.04-0.36-0.13-0.71-0.27-1.04c-0.28-0.71-0.76-1.33-1.4-1.78
					c-0.56-0.39-1.1-0.81-1.62-1.26c-0.74-0.63-1.68-0.96-2.62-0.96c-0.14,0-0.29,0.01-0.43,0.03c-0.53,0.05-1.04,0.21-1.51,0.47
					c-0.18,0.09-0.35,0.2-0.51,0.3c-0.6,0.33-1.19,0.69-1.77,1.06c-1.93,1.22-3.77,2.61-5.51,4.14c-5.41,4.77-9.5,10.68-12.15,17.59
					c-0.58,1.49-1.03,3.08-1.36,4.73c-0.42,2.07-0.66,4.24-0.74,6.5h4.05c0.08-2.27,0.35-4.46,0.84-6.5
					c0.26-1.14,0.59-2.24,0.99-3.28c2.82-7.31,7.06-12.47,11.06-16.01c0.26-0.23,0.51-0.45,0.77-0.66c0.26-0.22,0.5-0.42,0.75-0.62
					c0.1-0.09,0.21-0.18,0.31-0.25c0.09-0.08,0.2-0.15,0.3-0.23c0.04-0.04,0.09-0.07,0.13-0.1c0.2-0.16,0.4-0.31,0.59-0.44
					c0.54-0.39,1.05-0.75,1.56-1.08c0.2-0.13,0.39-0.26,0.59-0.38c0.26-0.16,0.5-0.32,0.74-0.46c0.46-0.28,0.91-0.54,1.32-0.76
					c0.46,0.38,0.93,0.75,1.4,1.1c0.15,0.12,0.32,0.25,0.48,0.36c-0.31,0.31-0.64,0.67-0.99,1.07c-1.06,1.19-2.29,2.78-3.49,4.76
					c-2.47,4.03-4.87,9.66-5.53,16.97c-0.01,0.11-0.02,0.24-0.03,0.35c-0.06,0.83-0.11,1.68-0.16,2.55
					c-0.03,0.59-0.05,1.19-0.06,1.8c-0.01,0.28-0.03,0.55-0.03,0.82c0,0.32-0.01,0.64,0,0.97h4.04c0-0.3,0-0.61,0.01-0.9
					c0.01-0.08,0.01-0.19,0.02-0.29c0-0.16,0.01-0.33,0.02-0.5c0.01-0.59,0.03-1.16,0.05-1.72c0.04-0.81,0.1-1.64,0.16-2.44
					c0.02-0.22,0.04-0.43,0.06-0.65c0.54-5.43,2.18-10.43,4.9-14.85c0.29-0.47,0.59-0.94,0.9-1.39c0.8-1.16,1.67-2.26,2.61-3.26
					c0.13-0.16,0.29-0.33,0.44-0.48c0.2-0.21,0.36-0.42,0.52-0.66c0.09-0.16,0.19-0.33,0.26-0.5c0.16-0.35,0.27-0.73,0.32-1.11
					C501.41,300.84,501.42,300.53,501.39,300.22z"/>
			</g>
		</g>
		<g>
			<g>
				<path class="st25" d="M557.25,329.9H488.2c0-1.8,0.04-3.94,0.22-6.06c0.01-0.14,0.02-0.3,0.04-0.44
					c0.59-6.34,2.66-12.35,5.98-17.39c0.99-1.5,1.98-2.74,2.83-3.71c0.47-0.54,0.91-0.99,1.28-1.35c0.05-0.05,0.1-0.09,0.15-0.13
					c0.2-0.16,0.43-0.27,0.68-0.32c0.11-0.03,0.23-0.04,0.35-0.04c0.3,0,0.6,0.08,0.87,0.24c0.25,0.15,0.5,0.3,0.76,0.43
					c1.41,0.8,2.91,1.5,4.47,2.1c1.78,0.69,3.66,1.25,5.57,1.68c4.32,0.96,8.59,1.1,10.75,1.1h1.16c2.15,0,6.43-0.14,10.75-1.1
					c1.72-0.38,4-1.02,6.48-2.06c1.39-0.58,2.85-1.29,4.32-2.15c0.02-0.01,0.04-0.02,0.06-0.03c0.23-0.12,0.47-0.2,0.72-0.21h0.08
					c0.37,0,0.74,0.12,1.05,0.38c0.05,0.02,0.1,0.07,0.14,0.11l0.13,0.13c0.33,0.33,0.71,0.74,1.13,1.22
					c0.09,0.11,0.19,0.22,0.29,0.33c0.55,0.65,1.15,1.41,1.78,2.29c2.78,3.89,5.95,10.04,6.74,18.48c0.02,0.14,0.03,0.29,0.04,0.44
					l0.03,0.47c0.07,0.8,0.14,1.63,0.14,2.48c0,0.68,0.01,1.35,0.02,2.02C557.24,329.18,557.25,329.54,557.25,329.9z"/>
			</g>
			<g>
				<path class="st8" d="M489.4,323.4c-0.02,0.18-0.04,0.34-0.05,0.51c-0.06,0.8-0.12,1.64-0.18,2.49
					c-0.02,0.56-0.04,1.15-0.05,1.75c-0.01,0.15-0.03,0.82-0.03,0.82c-0.01,0.3-0.01,0.61-0.01,0.92h0.81
					c0-1.98,0.05-3.97,0.22-5.91c0.02-0.2,0.03-0.39,0.05-0.59H489.4z M558.93,328.79c-0.01-0.66-0.02-1.32-0.02-1.98
					c0-0.94-0.07-1.79-0.14-2.63l-0.04-0.46c-0.01-0.1-0.02-0.22-0.03-0.32c-0.98-11.08-5.95-18.44-9.13-22.08
					c-0.05-0.06-0.1-0.11-0.14-0.16c-0.45-0.51-0.87-0.95-1.23-1.31l-0.08-0.08c-0.02-0.02-0.03-0.03-0.05-0.04
					c-0.02-0.03-0.05-0.06-0.08-0.08c-0.53-0.47-1.17-0.76-1.84-0.83h-0.02c-0.05-0.01-0.1-0.02-0.16-0.02
					c-0.07-0.01-0.14-0.01-0.22-0.01c-0.59,0-1.18,0.15-1.72,0.47c-0.6,0.35-1.19,0.68-1.78,0.98c-2.45,1.25-4.82,2.07-6.78,2.6
					c-0.01,0.01-0.01,0-0.02,0c-0.63,0.18-1.19,0.32-1.73,0.44c-4.17,0.93-8.3,1.06-10.39,1.06h-1.15c-2.09,0-6.22-0.13-10.39-1.06
					c-1.82-0.41-3.62-0.95-5.31-1.61c-1.76-0.68-3.43-1.48-4.99-2.41c-0.11-0.07-0.24-0.13-0.36-0.18c-0.43-0.21-0.91-0.3-1.37-0.3
					c-0.13,0-0.27,0.01-0.4,0.03c-0.26,0.02-0.51,0.08-0.75,0.18c-0.45,0.16-0.88,0.42-1.23,0.77c-0.02,0.02-0.04,0.04-0.07,0.07
					c-0.12,0.12-0.26,0.27-0.41,0.41c-0.3,0.32-0.63,0.68-0.98,1.08c-0.88,1-1.87,2.27-2.86,3.78c-0.07,0.1-0.13,0.21-0.21,0.32
					c-0.01,0.01-0.02,0.02-0.02,0.04c-3.38,5.21-5.46,11.4-6.04,17.94c-0.01,0.1-0.02,0.21-0.03,0.31
					c-0.19,2.16-0.23,4.35-0.23,6.19h3.38c0-1.98,0.05-3.97,0.22-5.91c0.02-0.2,0.03-0.39,0.05-0.59c0.7-7.29,3.24-12.75,5.7-16.45
					c0.05-0.07,0.1-0.15,0.15-0.23c0-0.01,0.01-0.02,0.02-0.03c0.94-1.41,1.86-2.55,2.65-3.43c0.01-0.01,0.02-0.02,0.03-0.03
					c0.38-0.42,0.73-0.78,1.03-1.08c0.35,0.21,0.7,0.41,1.05,0.6c1.51,0.83,3.02,1.5,4.44,2.06c2.2,0.85,4.22,1.4,5.81,1.75
					c4.48,1,8.9,1.14,11.12,1.14h1.15c2.22,0,6.64-0.14,11.12-1.14c2.51-0.56,6.11-1.62,9.82-3.58c0.49-0.26,0.99-0.54,1.48-0.82
					c0.18,0.18,0.36,0.36,0.56,0.58c0.15,0.15,0.31,0.32,0.47,0.5c1.25,1.38,2.84,3.44,4.34,6.18c1.92,3.52,3.65,8.18,4.2,13.99
					c0.02,0.2,0.03,0.39,0.05,0.59c0.07,0.93,0.18,1.86,0.18,2.81v0.01c0,1.02,0.02,2.06,0.03,3.09h3.38
					C558.94,329.52,558.94,329.15,558.93,328.79z"/>
			</g>
		</g>
		<g>
			<g>
				<path class="st25" d="M522.17,307.16c-2.2,0-6.57-0.15-11.01-1.13c-2.72-0.61-5.47-1.53-7.95-2.68
					c-2.91-1.36-5.5-3.03-7.69-4.96c-6.18-5.44-9.32-12.84-9.32-21.99c0-22.2,15.23-29.67,22.18-29.67c3.67,0,6.73,1.97,9.43,3.72
					c1.8,1.16,3.5,2.26,4.93,2.45c1.43-0.19,3.13-1.29,4.93-2.45c2.7-1.74,5.76-3.72,9.43-3.72c6.95,0,22.18,7.47,22.18,29.67
					c0,21.72-17.45,27.96-24.95,29.63c-4.45,0.98-8.81,1.13-11.01,1.13H522.17z"/>
			</g>
			<g>
				<path class="st8" d="M560.79,269.54c-0.05-0.42-0.12-0.84-0.21-1.26c0-0.03,0-0.07-0.01-0.1c-0.26-1.4-0.6-2.71-0.99-3.96
					c-4.44-14.37-16.39-19.53-22.48-19.53c-4.26,0-7.74,2.24-10.53,4.04c-1.34,0.87-2.84,1.83-3.83,2.09
					c-0.99-0.26-2.49-1.23-3.83-2.09c-2.78-1.8-6.25-4.04-10.53-4.04c-6.1,0-18.03,5.16-22.47,19.51
					c-1.09,3.49-1.73,7.54-1.73,12.19c0,3.32,0.39,6.44,1.18,9.32c1.12,4.22,3.09,7.98,5.88,11.22c0.43,0.51,0.9,1.02,1.39,1.5
					c0.47,0.49,0.99,0.98,1.52,1.45c0.01,0.01,0.01,0.01,0.02,0.02c0.55,0.48,1.12,0.96,1.72,1.4c0.13,0.11,0.28,0.22,0.41,0.31
					c0.02,0.02,0.04,0.03,0.06,0.04c0.3,0.23,0.6,0.44,0.91,0.64c0.26,0.19,0.51,0.36,0.78,0.53c0.22,0.14,0.43,0.28,0.65,0.4
					c0.34,0.22,0.7,0.42,1.05,0.62c0.03,0.02,0.05,0.03,0.07,0.04c0.04,0.02,0.09,0.05,0.14,0.07c0.76,0.43,1.56,0.83,2.37,1.22
					c0.83,0.38,1.69,0.74,2.56,1.07c0.2,0.09,0.31,0.14,0.31,0.14c1.79,0.65,3.64,1.21,5.49,1.62c4.65,1.02,9.17,1.17,11.45,1.17
					h1.15c2.29,0,6.81-0.15,11.44-1.17c1.57-0.35,3.4-0.85,5.37-1.58c1.42-0.53,2.93-1.16,4.44-1.96c0.61-0.31,1.21-0.65,1.81-1
					c0.1-0.06,0.21-0.12,0.31-0.2c0.03-0.01,0.06-0.03,0.08-0.05c0.48-0.29,0.96-0.6,1.43-0.93c0.3-0.2,0.6-0.4,0.89-0.63
					c0.16-0.11,0.32-0.23,0.48-0.36c0.24-0.18,0.47-0.36,0.71-0.55c0.42-0.34,0.82-0.68,1.22-1.04c0.57-0.5,1.11-1.02,1.62-1.57
					c0.26-0.26,0.49-0.51,0.74-0.79v-0.01c0.24-0.27,0.47-0.54,0.7-0.81c1.57-1.91,2.87-4,3.9-6.25c0.66-1.46,1.22-3,1.66-4.59
					v-0.01c0.78-2.9,1.18-6,1.18-9.29C561.3,273.95,561.13,271.67,560.79,269.54z M488.23,276.4c0-21.01,14.37-27.65,20.16-27.65
					c5.6,0,10,5.81,14.36,6.18c4.36-0.37,8.75-6.18,14.36-6.18c5.79,0,20.16,6.64,20.16,27.65c0,8.78-3.08,14.82-7.09,18.98
					c-0.32,0.35-0.66,0.68-1,1c0,0,0,0.01-0.01,0.01c-0.98,0.9-1.99,1.7-3.02,2.41h-0.02c-0.01,0.02-0.02,0.03-0.03,0.03
					c-0.04,0.04-0.08,0.07-0.12,0.09c-1.24,0.85-2.5,1.58-3.73,2.18c-1.46,0.73-2.88,1.3-4.17,1.74c-1.67,0.59-3.12,0.96-4.18,1.19
					c-4.34,0.97-8.67,1.08-10.57,1.08h-1.15c-1.9,0-6.23-0.11-10.57-1.08c-1.72-0.38-4.49-1.13-7.54-2.53
					c-0.88-0.41-1.78-0.88-2.68-1.4c-0.68-0.4-1.36-0.82-2.04-1.31c-0.84-0.58-1.67-1.23-2.48-1.94c-0.62-0.55-1.23-1.13-1.81-1.76
					C491.17,290.98,488.23,285,488.23,276.4z"/>
			</g>
		</g>
	</g>
	<g>
		<g>
			<g>
				<path class="st26" d="M534.79,259.11c-4.56-0.09-8.21,3.56-11.77,3.73c-3.54-0.31-7.05-4.1-11.61-4.19
					c-4.71-0.09-16.49,3.93-16.75,17.39c-0.27,13.46,13.97,17.18,18.67,18.09c3.95,0.77,7.9,0.86,9.06,0.88
					c1.16,0.04,5.11,0.1,9.09-0.51c4.72-0.73,19.1-3.88,19.37-17.34C551.11,263.7,539.5,259.21,534.79,259.11z"/>
			</g>
		</g>
		<g>
			<g>
				<g>
					<defs>
						<path id="SVGID_1_" d="M511.06,303.83c4.32,1.05,8.65,1.26,10.55,1.29c0.23,0,0.42,0.01,0.58,0.01
							c0.15,0.01,0.35,0.01,0.58,0.01c1.89,0.04,6.23,0,10.59-0.87c5.81-1.17,23.49-6.18,23.91-27.18
							c0.42-21-13.81-27.93-19.59-28.04c-5.6-0.11-10.12,5.61-14.48,5.89c-4.35-0.46-8.63-6.35-14.23-6.46
							c-5.79-0.11-20.28,6.24-20.7,27.24C487.83,296.72,505.3,302.42,511.06,303.83z"/>
					</defs>
					<clipPath id="SVGID_2_">
						<use xlink:href="#SVGID_1_"  style="overflow:visible;"/>
					</clipPath>
					<g class="st27">
						<g>
							<path class="st28" d="M513.88,288.86c0,0,3.69,17.76,8.41,17.85c4.71,0.09,8.85-17.51,8.85-17.51L513.88,288.86z"/>
						</g>
					</g>
				</g>
			</g>
			<g>
				<path class="st8" d="M530.33,285.32c-0.95-2.05-2.69-3.68-4.83-4.47c-0.89-0.33-1.83-0.51-2.82-0.54
					c-1-0.02-1.96,0.12-2.85,0.43c-2.17,0.7-3.98,2.26-5,4.27c-0.59,1.12-0.92,2.39-0.95,3.74c-0.03,1.33,0.49,3.51,1.4,5.7
					c1.49,3.59,4.04,7.23,6.96,7.29c2.99,0.06,5.68-3.46,7.28-7c0.98-2.13,1.57-4.27,1.6-5.63
					C531.15,287.76,530.87,286.48,530.33,285.32z M522.32,298.05c-0.57-0.01-1.69-1.38-2.7-3.15c-1.1-1.95-2.08-4.39-2.04-6.07
					c0.05-2.72,2.31-4.88,5.02-4.83c2.72,0.06,4.89,2.31,4.84,5.03c-0.04,1.69-1.02,4.08-2.17,5.97
					C524.21,296.75,523.03,298.06,522.32,298.05z"/>
			</g>
			<g>
				<path class="st2" d="M522.61,283.27c-3.13-0.06-5.72,2.43-5.78,5.56c-0.06,3.13,3.5,9.93,5.47,9.97
					c2.22,0.04,5.8-6.62,5.87-9.74C528.23,285.92,525.74,283.33,522.61,283.27z"/>
			</g>
			<g>
				<g>
					<defs>
						<path id="SVGID_3_" d="M516.83,288.82c-0.06,3.13,3.5,9.93,5.47,9.97c2.22,0.04,5.8-6.62,5.87-9.74
							c0.06-3.13-2.43-5.72-5.56-5.78C519.49,283.21,516.9,285.7,516.83,288.82z"/>
					</defs>
					<clipPath id="SVGID_4_">
						<use xlink:href="#SVGID_3_"  style="overflow:visible;"/>
					</clipPath>
					<g class="st29">
						<path class="st30" d="M516.83,288.82c0,0,3.63,7.84,5.67,7.88c2.03,0.04,5.71-8.21,5.71-8.21s-0.97,11.63-5.78,11.53
							C517.63,299.93,516.83,288.82,516.83,288.82z"/>
					</g>
				</g>
			</g>
		</g>
		<g>
			<path class="st31" d="M525.26,291.34c0.67-1.35,1.7-3.25,1.93-3.62c0.24-0.37-1.44-2.58-1.55-2.15
				C523.43,294.64,523.46,294.99,525.26,291.34z"/>
		</g>
		<g>
			<g>
				<g>
					<path class="st14" d="M537.27,260.76c6.89,0.14,12.38,5.84,12.24,12.74c-0.14,6.9-5.84,12.38-12.74,12.24
						c-6.9-0.14-12.38-5.84-12.24-12.74C524.67,266.1,530.37,260.62,537.27,260.76z"/>
					<path class="st8" d="M537.29,259.44h-0.09c-7.54-0.1-13.83,5.94-13.99,13.53c-0.06,2.9,0.79,5.62,2.29,7.88
						c1.23,1.84,2.88,3.39,4.83,4.47c1.91,1.06,4.09,1.68,6.42,1.73h0.28c7.06,0,12.95-5.35,13.72-12.26v-0.01
						c0.05-0.42,0.08-0.83,0.09-1.27v-0.27C550.84,265.76,544.82,259.58,537.29,259.44z M536.8,284.42
						c-6.16-0.12-11.06-5.23-10.95-11.39c0.12-6.09,5.11-10.95,11.18-10.95h0.22c6.16,0.12,11.07,5.23,10.95,11.39
						C548.07,279.63,542.96,284.54,536.8,284.42z"/>
				</g>
			</g>
			<g>
				<path class="st32" d="M534.24,270.79c2.16,0.04,3.88,1.83,3.84,3.99c-0.04,2.16-1.83,3.88-3.99,3.84
					c-2.16-0.04-3.88-1.83-3.84-3.99C530.29,272.47,532.07,270.75,534.24,270.79z"/>
			</g>
			<g>
				<g>
					<path class="st14" d="M508.87,260.19c6.89,0.14,12.38,5.84,12.24,12.74c-0.14,6.9-5.84,12.38-12.74,12.24
						c-6.9-0.14-12.38-5.84-12.24-12.74C496.26,265.54,501.97,260.06,508.87,260.19z"/>
					<path class="st8" d="M518.58,263.11c-1.28-1.33-2.78-2.37-4.42-3.09c-1.6-0.69-3.34-1.09-5.13-1.13c-0.01,0-0.01,0-0.02,0H509
						c-0.04-0.01-0.07-0.01-0.1-0.01c-7.59-0.13-13.94,5.92-14.09,13.53c-0.01,0.39,0,0.77,0.03,1.16v0.01
						c0.45,7.08,6.28,12.77,13.5,12.91c0.09,0,0.19,0.01,0.28,0.01c2.19,0,4.31-0.51,6.21-1.47c1.22-0.62,2.35-1.42,3.36-2.39
						c0.61-0.59,1.15-1.22,1.64-1.88c1.64-2.26,2.55-4.95,2.61-7.8C522.5,269.27,521.13,265.77,518.58,263.11z M508.62,261.51h0.22
						c2.99,0.06,5.77,1.28,7.84,3.43c2.07,2.15,3.17,4.99,3.11,7.96c-0.06,2.99-1.28,5.77-3.43,7.83c-2.15,2.07-4.95,3.19-7.96,3.12
						c-6.16-0.12-11.06-5.23-10.94-11.39C497.57,266.37,502.55,261.51,508.62,261.51z"/>
				</g>
			</g>
			<g>
				<path class="st32" d="M503.46,270.79c2.16,0.04,3.88,1.83,3.84,3.99c-0.04,2.16-1.83,3.88-3.99,3.84
					c-2.16-0.04-3.88-1.83-3.84-3.99C499.51,272.47,501.3,270.75,503.46,270.79z"/>
			</g>
		</g>
	</g>
	<g>
		<g>
			<g>
				<path class="st33" d="M565.45,267.88l-2.76,0.09c0.45,14.62,0.8,25.93-20.46,30.38v2.84c8.56-1.69,14.34-4.53,18-8.71
					C565.58,286.37,565.76,278.08,565.45,267.88z"/>
			</g>
			<g>
				<path d="M545.97,299.13c0,2.05-2.14,3.72-4.74,3.72h-5.22c-2.61,0-4.74-1.67-4.74-3.72c0-2.05,2.14-3.72,4.74-3.72h5.22
					C543.84,295.41,545.97,297.09,545.97,299.13z"/>
			</g>
			<g>
				<path class="st33" d="M564.77,269.55h-4.18c0-20.87-17.62-38.5-38.48-38.5c-22.73,0-38,19.91-38,38.5h-4.18
					c0-10.73,4.38-21.5,12.02-29.55c8.03-8.47,18.74-13.13,30.16-13.13c11.43,0,22.22,4.66,30.38,13.12
					C560.3,248.07,564.77,258.84,564.77,269.55z"/>
			</g>
			<g>
				<path class="st11" d="M486.54,283.42c0,1.57-1.28,2.85-2.85,2.85H481c-1.57,0-2.85-1.28-2.85-2.85v-17.43
					c0-1.57,1.28-2.85,2.85-2.85h2.69c1.57,0,2.85,1.28,2.85,2.85V283.42z"/>
			</g>
			<g>
				<path class="st11" d="M567.35,283.42c0,1.57-1.28,2.85-2.85,2.85h-2.69c-1.57,0-2.85-1.28-2.85-2.85v-17.43
					c0-1.57,1.28-2.85,2.85-2.85h2.69c1.57,0,2.85,1.28,2.85,2.85V283.42z"/>
			</g>
		</g>
	</g>
	<g>
		<path class="st28" d="M540.13,306.4c-0.07,1.03,2.02,1.02,2.63,1.08c1.85,0.18,3.72,0.08,5.52-0.35c0.39-0.09,0.77-0.15,1.17-0.21
			c-0.41-0.77-1.03-1.6-1.55-2.28c-0.38-0.49-0.8-0.94-1.24-1.38C544.8,304.37,540.13,306.37,540.13,306.4z"/>
	</g>
	<rect x="445.56" y="324.38" class="st14" width="155.82" height="7.83"/>
	<polygon class="st18" points="469.38,502.87 277.03,503.03 277.03,462.95 486.94,462.95 	"/>
	<polygon class="st17" points="473.49,470.89 325.65,469.47 331.03,465.02 476.61,465.02 	"/>
	<polygon class="st17" points="469.52,479.64 321.68,478.23 327.06,473.77 472.65,473.77 	"/>
	<polygon class="st17" points="465,488.61 317.16,487.19 322.55,482.74 468.13,482.74 	"/>
	<polygon class="st17" points="460.37,498.82 312.53,497.4 317.91,492.95 463.49,492.95 	"/>
	<g>
		<g>
			<g>
				<g>
					<g>
						<path class="st8" d="M368.34,356.27c-1.4-1.54-2.92-3.03-4.47-4.4c-0.2-0.17-0.39-0.34-0.59-0.5
							c-1.57-1.36-3.17-2.59-4.75-3.7h-0.01c-1.71-1.18-3.38-2.18-4.9-2.96c-1.13-0.57-2.18-1-3.12-1.3
							c-4.2-1.31-8.52-1.32-12.48-0.24c-3.64,0.97-7,2.87-9.72,5.49c-2.61,2.52-4.65,5.7-5.8,9.4c-3.68,11.76,2.9,24.32,14.65,28
							c0.86,0.26,1.89,0.49,3.04,0.65c1.75,0.24,3.79,0.36,6.01,0.35h0.01c1.91-0.01,3.93-0.12,6.01-0.35
							c10.04-1.11,21.01-4.81,23.28-12.05C377.3,368.94,373.63,362.12,368.34,356.27z M366.37,371.79c-0.41,1.32-4.1,2.97-8.77,4.17
							c-1.82,0.48-3.81,0.89-5.8,1.18c-0.01,0-0.01,0-0.02,0c-1.98,0.29-3.98,0.47-5.86,0.49c-2.22,0.01-4.28-0.2-5.91-0.71
							c-4.98-1.55-8.33-5.9-8.87-10.79c-0.2-1.7-0.05-3.47,0.5-5.21c1.06-3.4,3.43-6.04,6.38-7.55c2.88-1.47,6.3-1.86,9.62-0.82
							c1.62,0.5,3.4,1.45,5.2,2.67c1.52,1.02,3.05,2.23,4.52,3.53c1.5,1.36,2.94,2.8,4.21,4.24c0.42,0.49,0.83,0.97,1.21,1.45
							c0.73,0.89,1.37,1.76,1.91,2.58C366,369.05,366.69,370.79,366.37,371.79z"/>
						<path class="st30" d="M329.81,360.35c-2.42,7.73,1.89,15.98,9.63,18.4c7.74,2.42,27.23-1.51,28.76-6.38
							c1.72-5.48-12.25-19.23-19.99-21.65C340.48,348.3,332.23,352.61,329.81,360.35z"/>
					</g>
				</g>
			</g>
		</g>
	</g>
	<path class="st34" d="M175.11,319.03v45.16c0,4.05-3.32,7.37-7.38,7.37h-6.96c-4.05,0-7.37-3.32-7.37-7.37v-45.16
		c0-4.06,3.32-7.37,7.37-7.37h6.96c0.54,0,1.07,0.06,1.58,0.19C172.62,312.56,175.11,315.51,175.11,319.03z"/>
	<polygon class="st35" points="486.94,462.95 486.94,466.54 469.15,508.38 469.38,502.87 	"/>
	<g>
		<path class="st25" d="M226.66,598.8c-0.07,0.41-0.19,0.81-0.38,1.2h-6.02c-0.03,0.04-0.06,0.09-0.1,0.14
			c-0.04-0.01-0.06-0.03-0.08-0.04c-0.04-0.03-0.08-0.06-0.12-0.1h-23.17c2.7-2.29,6.35-5.71,11.07-10.96
			c0.52-0.59,1.07-1.21,1.63-1.85c0.58-0.67,1.32-1.16,2.14-1.44c0.44-0.16,0.91-0.25,1.38-0.27h0.24c1.27,0,2.5,0.49,3.43,1.37
			c1.81,1.72,3.64,3.36,5.45,4.89c0.91,0.77,1.82,1.52,2.73,2.24c0.7,0.56,1.22,1.27,1.52,2.05h0.01
			C226.75,596.9,226.84,597.87,226.66,598.8z"/>
		<path class="st8" d="M231.6,596.23c-0.26-1.6-0.93-3.14-1.97-4.47c-0.48-0.62-1.03-1.19-1.67-1.69c-2.59-2.04-5.22-4.35-7.84-6.84
			c-1.8-1.7-4.17-2.67-6.62-2.73c-0.08-0.01-0.17-0.01-0.25-0.01c-0.16,0-0.31,0-0.47,0.01c-1.69,0.08-3.31,0.58-4.73,1.45
			c-0.86,0.53-1.63,1.18-2.32,1.95c-0.45,0.51-0.88,1-1.31,1.48c-7.69,8.63-12.43,12.17-14.78,13.93c-0.28,0.21-0.59,0.44-0.92,0.69
			h15.51c2.07-1.99,4.46-4.44,7.19-7.47c0.59-0.67,1.2-1.35,1.83-2.07c1.61,1.53,3.19,2.97,4.77,4.33c0.91,0.79,1.8,1.53,2.69,2.26
			c0.36,0.29,0.7,0.57,1.06,0.84c-0.28,0.36-0.56,0.76-0.86,1.18c-0.02,0.04-0.04,0.06-0.06,0.08c-0.19,0.28-0.38,0.56-0.59,0.85
			h11.25c0.08-0.34,0.14-0.69,0.17-1.04C231.78,598.04,231.76,597.12,231.6,596.23z"/>
	</g>
	<g>
		<path class="st25" d="M233.26,600h-13c-0.03,0.04-0.06,0.09-0.1,0.14c-0.04-0.01-0.06-0.03-0.08-0.04
			c0.03-0.03,0.05-0.07,0.08-0.1c0.23-0.3,0.47-0.58,0.69-0.85c0.02-0.02,0.04-0.04,0.06-0.08c0.42-0.51,0.83-0.98,1.22-1.41
			c0.45-0.5,0.96-0.88,1.52-1.14c0.69-0.35,1.44-0.52,2.19-0.52c0.19,0,0.36,0.01,0.54,0.03h0.01c0.83,0.08,1.66,0.39,2.38,0.91
			c0.96,0.69,1.93,1.37,2.91,2.02C232.2,599.31,232.73,599.66,233.26,600z"/>
		<path class="st8" d="M231.68,592.89c-0.65-0.47-1.34-0.84-2.05-1.13c-1.22-0.5-2.5-0.75-3.78-0.75c-0.35,0-0.7,0.02-1.05,0.06
			c-0.91,0.09-1.81,0.31-2.67,0.67c-0.89,0.34-1.75,0.83-2.52,1.46c-0.43,0.34-0.81,0.72-1.19,1.13c-0.14,0.15-0.28,0.3-0.4,0.46
			c-0.57,0.64-1.17,1.35-1.78,2.12c-0.07,0.08-0.13,0.16-0.2,0.24l-1.24,1.58c-0.34,0.42-0.68,0.85-1.01,1.27h6.17
			c0.04,0.04,0.08,0.07,0.12,0.1c0.02,0.01,0.04,0.03,0.08,0.04c0.04-0.05,0.07-0.1,0.1-0.14h22.89
			C239.3,598.01,235.45,595.62,231.68,592.89z"/>
	</g>
	<g>
		<path class="st25" d="M331.6,600h-29.47c-0.17-0.36-0.29-0.74-0.36-1.13c-0.18-0.93-0.08-1.9,0.28-2.78
			c0.31-0.78,0.83-1.49,1.53-2.05c0.91-0.72,1.82-1.47,2.73-2.24h0.01c1.83-1.55,3.65-3.18,5.45-4.89c0.93-0.88,2.16-1.37,3.44-1.37
			c0.07,0,0.15,0,0.23,0.01c0.48,0.02,0.95,0.11,1.39,0.26c0.82,0.28,1.55,0.77,2.13,1.44c0.56,0.64,1.1,1.25,1.63,1.84
			C325.27,594.3,328.91,597.71,331.6,600z"/>
		<path class="st8" d="M338.75,599.31c-2.34-1.75-7.07-5.29-14.72-13.86c-0.43-0.47-0.87-0.96-1.31-1.48
			c-0.68-0.77-1.46-1.42-2.31-1.95h-0.01c-1.42-0.87-3.04-1.37-4.72-1.45c-0.16-0.01-0.32-0.01-0.48-0.01c-0.08,0-0.17,0-0.25,0.01
			c-2.46,0.06-4.81,1.02-6.6,2.72c-2.59,2.45-5.23,4.76-7.87,6.84c-0.64,0.5-1.19,1.07-1.67,1.68c-1.04,1.32-1.7,2.85-1.97,4.46
			c-0.15,0.89-0.19,1.82-0.07,2.74c0.03,0.33,0.08,0.66,0.16,0.99h11.21c-0.21-0.29-0.4-0.57-0.59-0.84
			c-0.32-0.43-0.61-0.84-0.88-1.21c1.24-0.98,2.49-2.02,3.76-3.1c1.57-1.35,3.17-2.79,4.78-4.32c0.63,0.71,1.24,1.39,1.83,2.05
			c2.71,3.01,5.08,5.45,7.14,7.42h15.48C339.33,599.74,339.03,599.52,338.75,599.31z"/>
	</g>
	<g>
		<path class="st25" d="M308.23,600h-12.97c0.51-0.32,1.01-0.65,1.51-0.99c0.98-0.65,1.95-1.32,2.91-2.02
			c0.72-0.51,1.53-0.82,2.37-0.9h0.01c0.18-0.02,0.35-0.03,0.53-0.03c0.76,0,1.52,0.17,2.21,0.51h0.01
			c0.56,0.27,1.07,0.66,1.52,1.16c0.43,0.5,0.83,0.96,1.22,1.43C307.78,599.44,308.01,599.72,308.23,600z"/>
		<path class="st8" d="M313.61,598.75l-1.24-1.56c-0.06-0.07-0.12-0.15-0.17-0.22c-0.56-0.71-1.13-1.39-1.77-2.12
			c-0.12-0.14-0.24-0.29-0.37-0.43c-0.38-0.43-0.79-0.81-1.22-1.15c-0.78-0.63-1.62-1.12-2.52-1.47h-0.01
			c-0.86-0.36-1.75-0.59-2.67-0.68c-0.35-0.03-0.69-0.05-1.05-0.05c-1.28,0-2.56,0.23-3.78,0.74c-0.71,0.28-1.4,0.67-2.05,1.14
			c-3.74,2.7-7.57,5.06-11.4,7.05h29.24C314.28,599.58,313.94,599.17,313.61,598.75z"/>
	</g>
	<g>
		<path class="st8" d="M277.01,606.68c0.26-0.09,0.52-0.19,0.8-0.29v-0.01C277.53,606.48,277.27,606.59,277.01,606.68z"/>
	</g>
	<g>
		<path class="st25" d="M277.01,606.68c0.26-0.09,0.52-0.2,0.8-0.3v0.01C277.53,606.49,277.27,606.59,277.01,606.68z"/>
		<path class="st25" d="M354.31,491.83c0,0.08-0.05,1.11-0.06,1.5c-0.29,5.96-0.8,11.4-1.56,16.72c-0.02,0.15-0.03,0.29-0.05,0.44
			v0.08c0,0.27-0.02,0.54-0.06,0.81l-0.21,1.47c-0.22,1.49-0.44,3.02-0.73,4.58c0.01,0.2,0.01,0.34,0.01,0.49
			c0,0.99-0.29,1.97-0.85,2.8c-0.16,0.23-0.22,0.63-0.32,1.56c-0.08,0.69-0.17,1.48-0.38,2.36c-0.15,0.64-0.36,1.16-0.51,1.55
			c-0.04,0.08-0.07,0.16-0.1,0.25c-0.41,1.62-0.85,3.23-1.31,4.83l-0.71,2.43c-0.03,0.1-0.06,0.2-0.09,0.3
			c-1.14,3.69-2.42,7.31-3.78,10.71c-0.01,0.04-0.03,0.07-0.04,0.11c-0.21,0.52-0.44,1.05-0.67,1.57l-0.16,0.37
			c-1.09,2.61-2.32,5.27-3.63,7.89l-0.34,0.66c-0.03,0.06-0.06,0.13-0.1,0.19c-3.34,6.57-7.3,12.85-11.78,18.69
			c0,0-0.74,0.95-0.75,0.95c-0.05,0.08-0.11,0.16-0.16,0.23c-1.92,2.43-3.76,4.64-5.56,6.65c-0.89,0.99-1.77,1.93-2.65,2.84
			c-0.31,0.32-0.62,0.64-0.93,0.95c-2.71,2.74-5.38,5.22-7.99,7.46c-1.36,1.16-2.71,2.26-4.03,3.3h-0.01
			c-1.03,0.81-2.03,1.57-3.03,2.3c-0.53,0.39-1.06,0.77-1.58,1.13h-71.86c-0.55-0.39-1.11-0.79-1.67-1.2
			c-0.99-0.73-2-1.48-3.01-2.28c-1.33-1.04-2.68-2.15-4.04-3.32c-2.61-2.24-5.28-4.71-7.98-7.45c-0.29-0.29-0.58-0.59-0.87-0.89
			c-0.92-0.95-1.83-1.92-2.71-2.91c-4.24-4.68-8.18-9.8-11.73-15.24l-0.01-0.02c-0.2-0.29-0.4-0.58-0.59-0.87
			c-0.04-0.05-0.07-0.11-0.1-0.16c-0.54-0.84-1.03-1.68-1.53-2.53l-0.97-1.65c-0.19-0.33-0.38-0.66-0.58-0.98
			c-1-1.77-1.89-3.43-2.7-5.03c-0.05-0.08-0.63-1.22-0.63-1.22c-1.26-2.54-2.4-5.05-3.44-7.5l-0.25-0.58
			c-0.15-0.36-0.31-0.71-0.45-1.07c-0.02-0.05-0.11-0.25-0.14-0.31c-0.09-0.24-0.22-0.48-0.35-0.72c-0.46-0.89-1.11-2.16-1.32-3.73
			c-0.78-2.15-1.48-4.27-2.18-6.55c-0.02-0.08-0.04-0.15-0.06-0.22c-0.35-1.15-0.68-2.3-1-3.44c-0.35-1.22-0.67-2.48-0.98-3.73
			c-0.04-0.15-0.07-0.31-0.1-0.46c-0.16-0.67-0.3-1.34-0.44-2.01c-0.09-0.43-0.19-0.86-0.28-1.29c-0.26-1.17-0.46-2.32-0.67-3.47
			c-0.1-0.6-0.2-1.19-0.32-1.78c-0.16-0.84-0.33-1.95-0.33-3.19c0-0.32-0.16-0.96-0.29-1.53c-0.15-0.63-0.32-1.35-0.43-2.14
			c-0.04-0.25-0.1-0.51-0.15-0.77c-0.18-0.8-0.39-1.8-0.39-2.98c0-0.23-0.09-0.71-0.17-1.14c-0.06-0.28-0.11-0.57-0.16-0.86
			c-0.1-0.32-0.17-0.65-0.21-0.98c-0.11-1-0.18-2-0.25-2.99l-0.08-1.13c-0.01-0.12-0.01-0.24-0.01-0.36c0-0.15,0-0.3,0.02-0.45
			c-0.27-3.5-0.4-6.96-0.4-10.35c0-0.49-0.04-0.96-0.07-1.42c-0.05-0.71-0.1-1.42-0.1-2.13c-0.01-0.96-0.01-1.95-0.01-2.98
			c0-4.86,0.1-10.35,0.56-15.93c2.35-28.8,15.42-47.55,23.37-56.45c1.14-1.28,2.17-2.35,3.05-3.22c0.14-0.14,0.29-0.27,0.44-0.39
			c0.06-0.05,0.13-0.1,0.2-0.15c0.84-0.6,1.85-0.91,2.86-0.91c0.88,0,1.76,0.23,2.55,0.7c10.36,6.15,20.84,9.28,27.8,10.83
			c11.14,2.48,22.16,2.85,27.74,2.85c0.55,0,1.03,0,1.42-0.01c0.53,0.01,1,0.01,1.56,0.01c5.58,0,16.6-0.37,27.73-2.85
			c6.36-1.41,15.63-4.15,25.1-9.3v-0.01c0.9-0.48,1.8-0.99,2.7-1.52c0.79-0.47,1.67-0.7,2.54-0.7c1.09,0,2.18,0.36,3.07,1.06
			c0.02,0.02,0.05,0.04,0.08,0.06c0.12,0.11,0.24,0.21,0.36,0.33c0.88,0.87,1.91,1.95,3.05,3.22c7.94,8.91,21,27.66,23.35,56.45
			l0.08,0.99c0.17,2.17,0.36,4.4,0.36,6.72c0,1.81,0.03,3.61,0.06,5.41c0.01,0.36,0.01,0.72,0.02,1.09c0.02,1.7,0.04,3.43,0.03,5.16
			c0,0.56,0,1.12-0.01,1.68c0,0.35-0.04,0.75-0.08,1.15c-0.01,0.09-0.02,0.18-0.02,0.27c0,0.28,0.01,1.41,0.02,1.98v0.23
			C354.27,491.09,354.31,491.46,354.31,491.83z"/>
		<path class="st8" d="M277.01,606.68c0.26-0.09,0.52-0.19,0.8-0.29v-0.01C277.53,606.48,277.27,606.59,277.01,606.68z
			 M264.26,424.29c-0.41,0.02-0.91,0.02-1.49,0.02h2.99C265.17,424.31,264.67,424.31,264.26,424.29z M277.01,606.68
			c0.26-0.09,0.52-0.19,0.8-0.29v-0.01C277.53,606.48,277.27,606.59,277.01,606.68z M264.26,424.29c-0.41,0.02-0.91,0.02-1.49,0.02
			h2.99C265.17,424.31,264.67,424.31,264.26,424.29z M277.01,606.68c0.26-0.09,0.52-0.19,0.8-0.29v-0.01
			C277.53,606.48,277.27,606.59,277.01,606.68z M264.26,424.29c-0.41,0.02-0.91,0.02-1.49,0.02h2.99
			C265.17,424.31,264.67,424.31,264.26,424.29z M277.01,606.68c0.26-0.09,0.52-0.19,0.8-0.29v-0.01
			C277.53,606.48,277.27,606.59,277.01,606.68z M264.26,424.29c-0.41,0.02-0.91,0.02-1.49,0.02h2.99
			C265.17,424.31,264.67,424.31,264.26,424.29z M277.01,606.68c0.26-0.09,0.52-0.19,0.8-0.29v-0.01
			C277.53,606.48,277.27,606.59,277.01,606.68z M264.26,424.29c-0.41,0.02-0.91,0.02-1.49,0.02h2.99
			C265.17,424.31,264.67,424.31,264.26,424.29z M357.68,457.18c-2.49-15.57-8.43-30.58-17.62-43.41c-1.4-1.95-2.87-3.85-4.42-5.69
			c-0.42-0.51-0.84-0.99-1.25-1.44c-0.89-1.02-1.72-1.91-2.49-2.71c-0.29-0.3-0.57-0.58-0.83-0.84c-0.02-0.02-0.03-0.03-0.05-0.05
			l-0.18-0.18c-0.2-0.2-0.41-0.4-0.63-0.58c-0.9-0.76-1.92-1.34-2.98-1.73c-0.31-0.1-0.62-0.2-0.94-0.28
			c-0.81-0.21-1.63-0.31-2.47-0.31c-1.74,0-3.5,0.45-5.09,1.4c-9.8,5.81-19.72,8.77-26.33,10.25c-10.66,2.37-21.27,2.73-26.64,2.73
			c-0.55,0-1.01-0.02-1.37-0.02h-0.26c-0.37,0-0.83,0.02-1.37,0.02c-5.37,0-15.96-0.36-26.64-2.73
			c-6.61-1.48-16.55-4.44-26.36-10.25c-1.57-0.95-3.33-1.4-5.07-1.4c-0.83,0-1.66,0.1-2.47,0.31c-1.67,0.42-3.26,1.29-4.55,2.56
			c-0.06,0.06-0.13,0.13-0.19,0.19c-0.16,0.16-0.33,0.33-0.51,0.51c-0.86,0.88-1.83,1.91-2.87,3.1
			c-8.43,9.56-21.87,29.19-24.31,59.02c-0.42,5.27-0.55,10.41-0.56,15.08c-0.01,1.49-0.01,2.93,0,4.31c0,0.88,0.06,1.74,0.11,2.42
			c0.03,0.4,0.06,0.82,0.06,1.04c0,3.45,0.13,6.95,0.39,10.41c-0.02,0.39-0.02,0.76,0.01,1.15l0.08,1.09
			c0.06,0.98,0.15,2.01,0.25,3.09c0.06,0.58,0.17,1.16,0.32,1.69c0.05,0.23,0.08,0.46,0.11,0.64c0.04,0.16,0.06,0.32,0.1,0.48
			c0.02,1.58,0.3,2.88,0.49,3.76c0.03,0.16,0.08,0.3,0.1,0.46c0.13,0.98,0.34,1.85,0.5,2.54c0.06,0.22,0.13,0.51,0.16,0.69
			c0.03,1.54,0.25,2.9,0.43,3.79c0.11,0.61,0.21,1.18,0.3,1.75c0.21,1.16,0.43,2.37,0.71,3.65c0.09,0.45,0.18,0.86,0.26,1.27
			c0.15,0.65,0.29,1.3,0.44,1.95c0.04,0.23,0.1,0.48,0.16,0.71c0.35,1.44,0.66,2.65,1.01,3.88c0.32,1.12,0.66,2.28,1.01,3.43
			c0.02,0.1,0.06,0.21,0.08,0.31c0.68,2.24,1.37,4.34,2.1,6.36c0.38,2.12,1.22,3.76,1.74,4.74c0.05,0.14,0.12,0.26,0.18,0.38
			c0.05,0.11,0.09,0.21,0.15,0.31c0,0.03,0.01,0.05,0.02,0.09c0.15,0.35,0.3,0.69,0.46,1.05l0.23,0.52
			c1.05,2.53,2.25,5.12,3.54,7.72c0.01,0.04,0.03,0.08,0.05,0.12c0.1,0.2,0.21,0.41,0.31,0.61l0.14,0.31
			c0.08,0.13,0.14,0.25,0.21,0.37c0.84,1.64,1.73,3.33,2.7,5.04c0.05,0.06,0.09,0.13,0.13,0.2c0.19,0.31,0.36,0.62,0.55,0.93
			l0.35,0.61c0.06,0.11,0.11,0.21,0.17,0.29l0.45,0.74c0.49,0.86,1,1.74,1.61,2.68c0.05,0.08,0.11,0.18,0.15,0.26
			c0.21,0.32,0.44,0.64,0.67,0.98c3.7,5.65,7.79,10.96,12.2,15.83c0.9,1,1.82,2,2.76,2.96c0.23,0.22,0.46,0.46,0.68,0.7
			c1.2,1.21,2.38,2.37,3.56,3.49c1.62,1.55,3.23,3,4.82,4.38c1.25,1.08,2.49,2.1,3.72,3.09c0.04,0.04,0.08,0.07,0.12,0.1
			c0.02,0.01,0.04,0.03,0.08,0.04c0.04-0.05,0.07-0.1,0.1-0.14h17.19c-1.89-1.12-3.84-2.38-5.85-3.77c-2.21-1.54-4.47-3.26-6.8-5.16
			c-3.38-2.79-6.88-5.99-10.46-9.68c-0.28-0.3-0.57-0.59-0.84-0.89c-0.38-0.39-0.75-0.78-1.11-1.18c-0.64-0.7-1.27-1.39-1.89-2.1
			c-0.61-0.7-1.22-1.41-1.82-2.13c-1.19-1.43-2.34-2.88-3.45-4.35c-1.67-2.22-3.23-4.47-4.73-6.75c-0.21-0.3-0.41-0.6-0.62-0.92
			c-0.73-1.13-1.38-2.28-2.06-3.44c-0.02-0.02-0.03-0.04-0.04-0.05c-0.33-0.56-0.64-1.11-0.97-1.66c-0.91-1.62-1.8-3.27-2.65-4.93
			c-0.17-0.35-0.34-0.68-0.5-1.02c-0.58-1.18-1.14-2.36-1.7-3.56c-0.55-1.19-1.08-2.39-1.59-3.59c-0.26-0.62-0.55-1.24-0.81-1.89
			c-0.1-0.26-0.22-0.5-0.36-0.75c-0.72-1.45-1.02-2.14-1.02-2.85c0-0.11-0.06-0.22-0.1-0.31c-0.81-2.21-1.55-4.43-2.22-6.67
			c0-0.02-0.01-0.03-0.01-0.05c-0.36-1.17-0.7-2.34-1.03-3.5c-0.3-1.08-0.58-2.17-0.86-3.25c-0.03-0.12-0.06-0.24-0.09-0.36
			c0-0.02,0.02-0.02,0.01-0.04c-0.3-1.19-0.52-2.41-0.8-3.6c-0.28-1.27-0.49-2.55-0.72-3.82c-0.08-0.43-0.16-0.86-0.24-1.28
			c-0.03-0.18-0.07-0.38-0.09-0.56c-0.09-0.57-0.15-1.13-0.15-1.71c0-0.36-0.03-0.72-0.09-1.09c-0.06-0.36-0.14-0.72-0.22-1.08
			c-0.16-0.73-0.35-1.45-0.45-2.18c-0.15-1.02-0.49-2.04-0.49-3.06c0-1.16-0.38-2.32-0.49-3.49c0,0-0.08,0-0.08-0.01
			c-0.11-0.98-0.18-1.99-0.24-2.98c-0.03-0.33-0.05-0.66-0.07-1c0-0.02,0.01-0.02,0.05-0.07c-0.21-2.68-0.35-5.36-0.41-8.03
			c-0.02-0.89-0.03-1.78-0.03-2.69c0-0.28-0.01-0.57-0.02-0.86c-0.01-0.28-0.04-0.56-0.06-0.85c0.01-0.04,0-0.08,0-0.11
			c-0.02-0.3-0.04-0.59-0.06-0.88c-0.02-0.28-0.03-0.56-0.03-0.84c0-0.73-0.01-1.47-0.01-2.21c0-0.39,0-0.77,0.01-1.15
			c0-0.38,0.01-0.76,0.01-1.15c0-0.76,0-1.53,0.01-2.28l0.03-1.95c0.03-0.77,0.05-1.52,0.07-2.28c0.06-1.83,0.15-3.65,0.28-5.47
			c-0.01-0.02,0-0.04,0-0.07c0.04-0.64,0.09-1.29,0.15-1.93c0.04-0.59,0.1-1.18,0.16-1.78c0.18-1.76,0.4-3.48,0.65-5.16
			c0.08-0.56,0.17-1.12,0.26-1.67c0.09-0.58,0.19-1.16,0.31-1.75c0.1-0.51,0.19-1,0.29-1.5c0.2-1.04,0.43-2.06,0.67-3.06
			c0.25-1.06,0.51-2.09,0.8-3.11c0.13-0.5,0.27-0.99,0.41-1.47c0.23-0.8,0.47-1.58,0.71-2.35c0.14-0.46,0.29-0.92,0.45-1.37
			c0.28-0.83,0.56-1.64,0.86-2.44c0.23-0.63,0.47-1.26,0.71-1.86c0.23-0.58,0.45-1.17,0.69-1.74c0.16-0.36,0.31-0.72,0.46-1.06
			c0.39-0.91,0.79-1.8,1.21-2.68c0.14-0.31,0.29-0.62,0.44-0.93c0.18-0.39,0.37-0.78,0.57-1.15c0.19-0.38,0.37-0.76,0.57-1.12
			c0.39-0.74,0.77-1.46,1.16-2.17c0.97-1.75,1.97-3.39,2.95-4.94c0.23-0.36,0.46-0.71,0.7-1.06c0.23-0.35,0.46-0.69,0.69-1.02
			c0.46-0.68,0.92-1.32,1.37-1.94c0.21-0.29,0.42-0.57,0.63-0.85c0.83-1.11,1.64-2.13,2.41-3.07c0.26-0.32,0.52-0.62,0.77-0.92
			c0.3-0.35,0.6-0.7,0.89-1.03l0.1-0.1c0.01-0.01,0.02-0.03,0.03-0.04c0.05-0.07,0.11-0.13,0.17-0.19c0.03-0.03,0.06-0.06,0.09-0.09
			c0.02-0.02,0.03-0.04,0.05-0.06c0.01-0.02,0.03-0.04,0.06-0.06c0.03-0.04,0.07-0.08,0.1-0.12c0.02-0.03,0.04-0.05,0.06-0.07
			c0.03-0.04,0.06-0.07,0.09-0.1c0.04-0.03,0.06-0.06,0.09-0.09c0.11-0.12,0.21-0.24,0.31-0.35c0.1-0.11,0.2-0.22,0.31-0.33
			c0.4-0.42,0.79-0.83,1.15-1.19c0.19-0.2,0.37-0.38,0.54-0.54c0.63,0.37,1.26,0.73,1.88,1.08c0.63,0.35,1.26,0.69,1.89,1.02
			c2.82,1.5,5.63,2.79,8.35,3.91c2.6,1.08,5.14,1.99,7.54,2.76c3.58,1.17,6.85,2.01,9.61,2.63c11.63,2.59,23.05,2.97,28.82,2.97
			h2.99c5.76,0,17.19-0.38,28.8-2.97c2.77-0.62,6.03-1.46,9.62-2.63c2.4-0.77,4.92-1.68,7.54-2.76c0.75-0.31,1.51-0.63,2.27-0.97
			c1.9-0.84,3.82-1.76,5.75-2.77c0.55-0.3,1.08-0.59,1.65-0.89c0.41-0.22,0.81-0.45,1.21-0.68c0.41-0.22,0.82-0.46,1.22-0.7
			c0.18,0.16,0.36,0.34,0.54,0.54c0.26,0.26,0.54,0.54,0.82,0.84c0.12,0.11,0.23,0.24,0.33,0.35c0.21,0.22,0.42,0.45,0.62,0.68
			c0.02,0.02,0.04,0.05,0.07,0.07c0.02,0.03,0.05,0.06,0.08,0.09c0.06,0.05,0.11,0.1,0.15,0.17c0.07,0.06,0.13,0.13,0.18,0.2
			c0.17,0.19,0.34,0.38,0.5,0.57c0.17,0.19,0.34,0.38,0.51,0.59c0.19,0.2,0.36,0.4,0.53,0.61c0.08,0.1,0.17,0.2,0.25,0.3
			c0.14,0.16,0.28,0.32,0.41,0.49c0.14,0.16,0.28,0.33,0.42,0.51c0.02,0.03,0.04,0.05,0.06,0.09c0.04,0.05,0.08,0.1,0.13,0.15
			c0.12,0.16,0.26,0.32,0.39,0.49c0.13,0.16,0.27,0.34,0.4,0.51c0.01,0.03,0.03,0.06,0.06,0.09c0.02,0.03,0.05,0.06,0.08,0.08
			c0.13,0.18,0.25,0.35,0.39,0.53c0.12,0.17,0.26,0.35,0.39,0.53c0.15,0.2,0.3,0.4,0.45,0.61c0.02,0.03,0.04,0.06,0.06,0.09
			c0.06,0.08,0.11,0.15,0.17,0.23c0.02,0.03,0.04,0.06,0.07,0.09c0.06,0.08,0.12,0.17,0.19,0.25c0,0.01,0,0.01,0.01,0.03
			c0.32,0.44,0.64,0.9,0.96,1.37c0.06,0.09,0.13,0.18,0.19,0.28c0.15,0.22,0.29,0.44,0.45,0.66c0.1,0.16,0.21,0.33,0.32,0.49
			c0.16,0.26,0.33,0.51,0.5,0.77c0.16,0.26,0.33,0.53,0.52,0.8c0.17,0.31,0.36,0.62,0.57,0.94c0.11,0.19,0.23,0.4,0.35,0.59
			c0.65,1.07,1.29,2.2,1.92,3.38c0.99,1.83,1.96,3.77,2.88,5.84c0.23,0.49,0.44,0.99,0.66,1.49c0.33,0.78,0.66,1.57,0.97,2.38
			c0.56,1.41,1.11,2.88,1.61,4.38c0.22,0.63,0.42,1.27,0.63,1.92c0.11,0.37,0.23,0.73,0.33,1.1c0.04,0.09,0.06,0.18,0.08,0.27
			c0.15,0.46,0.28,0.93,0.41,1.4c0.48,1.7,0.93,3.46,1.33,5.27c0.16,0.76,0.32,1.52,0.47,2.3c0.17,0.87,0.33,1.76,0.48,2.66
			c0.16,0.94,0.3,1.88,0.43,2.83c0.11,0.84,0.22,1.67,0.32,2.53c0.11,1.01,0.22,2.04,0.3,3.09c0.19,2.42,0.42,4.87,0.42,7.33
			c0,1.4,0.01,2.79,0.04,4.18c0.46,21.2-1.81,42.75-9.4,62.67c-0.78,2.05-1.62,4.07-2.5,6.08c-0.28,0.64-0.57,1.27-0.86,1.9
			c-0.59,1.27-1.19,2.54-1.82,3.8c-0.1,0.19-0.19,0.38-0.31,0.6c-0.8,1.58-1.63,3.14-2.51,4.68c-0.87,1.55-1.78,3.08-2.73,4.58
			c-0.47,0.76-0.96,1.52-1.46,2.27c-0.99,1.49-2.01,2.96-3.08,4.43c-0.53,0.73-1.08,1.46-1.63,2.18c-0.24,0.31-0.49,0.63-0.73,0.93
			c-0.02,0.03-0.05,0.06-0.07,0.1c-0.03,0.03-0.05,0.06-0.08,0.1c-0.61,0.78-1.23,1.55-1.86,2.33c-0.79,0.96-1.6,1.91-2.42,2.85
			c-0.82,0.95-1.67,1.89-2.54,2.81c-0.09,0.11-0.17,0.2-0.27,0.29c-0.25,0.27-0.51,0.55-0.78,0.82c-3.59,3.71-7.12,6.93-10.53,9.73
			c-2.33,1.91-4.6,3.62-6.8,5.15c-1.98,1.38-3.92,2.62-5.78,3.73h17.5c1.2-0.96,2.42-1.97,3.64-3.03c1.6-1.37,3.22-2.83,4.84-4.39
			c1.19-1.12,2.36-2.28,3.55-3.49c0.25-0.25,0.5-0.5,0.74-0.75c0.89-0.93,1.8-1.89,2.7-2.89c1.91-2.13,3.84-4.44,5.85-6.99
			c0.09-0.11,0.16-0.2,0.23-0.3c0.17-0.22,0.34-0.45,0.51-0.67l0.17-0.2c0.02-0.03,0.03-0.04,0.05-0.07
			c4.64-6.05,8.74-12.57,12.23-19.37c0.02-0.08,0.07-0.15,0.11-0.21c0.11-0.19,0.19-0.38,0.29-0.56l0.02-0.08
			c0.04-0.06,0.05-0.06,0.06-0.12c1.37-2.73,2.64-5.48,3.79-8.21l0.14-0.32c0.24-0.55,0.48-1.11,0.7-1.67
			c0.02-0.03,0.03-0.07,0.05-0.11c4.64-9.29,6.82-19.59,8.52-29.76c0.56-3.37,1.05-6.75,1.44-10.15c0.56-4.73,0.95-9.47,1.17-14.23
			c0.04-0.72,0.07-1.43,0.1-2.15c0.08-2.05,0.13-4.1,0.15-6.15C359.68,475.11,359.12,466.08,357.68,457.18z M277.01,606.68
			c0.26-0.09,0.52-0.19,0.8-0.29v-0.01C277.53,606.48,277.27,606.59,277.01,606.68z M264.26,424.29c-0.41,0.02-0.91,0.02-1.49,0.02
			h2.99C265.17,424.31,264.67,424.31,264.26,424.29z M277.01,606.68c0.26-0.09,0.52-0.19,0.8-0.29v-0.01
			C277.53,606.48,277.27,606.59,277.01,606.68z M264.26,424.29c-0.41,0.02-0.91,0.02-1.49,0.02h2.99
			C265.17,424.31,264.67,424.31,264.26,424.29z M277.01,606.68c0.26-0.09,0.52-0.19,0.8-0.29v-0.01
			C277.53,606.48,277.27,606.59,277.01,606.68z M264.26,424.29c-0.41,0.02-0.91,0.02-1.49,0.02h2.99
			C265.17,424.31,264.67,424.31,264.26,424.29z M277.01,606.68c0.26-0.09,0.52-0.19,0.8-0.29v-0.01
			C277.53,606.48,277.27,606.59,277.01,606.68z M264.26,424.29c-0.41,0.02-0.91,0.02-1.49,0.02h2.99
			C265.17,424.31,264.67,424.31,264.26,424.29z M277.01,606.68c0.26-0.09,0.52-0.19,0.8-0.29v-0.01
			C277.53,606.48,277.27,606.59,277.01,606.68z M264.26,424.29c-0.41,0.02-0.91,0.02-1.49,0.02h2.99
			C265.17,424.31,264.67,424.31,264.26,424.29z M277.01,606.68c0.26-0.09,0.52-0.19,0.8-0.29v-0.01
			C277.53,606.48,277.27,606.59,277.01,606.68z"/>
	</g>
	<ellipse class="st36" cx="129.01" cy="63.31" rx="6.78" ry="8.93"/>
	<path class="st25" d="M358.63,343.22c0,56.1-45.05,72.18-64.42,76.49c-11.48,2.54-22.76,2.92-28.46,2.92c-0.61,0-1.14,0-1.56-0.01
		c-0.27,0.01-0.8,0.01-1.43,0.01c-4.98,0-14.26-0.29-24.19-2.08c-1.41-0.24-2.84-0.52-4.26-0.84
		c-19.37-4.31-64.43-20.39-64.43-76.49c0-57.32,39.27-76.61,57.19-76.61c0.89,0,1.76,0.04,2.62,0.13
		c8.29,0.82,15.35,5.38,21.65,9.45c4.7,3.03,9.15,5.9,12.92,6.4c3.76-0.5,8.21-3.37,12.92-6.4c6.95-4.49,14.84-9.58,24.27-9.58
		C319.37,266.61,358.63,285.9,358.63,343.22z"/>
	<path class="st8" d="M343.93,301.34c0.6,1.1,1.19,2.23,1.75,3.4C345.13,303.57,344.54,302.44,343.93,301.34z M320.58,277.47
		c1.05,0.59,2.1,1.23,3.16,1.91C322.68,278.69,321.63,278.05,320.58,277.47z M290.19,274.38c1.01-0.47,2.05-0.9,3.09-1.28
		C292.24,273.48,291.2,273.9,290.19,274.38z M301.45,271.6c-1.73,0-3.42,0.21-5.07,0.6c1.65-0.38,3.34-0.59,5.07-0.59h0.38
		C301.7,271.6,301.58,271.6,301.45,271.6z M227.72,271.61c-0.22-0.01-0.44-0.01-0.66-0.01c-0.67,0-1.38,0.03-2.12,0.11
		c0.74-0.07,1.45-0.1,2.12-0.1c0.22,0,0.43,0,0.65,0.01c0.69,0.02,1.36,0.07,2.04,0.15C229.08,271.68,228.4,271.63,227.72,271.61z
		 M183.15,304.07c1.06-2.13,2.19-4.14,3.38-6.03C185.33,299.93,184.2,301.94,183.15,304.07z M343.93,301.34
		c0.6,1.1,1.19,2.23,1.75,3.4C345.13,303.57,344.54,302.44,343.93,301.34z M320.58,277.47c1.05,0.59,2.1,1.23,3.16,1.91
		C322.68,278.69,321.63,278.05,320.58,277.47z M301.45,271.6c-1.73,0-3.42,0.21-5.07,0.6c1.65-0.38,3.34-0.59,5.07-0.59h0.38
		C301.7,271.6,301.58,271.6,301.45,271.6z M290.19,274.38c1.01-0.47,2.05-0.9,3.09-1.28C292.24,273.48,291.2,273.9,290.19,274.38z
		 M227.72,271.61c-0.22-0.01-0.44-0.01-0.66-0.01c-0.67,0-1.38,0.03-2.12,0.11c0.74-0.07,1.45-0.1,2.12-0.1c0.22,0,0.43,0,0.65,0.01
		c0.69,0.02,1.36,0.07,2.04,0.15C229.08,271.68,228.4,271.63,227.72,271.61z M183.15,304.07c1.06-2.13,2.19-4.14,3.38-6.03
		C185.33,299.93,184.2,301.94,183.15,304.07z M343.93,301.34c0.6,1.1,1.19,2.23,1.75,3.4C345.13,303.57,344.54,302.44,343.93,301.34
		z M320.58,277.47c1.05,0.59,2.1,1.23,3.16,1.91C322.68,278.69,321.63,278.05,320.58,277.47z M301.45,271.6
		c-1.73,0-3.42,0.21-5.07,0.6c1.65-0.38,3.34-0.59,5.07-0.59h0.38C301.7,271.6,301.58,271.6,301.45,271.6z M290.19,274.38
		c1.01-0.47,2.05-0.9,3.09-1.28C292.24,273.48,291.2,273.9,290.19,274.38z M227.72,271.61c-0.22-0.01-0.44-0.01-0.66-0.01
		c-0.67,0-1.38,0.03-2.12,0.11c0.74-0.07,1.45-0.1,2.12-0.1c0.22,0,0.43,0,0.65,0.01c0.69,0.02,1.36,0.07,2.04,0.15
		C229.08,271.68,228.4,271.63,227.72,271.61z M183.15,304.07c1.06-2.13,2.19-4.14,3.38-6.03
		C185.33,299.93,184.2,301.94,183.15,304.07z M343.93,301.34c0.6,1.1,1.19,2.23,1.75,3.4C345.13,303.57,344.54,302.44,343.93,301.34
		z M320.58,277.47c1.05,0.59,2.1,1.23,3.16,1.91C322.68,278.69,321.63,278.05,320.58,277.47z M301.45,271.6
		c-1.73,0-3.42,0.21-5.07,0.6c1.65-0.38,3.34-0.59,5.07-0.59h0.38C301.7,271.6,301.58,271.6,301.45,271.6z M290.19,274.38
		c1.01-0.47,2.05-0.9,3.09-1.28C292.24,273.48,291.2,273.9,290.19,274.38z M227.72,271.61c-0.22-0.01-0.44-0.01-0.66-0.01
		c-0.67,0-1.38,0.03-2.12,0.11c0.74-0.07,1.45-0.1,2.12-0.1c0.22,0,0.43,0,0.65,0.01c0.69,0.02,1.36,0.07,2.04,0.15
		C229.08,271.68,228.4,271.63,227.72,271.61z M183.15,304.07c1.06-2.13,2.19-4.14,3.38-6.03
		C185.33,299.93,184.2,301.94,183.15,304.07z M343.93,301.34c0.6,1.1,1.19,2.23,1.75,3.4C345.13,303.57,344.54,302.44,343.93,301.34
		z M320.58,277.47c1.05,0.59,2.1,1.23,3.16,1.91C322.68,278.69,321.63,278.05,320.58,277.47z M301.45,271.6
		c-1.73,0-3.42,0.21-5.07,0.6c1.65-0.38,3.34-0.59,5.07-0.59h0.38C301.7,271.6,301.58,271.6,301.45,271.6z M290.19,274.38
		c1.01-0.47,2.05-0.9,3.09-1.28C292.24,273.48,291.2,273.9,290.19,274.38z M227.72,271.61c-0.22-0.01-0.44-0.01-0.66-0.01
		c-0.67,0-1.38,0.03-2.12,0.11c0.74-0.07,1.45-0.1,2.12-0.1c0.22,0,0.43,0,0.65,0.01c0.69,0.02,1.36,0.07,2.04,0.15
		C229.08,271.68,228.4,271.63,227.72,271.61z M183.15,304.07c1.06-2.13,2.19-4.14,3.38-6.03
		C185.33,299.93,184.2,301.94,183.15,304.07z M343.93,301.34c0.6,1.1,1.19,2.23,1.75,3.4C345.13,303.57,344.54,302.44,343.93,301.34
		z M320.58,277.47c1.05,0.59,2.1,1.23,3.16,1.91C322.68,278.69,321.63,278.05,320.58,277.47z M301.45,271.6
		c-1.73,0-3.42,0.21-5.07,0.6c1.65-0.38,3.34-0.59,5.07-0.59h0.38C301.7,271.6,301.58,271.6,301.45,271.6z M290.19,274.38
		c1.01-0.47,2.05-0.9,3.09-1.28C292.24,273.48,291.2,273.9,290.19,274.38z M227.72,271.61c-0.22-0.01-0.44-0.01-0.66-0.01
		c-0.67,0-1.38,0.03-2.12,0.11c0.74-0.07,1.45-0.1,2.12-0.1c0.22,0,0.43,0,0.65,0.01c0.69,0.02,1.36,0.07,2.04,0.15
		C229.08,271.68,228.4,271.63,227.72,271.61z M183.15,304.07c1.06-2.13,2.19-4.14,3.38-6.03
		C185.33,299.93,184.2,301.94,183.15,304.07z M343.93,301.34c0.6,1.1,1.19,2.23,1.75,3.4C345.13,303.57,344.54,302.44,343.93,301.34
		z M320.58,277.47c1.05,0.59,2.1,1.23,3.16,1.91C322.68,278.69,321.63,278.05,320.58,277.47z M301.45,271.6
		c-1.73,0-3.42,0.21-5.07,0.6c1.65-0.38,3.34-0.59,5.07-0.59h0.38C301.7,271.6,301.58,271.6,301.45,271.6z M290.19,274.38
		c1.01-0.47,2.05-0.9,3.09-1.28C292.24,273.48,291.2,273.9,290.19,274.38z M227.72,271.61c-0.22-0.01-0.44-0.01-0.66-0.01
		c-0.67,0-1.38,0.03-2.12,0.11c0.74-0.07,1.45-0.1,2.12-0.1c0.22,0,0.43,0,0.65,0.01c0.69,0.02,1.36,0.07,2.04,0.15
		C229.08,271.68,228.4,271.63,227.72,271.61z M183.15,304.07c1.06-2.13,2.19-4.14,3.38-6.03
		C185.33,299.93,184.2,301.94,183.15,304.07z M358.68,310.21c-0.15-0.45-0.3-0.89-0.46-1.32v-0.01c-0.85-2.48-1.81-4.84-2.84-7.09
		c-0.32-0.71-0.65-1.41-0.99-2.1c-0.67-1.38-1.38-2.71-2.11-4c-0.27-0.46-0.53-0.91-0.8-1.36c-0.18-0.31-0.36-0.61-0.55-0.91
		c-0.22-0.37-0.45-0.74-0.69-1.1c-0.23-0.37-0.46-0.73-0.7-1.08c-0.2-0.31-0.41-0.62-0.62-0.92c-0.21-0.3-0.42-0.6-0.63-0.9
		c-0.54-0.78-1.11-1.54-1.68-2.28c-0.2-0.27-0.41-0.53-0.62-0.79c-0.16-0.21-0.33-0.43-0.51-0.64c-0.25-0.31-0.5-0.62-0.76-0.92
		c-1.19-1.43-2.41-2.78-3.67-4.05c-0.45-0.47-0.91-0.92-1.37-1.37c-0.52-0.5-1.04-0.99-1.57-1.47c-0.41-0.37-0.82-0.74-1.23-1.09
		c-0.47-0.41-0.94-0.81-1.42-1.2c0,0,0-0.01-0.01-0.01c-12.05-9.91-25.34-13.97-34-13.97c-10.9,0-19.82,5.75-26.98,10.38
		c-3.73,2.41-7.58,4.89-10.21,5.51c-2.64-0.62-6.48-3.1-10.22-5.51c-7.16-4.63-16.08-10.38-26.98-10.38
		c-11.44,0-30.91,7.1-45.02,25.34v0.01c-0.16,0.21-0.32,0.42-0.48,0.63s-0.32,0.43-0.48,0.65c-0.14,0.18-0.27,0.36-0.4,0.54
		s-0.26,0.36-0.38,0.54c-0.42,0.6-0.84,1.21-1.26,1.82c-0.41,0.62-0.82,1.25-1.22,1.89c-0.27,0.43-0.53,0.86-0.79,1.3
		c-0.34,0.59-0.69,1.18-1.02,1.78c-0.18,0.32-0.36,0.64-0.54,0.97c-0.18,0.32-0.35,0.65-0.52,0.98c-0.13,0.23-0.25,0.47-0.36,0.71
		c-0.21,0.43-0.43,0.85-0.64,1.28c-0.15,0.3-0.29,0.6-0.43,0.9c-0.14,0.3-0.28,0.61-0.42,0.91c-0.28,0.61-0.56,1.23-0.82,1.86
		c-0.21,0.49-0.42,0.99-0.62,1.5c-0.23,0.56-0.45,1.12-0.66,1.69c-0.35,0.91-0.68,1.84-1,2.79c-0.08,0.24-0.16,0.48-0.23,0.71
		c-0.04,0.11-0.08,0.23-0.12,0.35c-0.06,0.19-0.13,0.38-0.18,0.58c-0.05,0.16-0.1,0.32-0.15,0.48c-1.39,4.49-2.5,9.33-3.25,14.55
		c0,0.06-0.02,0.13-0.04,0.19c-0.73,5.17-1.13,10.72-1.13,16.64c0,10.09,1.46,19.53,4.34,28.17c3.78,11.36,9.99,21.35,18.49,29.64
		c1.75,1.72,3.59,3.36,5.52,4.91c0.28,0.23,0.57,0.46,0.85,0.69c1.33,1.04,2.68,2.03,4.02,2.97c0,0,0.01,0,0.01,0.01
		c0.43,0.28,0.85,0.57,1.27,0.85c0.99,0.66,1.98,1.28,2.96,1.88l0.01,0.01c0.95,0.57,1.89,1.12,2.84,1.65
		c0.45,0.26,0.9,0.5,1.35,0.75c0.29,0.15,0.58,0.3,0.86,0.45h0.01c0.52,0.28,1.04,0.55,1.57,0.81c1.02,0.52,2.04,1.01,3.05,1.47
		c0.37,0.18,0.75,0.35,1.12,0.51c0.15,0.07,0.31,0.14,0.46,0.21h0.01l0.01,0.01c7.22,3.16,14.07,5.14,19.58,6.37
		c11.94,2.65,23.63,3.03,29.53,3.03h3c5.89,0,17.59-0.38,29.52-3.03c4.94-1.1,10.91-2.79,17.29-5.4c0.26-0.1,0.5-0.21,0.75-0.31
		c1.71-0.72,3.45-1.5,5.2-2.35h0.01v-0.01c1.45-0.71,2.91-1.47,4.37-2.28c0.54-0.3,1.08-0.6,1.62-0.92
		c0.53-0.31,1.07-0.63,1.61-0.96h0.01c0.62-0.38,1.24-0.77,1.85-1.17c0.17-0.1,0.33-0.2,0.51-0.32c0.06-0.04,0.11-0.08,0.17-0.12
		c0.54-0.36,1.1-0.72,1.64-1.09c0.02-0.02,0.05-0.03,0.07-0.04c0.4-0.28,0.81-0.57,1.21-0.85c0.94-0.68,1.87-1.38,2.8-2.12
		c0.3-0.23,0.58-0.46,0.88-0.7c0.53-0.43,1.05-0.86,1.57-1.29c0.46-0.39,0.91-0.79,1.35-1.18c0.1-0.09,0.2-0.18,0.3-0.27
		c0.84-0.76,1.66-1.53,2.46-2.32c0.7-0.68,1.38-1.38,2.04-2.09c0.18-0.19,0.35-0.38,0.53-0.57c3.3-3.56,6.19-7.41,8.7-11.51
		c1.65-2.74,3.14-5.59,4.44-8.53c0.33-0.73,0.64-1.47,0.94-2.22c0.97-2.37,1.81-4.83,2.54-7.34v-0.01c0.23-0.77,0.45-1.52,0.64-2.3
		c0.29-1.1,0.55-2.2,0.79-3.32c0.17-0.76,0.33-1.51,0.47-2.28v-0.01c0.57-3.02,0.99-6.14,1.24-9.33c0.23-2.66,0.35-5.38,0.35-8.15
		C363.63,330.52,361.78,319.58,358.68,310.21z M353.62,344.71c-0.03,2.95-0.22,5.76-0.51,8.46v0.01c-0.08,0.69-0.16,1.37-0.27,2.04
		c-0.67,4.9-1.74,9.4-3.16,13.55v0.01c-1.07,3.16-2.34,6.11-3.76,8.85c-0.32,0.63-0.65,1.23-1,1.84c-1.43,2.59-3.03,5-4.73,7.24
		c-2.28,3.01-4.76,5.71-7.35,8.14c-1.61,1.5-3.26,2.9-4.94,4.2c-0.53,0.42-1.07,0.83-1.61,1.22c-0.73,0.53-1.45,1.04-2.19,1.54
		c-1.03,0.69-2.06,1.36-3.09,1.98c-10.94,6.68-21.87,9.72-27.89,11.05c-11.23,2.49-22.46,2.81-27.36,2.81c-0.59,0-1.11,0-1.51-0.01
		c-0.39,0.01-0.89,0.01-1.48,0.01c-4.91,0-16.13-0.32-27.38-2.81c-0.68-0.15-1.42-0.32-2.21-0.52c-7.4-1.83-19.61-5.77-30.96-14.05
		c-13.24-9.69-25.32-25.31-27.11-50.46c-0.16-2.13-0.24-4.33-0.24-6.59c0-2.55,0.08-5.02,0.24-7.42c0.21-3.18,0.55-6.22,1.02-9.13
		c0.24-1.45,0.49-2.87,0.79-4.25c0.86-4.17,1.98-8.02,3.32-11.59c0.44-1.19,0.91-2.34,1.39-3.48c0.49-1.11,1-2.21,1.52-3.28
		c1.06-2.13,2.19-4.14,3.38-6.03c5.36-8.51,11.97-14.65,18.53-18.85c0.72-0.47,1.45-0.91,2.17-1.32c0.36-0.22,0.73-0.43,1.08-0.62
		c0.72-0.4,1.44-0.78,2.15-1.12c0.36-0.18,0.72-0.35,1.07-0.51c1.05-0.5,2.1-0.94,3.13-1.34c0.68-0.26,1.35-0.51,2.01-0.73h0.01
		c1-0.34,1.97-0.63,2.92-0.87c0.7-0.18,1.39-0.34,2.05-0.48c0.5-0.1,0.99-0.19,1.47-0.26c0.36-0.06,0.71-0.1,1.06-0.15
		c0.25-0.03,0.51-0.06,0.76-0.08c0.74-0.07,1.45-0.1,2.12-0.1c0.22,0,0.43,0,0.65,0.01c0.69,0.02,1.36,0.07,2.04,0.15
		c0.88,0.11,1.75,0.27,2.6,0.48c2.86,0.68,5.6,1.86,8.25,3.26c1.67,0.89,3.31,1.86,4.91,2.87c0.8,0.5,1.6,1,2.39,1.52
		c0.78,0.5,1.56,1,2.34,1.51c2.6,1.68,5.14,3.23,7.64,4.36c1.07,0.49,2.13,0.9,3.2,1.22c0.35,0.1,0.7,0.2,1.07,0.28
		c0.23,0.05,0.47,0.1,0.7,0.14c0.24,0.05,0.47,0.08,0.71,0.12c0.22,0.03,0.46,0.06,0.69,0.08c0.05,0,0.09-0.01,0.14-0.01
		c0.66-0.07,1.32-0.17,1.99-0.33c0.35-0.08,0.7-0.18,1.06-0.28c0.36-0.11,0.71-0.23,1.06-0.35c0.35-0.13,0.7-0.26,1.06-0.4
		c2.5-1.02,5.02-2.49,7.6-4.13c2.3-1.45,4.66-3.01,7.08-4.48c0.96-0.6,1.94-1.17,2.93-1.72c0.5-0.27,1-0.54,1.5-0.79
		s1.01-0.5,1.52-0.74c1.01-0.47,2.05-0.9,3.09-1.28c0.53-0.18,1.05-0.35,1.59-0.51c0.27-0.08,0.53-0.15,0.8-0.22
		c0.23-0.06,0.47-0.12,0.71-0.17c1.65-0.38,3.34-0.59,5.07-0.59h0.38c0.13-0.01,0.27,0,0.4,0.01c0.26,0,0.53,0.02,0.81,0.04
		c0.55,0.04,1.12,0.1,1.71,0.18c0.4,0.05,0.8,0.12,1.21,0.19c0.56,0.09,1.12,0.21,1.7,0.34c0.33,0.07,0.67,0.15,1.01,0.24
		c0.45,0.12,0.91,0.24,1.38,0.38c0.35,0.1,0.7,0.21,1.06,0.32c0.71,0.22,1.44,0.48,2.18,0.76c0.37,0.14,0.75,0.29,1.12,0.44
		c0.49,0.19,1,0.41,1.51,0.63c0,0,0,0,0.01,0c0.5,0.22,1.02,0.46,1.52,0.7c0.53,0.26,1.04,0.51,1.57,0.78
		c0.51,0.28,1.03,0.56,1.56,0.85c1.05,0.59,2.1,1.23,3.16,1.91c0.53,0.34,1.07,0.7,1.59,1.08c0.26,0.18,0.53,0.36,0.79,0.56
		c0.54,0.37,1.06,0.76,1.59,1.19c0.26,0.2,0.52,0.41,0.79,0.62c0.26,0.21,0.52,0.43,0.78,0.64c0.27,0.22,0.52,0.44,0.78,0.67
		c0.26,0.21,0.51,0.44,0.78,0.68c0.21,0.2,0.43,0.39,0.65,0.58c0.08,0.07,0.16,0.14,0.24,0.23c0.21,0.21,0.43,0.41,0.65,0.62
		c0.25,0.23,0.51,0.48,0.76,0.74c0.19,0.18,0.37,0.37,0.55,0.55c1.85,1.87,3.63,3.93,5.32,6.19c0.23,0.31,0.46,0.63,0.69,0.94
		c0.23,0.32,0.46,0.64,0.68,0.97c0.5,0.68,0.96,1.38,1.41,2.1c0.19,0.31,0.39,0.62,0.57,0.92c0.22,0.35,0.43,0.7,0.64,1.05
		c0.32,0.54,0.63,1.08,0.93,1.63c0.6,1.1,1.19,2.23,1.75,3.4c0.28,0.58,0.56,1.18,0.83,1.78c0.01,0.01,0.01,0.02,0.01,0.03
		s0.01,0.03,0.01,0.04c0.18,0.36,0.33,0.73,0.49,1.11c0.16,0.39,0.32,0.77,0.48,1.17c0,0,0.01,0.02,0.01,0.03
		c0.3,0.7,0.57,1.42,0.85,2.17c0.28,0.76,0.56,1.54,0.82,2.33c0.02,0.04,0.03,0.09,0.04,0.15c0.21,0.61,0.42,1.25,0.6,1.89
		c0.07,0.21,0.14,0.41,0.19,0.62c0.46,1.54,0.87,3.13,1.24,4.76c0.05,0.22,0.1,0.45,0.14,0.66c0.18,0.72,0.32,1.46,0.46,2.21
		c0.01,0.04,0.02,0.08,0.04,0.12c0.14,0.77,0.28,1.53,0.41,2.32c0.02,0.15,0.05,0.3,0.08,0.45c0,0.03,0.01,0.07,0.01,0.09
		c0.11,0.73,0.23,1.46,0.32,2.21c0.08,0.55,0.15,1.11,0.21,1.67c0.07,0.64,0.15,1.29,0.21,1.94c0,0.01,0.01,0.04,0,0.05
		c0.06,0.56,0.11,1.12,0.15,1.69c0.06,0.62,0.1,1.24,0.14,1.87c0.03,0.5,0.06,1,0.09,1.51c0.03,0.6,0.05,1.22,0.07,1.84
		c0.02,0.51,0.03,1.03,0.04,1.54c0.01,0.73,0.02,1.47,0.02,2.23C353.64,343.72,353.64,344.22,353.62,344.71z M183.15,304.07
		c1.06-2.13,2.19-4.14,3.38-6.03C185.33,299.93,184.2,301.94,183.15,304.07z M227.72,271.61c-0.22-0.01-0.44-0.01-0.66-0.01
		c-0.67,0-1.38,0.03-2.12,0.11c0.74-0.07,1.45-0.1,2.12-0.1c0.22,0,0.43,0,0.65,0.01c0.69,0.02,1.36,0.07,2.04,0.15
		C229.08,271.68,228.4,271.63,227.72,271.61z M290.19,274.38c1.01-0.47,2.05-0.9,3.09-1.28C292.24,273.48,291.2,273.9,290.19,274.38
		z M301.45,271.6c-1.73,0-3.42,0.21-5.07,0.6c1.65-0.38,3.34-0.59,5.07-0.59h0.38C301.7,271.6,301.58,271.6,301.45,271.6z
		 M320.58,277.47c1.05,0.59,2.1,1.23,3.16,1.91C322.68,278.69,321.63,278.05,320.58,277.47z M343.93,301.34
		c0.6,1.1,1.19,2.23,1.75,3.4C345.13,303.57,344.54,302.44,343.93,301.34z M183.15,304.07c1.06-2.13,2.19-4.14,3.38-6.03
		C185.33,299.93,184.2,301.94,183.15,304.07z M227.72,271.61c-0.22-0.01-0.44-0.01-0.66-0.01c-0.67,0-1.38,0.03-2.12,0.11
		c0.74-0.07,1.45-0.1,2.12-0.1c0.22,0,0.43,0,0.65,0.01c0.69,0.02,1.36,0.07,2.04,0.15C229.08,271.68,228.4,271.63,227.72,271.61z
		 M290.19,274.38c1.01-0.47,2.05-0.9,3.09-1.28C292.24,273.48,291.2,273.9,290.19,274.38z M301.45,271.6c-1.73,0-3.42,0.21-5.07,0.6
		c1.65-0.38,3.34-0.59,5.07-0.59h0.38C301.7,271.6,301.58,271.6,301.45,271.6z M320.58,277.47c1.05,0.59,2.1,1.23,3.16,1.91
		C322.68,278.69,321.63,278.05,320.58,277.47z M343.93,301.34c0.6,1.1,1.19,2.23,1.75,3.4
		C345.13,303.57,344.54,302.44,343.93,301.34z M183.15,304.07c1.06-2.13,2.19-4.14,3.38-6.03
		C185.33,299.93,184.2,301.94,183.15,304.07z M227.72,271.61c-0.22-0.01-0.44-0.01-0.66-0.01c-0.67,0-1.38,0.03-2.12,0.11
		c0.74-0.07,1.45-0.1,2.12-0.1c0.22,0,0.43,0,0.65,0.01c0.69,0.02,1.36,0.07,2.04,0.15C229.08,271.68,228.4,271.63,227.72,271.61z
		 M290.19,274.38c1.01-0.47,2.05-0.9,3.09-1.28C292.24,273.48,291.2,273.9,290.19,274.38z M301.45,271.6c-1.73,0-3.42,0.21-5.07,0.6
		c1.65-0.38,3.34-0.59,5.07-0.59h0.38C301.7,271.6,301.58,271.6,301.45,271.6z M320.58,277.47c1.05,0.59,2.1,1.23,3.16,1.91
		C322.68,278.69,321.63,278.05,320.58,277.47z M343.93,301.34c0.6,1.1,1.19,2.23,1.75,3.4
		C345.13,303.57,344.54,302.44,343.93,301.34z M183.15,304.07c1.06-2.13,2.19-4.14,3.38-6.03
		C185.33,299.93,184.2,301.94,183.15,304.07z M227.72,271.61c-0.22-0.01-0.44-0.01-0.66-0.01c-0.67,0-1.38,0.03-2.12,0.11
		c0.74-0.07,1.45-0.1,2.12-0.1c0.22,0,0.43,0,0.65,0.01c0.69,0.02,1.36,0.07,2.04,0.15C229.08,271.68,228.4,271.63,227.72,271.61z
		 M290.19,274.38c1.01-0.47,2.05-0.9,3.09-1.28C292.24,273.48,291.2,273.9,290.19,274.38z M301.45,271.6c-1.73,0-3.42,0.21-5.07,0.6
		c1.65-0.38,3.34-0.59,5.07-0.59h0.38C301.7,271.6,301.58,271.6,301.45,271.6z M320.58,277.47c1.05,0.59,2.1,1.23,3.16,1.91
		C322.68,278.69,321.63,278.05,320.58,277.47z M343.93,301.34c0.6,1.1,1.19,2.23,1.75,3.4
		C345.13,303.57,344.54,302.44,343.93,301.34z M183.15,304.07c1.06-2.13,2.19-4.14,3.38-6.03
		C185.33,299.93,184.2,301.94,183.15,304.07z M227.72,271.61c-0.22-0.01-0.44-0.01-0.66-0.01c-0.67,0-1.38,0.03-2.12,0.11
		c0.74-0.07,1.45-0.1,2.12-0.1c0.22,0,0.43,0,0.65,0.01c0.69,0.02,1.36,0.07,2.04,0.15C229.08,271.68,228.4,271.63,227.72,271.61z
		 M290.19,274.38c1.01-0.47,2.05-0.9,3.09-1.28C292.24,273.48,291.2,273.9,290.19,274.38z M301.45,271.6c-1.73,0-3.42,0.21-5.07,0.6
		c1.65-0.38,3.34-0.59,5.07-0.59h0.38C301.7,271.6,301.58,271.6,301.45,271.6z M320.58,277.47c1.05,0.59,2.1,1.23,3.16,1.91
		C322.68,278.69,321.63,278.05,320.58,277.47z M343.93,301.34c0.6,1.1,1.19,2.23,1.75,3.4
		C345.13,303.57,344.54,302.44,343.93,301.34z M183.15,304.07c1.06-2.13,2.19-4.14,3.38-6.03
		C185.33,299.93,184.2,301.94,183.15,304.07z M227.72,271.61c-0.22-0.01-0.44-0.01-0.66-0.01c-0.67,0-1.38,0.03-2.12,0.11
		c0.74-0.07,1.45-0.1,2.12-0.1c0.22,0,0.43,0,0.65,0.01c0.69,0.02,1.36,0.07,2.04,0.15C229.08,271.68,228.4,271.63,227.72,271.61z
		 M290.19,274.38c1.01-0.47,2.05-0.9,3.09-1.28C292.24,273.48,291.2,273.9,290.19,274.38z M301.45,271.6c-1.73,0-3.42,0.21-5.07,0.6
		c1.65-0.38,3.34-0.59,5.07-0.59h0.38C301.7,271.6,301.58,271.6,301.45,271.6z M320.58,277.47c1.05,0.59,2.1,1.23,3.16,1.91
		C322.68,278.69,321.63,278.05,320.58,277.47z M343.93,301.34c0.6,1.1,1.19,2.23,1.75,3.4
		C345.13,303.57,344.54,302.44,343.93,301.34z"/>
	<g>
		<path class="st28" d="M342.66,532.36v0.03c-0.27,0.88-0.55,1.76-0.84,2.63c-0.29,0.89-0.59,1.77-0.9,2.65
			c-0.62,1.77-1.28,3.52-1.97,5.26c0,0,0,0.01-0.02,0.02c-0.17,0.43-0.35,0.87-0.54,1.3c-0.08,0.18-0.16,0.35-0.24,0.54
			c-0.27,0.65-0.55,1.29-0.83,1.93c-0.28,0.64-0.57,1.27-0.86,1.9c-0.59,1.27-1.19,2.54-1.82,3.8c-0.1,0.19-0.19,0.38-0.3,0.59
			l-0.01,0.01c-0.8,1.58-1.63,3.14-2.51,4.68c-0.87,1.55-1.78,3.08-2.73,4.58c-0.47,0.76-0.96,1.52-1.46,2.27
			c-0.99,1.49-2.01,2.96-3.08,4.43c-0.53,0.73-1.08,1.46-1.63,2.18c-0.24,0.31-0.49,0.63-0.73,0.93c-0.02,0.03-0.05,0.06-0.07,0.1
			c-0.03,0.03-0.05,0.06-0.08,0.1c-0.61,0.78-1.23,1.55-1.86,2.33c-0.79,0.96-1.6,1.91-2.42,2.85c-0.82,0.95-1.67,1.89-2.54,2.81
			c-0.09,0.11-0.17,0.2-0.27,0.29c-0.25,0.27-0.51,0.55-0.78,0.82c-3.59,3.71-7.12,6.93-10.53,9.73c-2.33,1.91-4.6,3.62-6.8,5.15
			c-1.98,1.38-3.92,2.62-5.78,3.73h-53.61c-1.89-1.12-3.84-2.38-5.85-3.77c-2.21-1.54-4.47-3.26-6.8-5.16
			c-3.38-2.79-6.88-5.99-10.46-9.68c-0.28-0.3-0.57-0.59-0.84-0.89c-0.38-0.39-0.75-0.78-1.11-1.18c-0.64-0.7-1.27-1.39-1.89-2.1
			c-0.61-0.7-1.22-1.41-1.82-2.13c-1.19-1.43-2.34-2.88-3.45-4.35c-1.67-2.22-3.23-4.47-4.73-6.75c-0.21-0.3-0.41-0.6-0.62-0.91
			c0-0.01,0-0.01,0-0.01c-0.73-1.13-1.38-2.28-2.06-3.44c-0.02-0.02-0.03-0.04-0.04-0.05c-0.33-0.56-0.64-1.11-0.97-1.66
			c-0.91-1.62-1.8-3.27-2.64-4.92c0-0.01,0-0.01-0.01-0.01c-0.17-0.35-0.34-0.68-0.5-1.01v-0.01c-0.58-1.18-1.14-2.36-1.69-3.55
			c0,0-0.01,0-0.01-0.01c-0.55-1.19-1.08-2.39-1.59-3.59c-0.26-0.62-0.55-1.24-0.79-1.87c-0.01,0-0.02-0.01-0.02-0.02
			c-0.1-0.26-0.22-0.5-0.36-0.75c-0.72-1.45-1.02-2.14-1.02-2.85c0-0.11-0.06-0.22-0.1-0.31c-0.81-2.21-1.55-4.43-2.22-6.67
			c1.04,2.02,34.45,66.82,77.29,66.82C312.9,599.17,342.66,532.36,342.66,532.36z"/>
		<path class="st28" d="M231.6,596.23c2.01,1.39,3.96,2.65,5.85,3.77h-6.32c-9.45-8.72-27.65-24.54-32.38-31.38
			c-5.01-7.21-13.33-33.31-13.33-33.31l0.42-3.01c0,0,0,0,0.01,0.01c0,0.01,0.01,0.02,0.01,0.04c0.67,2.24,1.41,4.46,2.22,6.67
			c0.04,0.09,0.1,0.2,0.1,0.31c0,0.71,0.3,1.4,1.02,2.85c0.14,0.25,0.26,0.49,0.36,0.75c0,0.01,0.01,0.02,0.02,0.02
			c0.24,0.63,0.53,1.25,0.79,1.87c0.51,1.2,1.04,2.4,1.59,3.59c0,0.01,0.01,0.01,0.01,0.01c0.55,1.19,1.11,2.37,1.69,3.55v0.01
			c0.16,0.33,0.33,0.66,0.5,1.01c0.01,0,0.01,0,0.01,0.01c0.84,1.65,1.73,3.3,2.64,4.92c0.33,0.55,0.64,1.1,0.97,1.66
			c0.01,0.01,0.02,0.03,0.04,0.05c0.68,1.16,1.33,2.31,2.06,3.44c0,0,0,0,0,0.01c0.21,0.31,0.41,0.61,0.62,0.91
			c1.5,2.28,3.06,4.53,4.73,6.75c1.11,1.47,2.26,2.92,3.45,4.35c0.6,0.72,1.21,1.43,1.82,2.13c0.62,0.71,1.25,1.4,1.89,2.1
			c0.36,0.4,0.73,0.79,1.11,1.18c0.27,0.3,0.56,0.59,0.84,0.89c3.58,3.69,7.08,6.89,10.46,9.68
			C227.13,592.97,229.39,594.69,231.6,596.23z"/>
	</g>
	<path class="st37" d="M235.39,414.84c11.25,2.49,22.46,2.81,27.37,2.81c0.6,0,1.1,0,1.49-0.01c0.4,0.01,0.91,0.01,1.5,0.01
		c4.91,0,16.13-0.31,27.37-2.81c14.99-3.33,60.52-17.21,60.52-71.62c0-54.41-37.2-71.62-52.19-71.62
		c-14.51,0-25.91,15.05-37.2,16.01c-11.29-0.96-22.68-16.01-37.19-16.01c-15,0-52.2,17.21-52.2,71.62
		C174.87,397.62,220.41,411.51,235.39,414.84z"/>
	<g>
		<defs>
			<path id="SVGID_5_" d="M235.39,414.84c11.25,2.49,22.46,2.81,27.37,2.81c0.6,0,1.1,0,1.49-0.01c0.4,0.01,0.91,0.01,1.5,0.01
				c4.91,0,16.13-0.31,27.37-2.81c14.99-3.33,60.52-17.21,60.52-71.62c0-54.41-37.2-71.62-52.19-71.62
				c-14.51,0-25.91,15.05-37.2,16.01c-11.29-0.96-22.68-16.01-37.19-16.01c-15,0-52.2,17.21-52.2,71.62
				C174.87,397.62,220.41,411.51,235.39,414.84z"/>
		</defs>
		<clipPath id="SVGID_6_">
			<use xlink:href="#SVGID_5_"  style="overflow:visible;"/>
		</clipPath>
	</g>
	<path class="st28" d="M214.02,483.12c-8.35,0.87-15.01,3.02-19.57,4.96c2.96-4.6,5.9-8.21,8.3-10.82
		C206.52,479.56,210.33,481.49,214.02,483.12z"/>
	<path class="st28" d="M335.01,424.09c-4.49-1.94-11.33-4.2-20.23-5.09c-0.5-0.04-0.98-0.1-1.47-0.13
		c4.18-1.75,8.51-3.89,12.81-6.53C328.68,415.13,331.85,419.05,335.01,424.09z"/>
	<path class="st37" d="M220.71,597.05c-0.89-0.73-1.78-1.47-2.69-2.26c-1.58-1.36-3.16-2.8-4.77-4.33c-0.63,0.72-1.24,1.4-1.83,2.07
		c-2.73,3.03-5.12,5.48-7.19,7.47h15.73c0.04,0.04,0.08,0.07,0.12,0.1c0.02,0.01,0.04,0.03,0.08,0.04c0.04-0.05,0.07-0.1,0.1-0.14
		c0.21-0.29,0.4-0.57,0.59-0.85c0.02-0.02,0.04-0.04,0.06-0.08c0.3-0.42,0.58-0.82,0.86-1.18v-0.01
		C221.41,597.61,221.07,597.32,220.71,597.05z M349.2,491.76c-0.01-0.01-0.01-0.02-0.01-0.02v-0.51c0.01-0.5,0.01-1,0-1.49
		c0-0.41-0.01-0.81-0.01-1.22v-0.03c0-0.01,0-0.01,0-0.02c0-0.48,0.1-0.96,0.1-1.44c0.02-1.24,0.02-2.5,0-3.75
		c0-1.77-0.03-3.54-0.06-5.31c-0.03-1.39-0.04-2.78-0.04-4.18c0-0.01,0-0.02,0-0.02c0-2.44-0.23-4.89-0.42-7.31
		c-0.08-1.05-0.19-2.08-0.3-3.09c-0.1-0.86-0.21-1.69-0.32-2.53c-0.13-0.95-0.27-1.89-0.43-2.83c-0.15-0.9-0.31-1.79-0.48-2.66
		c-0.15-0.78-0.31-1.54-0.47-2.3c-0.4-1.81-0.85-3.57-1.33-5.27c-0.13-0.47-0.26-0.94-0.41-1.4c-0.02-0.09-0.04-0.18-0.08-0.27
		c-0.1-0.37-0.22-0.73-0.33-1.1c-0.21-0.65-0.41-1.29-0.63-1.92c-0.5-1.5-1.05-2.97-1.61-4.38c-0.31-0.81-0.64-1.6-0.97-2.38
		c-0.22-0.5-0.43-1-0.66-1.49c-0.92-2.07-1.89-4.01-2.88-5.84c-0.64-1.18-1.28-2.31-1.92-3.38c-0.12-0.19-0.24-0.4-0.35-0.59
		c-0.21-0.32-0.4-0.63-0.57-0.94c-0.01,0-0.01,0-0.01,0v-0.01c-0.18-0.26-0.35-0.53-0.51-0.79c-0.17-0.26-0.34-0.51-0.5-0.77
		c-0.11-0.16-0.22-0.33-0.32-0.49c-0.16-0.22-0.3-0.44-0.45-0.66c-0.06-0.1-0.13-0.19-0.19-0.28c-0.32-0.47-0.64-0.93-0.96-1.37
		c-0.01-0.02-0.01-0.02-0.01-0.03c-0.07-0.08-0.13-0.17-0.19-0.25c-0.03-0.03-0.05-0.06-0.07-0.09c-0.06-0.08-0.11-0.15-0.17-0.23
		c-0.02-0.03-0.04-0.06-0.06-0.09c-0.15-0.21-0.3-0.41-0.45-0.61c-0.13-0.18-0.27-0.36-0.39-0.53c-0.14-0.18-0.26-0.35-0.39-0.53
		c-0.03-0.02-0.06-0.05-0.08-0.08c-0.03-0.03-0.05-0.06-0.06-0.09c-0.13-0.17-0.27-0.35-0.4-0.51c-0.13-0.17-0.27-0.33-0.39-0.49
		c-0.05-0.05-0.09-0.1-0.13-0.15c-0.02-0.04-0.04-0.06-0.06-0.09c-0.14-0.18-0.28-0.35-0.42-0.51c-0.13-0.17-0.27-0.33-0.41-0.49
		c-0.08-0.1-0.17-0.2-0.25-0.3c-0.18-0.21-0.35-0.41-0.53-0.61c-0.17-0.21-0.34-0.4-0.51-0.59c-0.16-0.19-0.33-0.38-0.5-0.57
		c-0.05-0.07-0.11-0.14-0.18-0.2v-0.01c-0.04-0.06-0.09-0.11-0.15-0.16v-0.01c-0.03-0.02-0.06-0.05-0.08-0.08
		c-0.02-0.03-0.04-0.05-0.06-0.07h-0.01c-0.2-0.23-0.41-0.46-0.62-0.68c-0.1-0.11-0.21-0.24-0.33-0.35
		c-0.28-0.3-0.56-0.58-0.82-0.84c-0.18-0.2-0.36-0.38-0.54-0.54v-0.01c-0.4,0.24-0.81,0.48-1.22,0.71c-0.4,0.23-0.8,0.46-1.21,0.68
		c0,0.01-0.01,0.01-0.01,0.01h-0.01c-0.55,0.29-1.08,0.58-1.63,0.88c-1.93,1.01-3.85,1.93-5.75,2.77c-0.76,0.34-1.52,0.66-2.27,0.97
		c-2.62,1.08-5.14,1.99-7.54,2.76c-3.59,1.17-6.85,2.01-9.62,2.63c-11.61,2.59-23.04,2.97-28.8,2.97c-0.59,0-1.09,0-1.5-0.02
		c-0.41,0.02-0.91,0.02-1.49,0.02c-5.77,0-17.19-0.38-28.82-2.97c-2.76-0.62-6.03-1.46-9.61-2.63c-2.4-0.77-4.94-1.68-7.54-2.76
		c-2.72-1.12-5.53-2.41-8.35-3.91c-0.63-0.33-1.26-0.67-1.89-1.02c-0.62-0.36-1.25-0.72-1.88-1.09v0.01
		c-0.17,0.16-0.35,0.34-0.54,0.54c-0.36,0.36-0.75,0.77-1.15,1.19c-0.11,0.11-0.21,0.22-0.31,0.33c-0.1,0.11-0.21,0.22-0.32,0.34
		c-0.03,0.03-0.06,0.06-0.08,0.1c-0.03,0.03-0.06,0.06-0.09,0.1c-0.02,0.02-0.04,0.04-0.06,0.07c-0.03,0.04-0.07,0.08-0.1,0.12
		c-0.03,0.02-0.05,0.04-0.06,0.06c-0.02,0.02-0.03,0.04-0.05,0.06c-0.03,0.03-0.06,0.06-0.09,0.09c-0.06,0.06-0.12,0.12-0.17,0.19
		c-0.01,0.01-0.02,0.03-0.03,0.04l-0.1,0.1v0.02c-0.29,0.31-0.59,0.66-0.89,1.01c-0.25,0.3-0.51,0.6-0.77,0.92
		c-0.77,0.94-1.58,1.96-2.41,3.07c-0.21,0.28-0.42,0.56-0.63,0.85c-0.45,0.62-0.91,1.26-1.37,1.94c-0.23,0.33-0.46,0.67-0.69,1.02
		c-0.24,0.35-0.47,0.7-0.7,1.06c-0.98,1.55-1.98,3.19-2.95,4.94c-0.39,0.71-0.77,1.43-1.16,2.17c-0.2,0.36-0.38,0.74-0.57,1.12
		c-0.2,0.37-0.39,0.76-0.57,1.15c-0.15,0.31-0.3,0.62-0.44,0.93c-0.42,0.88-0.82,1.77-1.21,2.68c-0.15,0.34-0.3,0.7-0.46,1.06
		c-0.24,0.57-0.46,1.16-0.69,1.74c-0.24,0.6-0.48,1.23-0.71,1.86c-0.3,0.8-0.58,1.61-0.86,2.44c-0.16,0.45-0.31,0.91-0.45,1.37
		c-0.24,0.77-0.48,1.55-0.71,2.35c-0.14,0.48-0.28,0.97-0.41,1.47c-0.29,1.02-0.55,2.05-0.8,3.11c-0.24,1-0.47,2.02-0.67,3.06
		c-0.1,0.5-0.19,0.99-0.29,1.5c-0.12,0.59-0.22,1.17-0.31,1.75c-0.09,0.55-0.18,1.11-0.26,1.67c-0.28,1.68-0.49,3.4-0.65,5.16
		c-0.07,0.58-0.13,1.18-0.18,1.77c-0.04,0.65-0.1,1.29-0.13,1.94c0,0.03-0.01,0.05,0,0.07c-0.13,1.82-0.22,3.64-0.28,5.47
		c-0.02,0.76-0.04,1.51-0.07,2.28l-0.03,1.95c-0.01,0.75-0.01,1.52-0.01,2.28c0,0.39-0.01,0.77-0.01,1.15v1.16
		c0,0.74,0,1.47,0.01,2.22c0,0.27,0.01,0.55,0.02,0.82c0.02,0.29,0.04,0.58,0.06,0.88c0,0.03,0.01,0.07,0,0.11
		c0.02,0.29,0.05,0.57,0.06,0.85c0.02,0.29,0.03,0.58,0.03,0.86v0.02c0,0.89,0.01,1.78,0.02,2.67c0.06,2.67,0.2,5.35,0.41,8.03
		c0,0.01,0,0.01-0.01,0.02c0,0.01-0.01,0.01-0.02,0.02c-0.01,0.01-0.02,0.01-0.02,0.03v0.01c-0.01,0-0.01,0-0.01,0
		c0.02,0.33,0.04,0.66,0.08,0.99c0.06,0.99,0.13,2,0.24,2.98c0,0.01,0.08,0.01,0.08,0.01c0.11,1.17,0.49,2.33,0.49,3.49
		c0,0,0,0.01,0,0.02c0,1,0.34,2.02,0.49,3.04c0.1,0.73,0.29,1.45,0.45,2.18c0.1,0.36,0.16,0.72,0.22,1.08
		c0.06,0.37,0.09,0.73,0.09,1.09v0.02c0,0.56,0.06,1.12,0.15,1.69c0.04,0.18,0.07,0.38,0.1,0.56c0.08,0.42,0.16,0.85,0.23,1.28
		c0.23,1.27,0.44,2.55,0.72,3.82c0.28,1.19,0.5,2.41,0.8,3.6c0.01,0.02-0.01,0.02-0.01,0.04c0.03,0.12,0.06,0.24,0.09,0.36
		c0.28,1.08,0.56,2.17,0.86,3.25c0.33,1.16,0.67,2.33,1.03,3.5c0,0,0,0.02,0,0.03c0.68,2.25,1.42,4.47,2.23,6.69
		c0.04,0.09,0.1,0.2,0.1,0.31c0,0.71,0.3,1.4,1.02,2.85c0.14,0.25,0.26,0.49,0.36,0.75c0,0.01,0.01,0.02,0.02,0.02
		c0.24,0.63,0.53,1.25,0.79,1.87c0.51,1.2,1.04,2.4,1.59,3.59c0,0.01,0.01,0.01,0.01,0.01c0.55,1.19,1.11,2.37,1.69,3.55v0.01
		c0.16,0.33,0.33,0.66,0.5,1.01c0.01,0,0.01,0,0.01,0.01c0.84,1.65,1.73,3.3,2.64,4.92c0.33,0.55,0.64,1.1,0.97,1.66
		c0.01,0.01,0.02,0.03,0.04,0.05c0.68,1.16,1.33,2.31,2.06,3.44c0,0,0,0,0,0.01c0.21,0.31,0.41,0.61,0.62,0.91
		c1.5,2.28,3.06,4.53,4.73,6.75c1.11,1.47,2.26,2.92,3.45,4.35c0.6,0.72,1.21,1.43,1.82,2.13c0.62,0.71,1.25,1.4,1.89,2.1
		c0.36,0.4,0.73,0.79,1.11,1.18c0.27,0.3,0.56,0.59,0.84,0.89c3.58,3.69,7.08,6.89,10.46,9.68c2.33,1.9,4.59,3.62,6.8,5.16
		c2.01,1.39,3.96,2.65,5.85,3.77h53.61c1.86-1.11,3.8-2.35,5.78-3.73c2.2-1.53,4.47-3.24,6.8-5.15c3.41-2.8,6.94-6.02,10.53-9.73
		c0.27-0.27,0.53-0.55,0.78-0.82c0.1-0.09,0.18-0.18,0.27-0.29c0.87-0.92,1.72-1.86,2.54-2.81c0.82-0.94,1.63-1.89,2.42-2.85
		c0.64-0.78,1.26-1.55,1.87-2.33c0.03-0.04,0.05-0.07,0.07-0.1c0.02-0.04,0.05-0.07,0.07-0.1c0.24-0.3,0.49-0.62,0.73-0.93
		c0.55-0.72,1.1-1.45,1.63-2.18c1.07-1.47,2.09-2.94,3.08-4.43c0.5-0.75,0.99-1.51,1.46-2.27c0.95-1.5,1.86-3.03,2.73-4.58
		c0.88-1.54,1.71-3.1,2.51-4.68l0.01-0.01c0.11-0.21,0.2-0.4,0.3-0.59c0.63-1.26,1.23-2.53,1.82-3.8c0.29-0.63,0.58-1.26,0.86-1.9
		c0.28-0.64,0.56-1.28,0.84-1.92c0.08-0.18,0.16-0.37,0.23-0.55c0.19-0.43,0.37-0.87,0.54-1.3c0.02-0.01,0.02-0.02,0.02-0.02
		c0.69-1.74,1.35-3.49,1.97-5.26c0.31-0.88,0.61-1.76,0.9-2.65c0.28-0.88,0.56-1.77,0.84-2.66h0.01c0.01-0.02,0.01-0.02,0.01-0.02
		c0-0.01,0-0.02,0.01-0.04c0.23-0.81,0.46-1.61,0.69-2.39c0.45-1.57,0.89-3.15,1.29-4.73c0-0.01,0-0.03,0-0.03
		c0.03-0.13,0.08-0.27,0.13-0.41c0.16-0.41,0.36-0.83,0.45-1.24c0.24-1.05,0.26-2.09,0.46-3.13c0.04-0.24,0.09-0.47,0.16-0.7
		c0.07-0.24,1.17-4.91,1.33-5.94c0.15-1.02,0.3-2.05,0.45-3.09l-0.04-0.02c0.06-0.43,0.08-0.85,0.14-1.27
		c0.69-4.71,1.13-9.44,1.41-14.16c0.03-0.69,0.06-1.36,0.1-2.04c0-0.11,0.01-0.23,0.02-0.33c0-0.11,0-0.22,0.01-0.33
		c0.01-0.22,0.03-0.43,0.04-0.66C349.33,491.79,349.22,491.77,349.2,491.76z M353.62,340.99c-0.01-0.51-0.02-1.03-0.04-1.54
		c-0.02-0.62-0.04-1.24-0.07-1.84c-0.03-0.51-0.06-1.01-0.09-1.51c-0.04-0.63-0.08-1.25-0.14-1.87c-0.04-0.57-0.09-1.13-0.15-1.69
		c0.01-0.01,0-0.04,0-0.05c-0.06-0.65-0.14-1.3-0.21-1.94c-0.06-0.56-0.13-1.12-0.21-1.67c-0.09-0.75-0.21-1.48-0.32-2.21
		c0-0.02-0.01-0.06-0.01-0.09c-0.03-0.15-0.06-0.3-0.08-0.45c-0.13-0.79-0.27-1.55-0.41-2.32c-0.02-0.04-0.03-0.08-0.04-0.12
		c-0.14-0.75-0.28-1.49-0.46-2.21c-0.04-0.21-0.09-0.44-0.14-0.66c-0.37-1.63-0.78-3.22-1.24-4.76c-0.05-0.21-0.12-0.41-0.19-0.62
		c-0.18-0.64-0.39-1.28-0.6-1.89c-0.01-0.06-0.02-0.11-0.04-0.15c-0.26-0.79-0.54-1.57-0.82-2.33c-0.27-0.73-0.54-1.47-0.83-2.17
		c-0.01-0.01-0.01-0.01-0.01-0.03c-0.16-0.4-0.33-0.78-0.5-1.17c-0.16-0.38-0.31-0.75-0.49-1.11c0-0.01-0.01-0.03-0.01-0.04
		s0-0.02-0.01-0.03c-0.27-0.6-0.55-1.2-0.83-1.78c-0.55-1.17-1.14-2.3-1.75-3.4c-0.3-0.55-0.61-1.09-0.93-1.63
		c-0.21-0.35-0.42-0.7-0.64-1.05c-0.18-0.3-0.38-0.61-0.57-0.92c-0.45-0.72-0.91-1.42-1.41-2.1c-0.22-0.33-0.45-0.65-0.68-0.97
		c-0.23-0.31-0.46-0.63-0.69-0.94c-1.69-2.26-3.47-4.32-5.32-6.19c-0.18-0.18-0.36-0.37-0.55-0.55c-0.25-0.26-0.51-0.51-0.76-0.74
		c-0.22-0.21-0.44-0.41-0.65-0.62c-0.08-0.09-0.16-0.16-0.24-0.23c-0.22-0.19-0.44-0.38-0.65-0.58c-0.27-0.24-0.52-0.47-0.78-0.68
		c-0.26-0.23-0.51-0.45-0.78-0.67c-0.26-0.21-0.52-0.43-0.78-0.64c-0.27-0.21-0.53-0.42-0.79-0.62c-0.53-0.43-1.05-0.82-1.59-1.19
		c-0.26-0.2-0.53-0.38-0.79-0.56c-0.52-0.38-1.06-0.74-1.59-1.08c-1.06-0.69-2.11-1.33-3.16-1.91c-0.53-0.29-1.05-0.57-1.56-0.85
		c-0.53-0.27-1.04-0.52-1.57-0.78c-0.5-0.24-1.02-0.48-1.52-0.7c-0.01,0-0.01,0-0.01,0c-0.51-0.22-1.02-0.44-1.51-0.63
		c-0.37-0.15-0.75-0.3-1.12-0.44c-0.74-0.28-1.47-0.54-2.18-0.76c-0.36-0.11-0.71-0.22-1.06-0.32c-0.47-0.14-0.93-0.26-1.38-0.38
		c-0.34-0.09-0.68-0.17-1.01-0.24c-0.58-0.13-1.14-0.25-1.7-0.34c-0.41-0.07-0.81-0.14-1.21-0.19c-0.59-0.08-1.16-0.14-1.71-0.18
		c-0.28-0.02-0.55-0.04-0.81-0.04c-0.13-0.01-0.27-0.02-0.4-0.01c-0.13-0.01-0.25-0.01-0.38-0.01c-1.73,0-3.42,0.21-5.07,0.6
		c-0.24,0.05-0.48,0.11-0.71,0.17c-0.27,0.07-0.53,0.14-0.8,0.22c-0.54,0.16-1.06,0.33-1.59,0.51c-1.04,0.38-2.08,0.8-3.09,1.28
		c-0.51,0.24-1.02,0.49-1.52,0.74s-1,0.52-1.5,0.79c-0.99,0.55-1.97,1.12-2.93,1.72c-2.42,1.47-4.78,3.03-7.08,4.48
		c-2.58,1.64-5.1,3.11-7.6,4.13c-0.36,0.14-0.71,0.28-1.06,0.4c-0.35,0.13-0.7,0.25-1.06,0.35s-0.71,0.2-1.06,0.28
		c-0.67,0.16-1.33,0.26-1.99,0.33c-0.05,0-0.09,0.01-0.14,0.01c-0.23-0.02-0.47-0.05-0.69-0.08c-0.24-0.02-0.47-0.07-0.71-0.12
		c-0.23-0.04-0.47-0.09-0.7-0.14c-0.37-0.08-0.72-0.18-1.07-0.28c-1.07-0.32-2.13-0.73-3.2-1.22c-2.5-1.13-5.04-2.68-7.64-4.36
		c-0.78-0.51-1.56-1.01-2.34-1.51c-0.79-0.52-1.59-1.02-2.39-1.52c-1.6-1.01-3.24-1.98-4.91-2.87c-2.65-1.4-5.39-2.58-8.25-3.26
		c-0.85-0.21-1.72-0.37-2.6-0.48c-0.89-0.12-1.78-0.17-2.69-0.17c-0.67,0-1.38,0.03-2.12,0.11c-0.25,0.02-0.51,0.05-0.76,0.08
		c-0.35,0.05-0.7,0.09-1.06,0.15c-0.48,0.07-0.97,0.16-1.47,0.26c-0.66,0.14-1.35,0.3-2.05,0.48c-0.95,0.24-1.92,0.53-2.92,0.87
		h-0.01c-0.66,0.22-1.33,0.47-2.01,0.73c-1.03,0.4-2.08,0.84-3.13,1.34c-0.35,0.16-0.71,0.33-1.07,0.51
		c-0.71,0.34-1.43,0.72-2.15,1.12c-0.35,0.19-0.72,0.4-1.08,0.62c-0.72,0.41-1.45,0.85-2.17,1.32c-6.56,4.2-13.17,10.34-18.53,18.85
		c-1.2,1.89-2.33,3.9-3.38,6.03c-0.52,1.07-1.03,2.17-1.52,3.28c-0.48,1.14-0.95,2.29-1.39,3.48c-1.34,3.57-2.46,7.42-3.32,11.59
		c-0.3,1.38-0.55,2.8-0.79,4.25c-0.47,2.91-0.81,5.95-1.02,9.13c-0.16,2.4-0.24,4.87-0.24,7.42c0,2.26,0.08,4.46,0.24,6.59
		c1.79,25.15,13.87,40.77,27.11,50.46c12.57,9.17,26.19,13.02,33.17,14.57c11.25,2.49,22.47,2.81,27.38,2.81
		c0.59,0,1.09,0,1.48-0.01c0.4,0.01,0.92,0.01,1.51,0.01c4.9,0,16.13-0.32,27.36-2.81c6.99-1.55,20.61-5.4,33.17-14.57
		c4.96-3.63,9.75-8.08,13.9-13.56c1.7-2.24,3.3-4.65,4.73-7.24c0.35-0.61,0.68-1.21,1-1.84c1.42-2.74,2.69-5.69,3.76-8.85v-0.01
		c1.42-4.15,2.49-8.65,3.16-13.55c0.11-0.67,0.19-1.35,0.27-2.04v-0.01c0.29-2.7,0.48-5.51,0.51-8.46c0.02-0.49,0.02-0.99,0.02-1.49
		C353.64,342.46,353.63,341.72,353.62,340.99z"/>
	<g>
		<path class="st28" d="M264.22,495.28"/>
	</g>
	<g>
		<path class="st33" d="M355.38,301.79c-5.17-11.36-12.32-19.94-19.93-26.18c-15.82-28.96-44.41-48.76-76.27-48.76
			c-36.59,0-63.26,28.82-77.14,60.12v0.01c-5.19,6.7-9.65,14.92-12.73,24.86c-0.51-0.13-1.04-0.19-1.58-0.19h-5.39
			c2.92-22.65,12.36-44.5,26.9-61.62c18.63-21.94,43.47-34.01,69.94-34.01c26.51,0,51.54,12.06,70.47,33.98
			C342.31,264.68,351.19,282.75,355.38,301.79z"/>
		<path class="st33" d="M358.1,326.58h-9.68c0-6.57-0.61-13-1.75-19.24c-0.04-0.26-0.1-0.53-0.16-0.78
			c-2.1-11.05-5.9-21.48-11.06-30.94c7.61,6.24,14.75,14.82,19.93,26.18C357.18,309.95,358.1,318.27,358.1,326.58z"/>
	</g>
	<g>
		<g>
			<path class="st34" d="M363.87,361.4c0,4.06-5.44,7.37-12.08,7.37h-11.4c-6.65,0-12.08-3.32-12.08-7.37v-45.16
				c0-4.05,5.44-7.37,12.08-7.37h11.4c6.65,0,12.08,3.32,12.08,7.37V361.4z"/>
		</g>
	</g>
	<g>
		<g>
			<path class="st11" d="M368.34,361.4c0,4.06-4.63,7.37-10.3,7.37h-9.72c-5.67,0-10.3-3.32-10.3-7.37v-45.16
				c0-4.05,4.64-7.37,10.3-7.37h9.72c5.67,0,10.3,3.32,10.3,7.37V361.4z"/>
		</g>
	</g>
	<polygon class="st38" points="776.58,416.71 776.58,429.46 768.17,452.93 762.03,470.06 739.69,532.4 739.69,518.39 762.03,456.81 
		765.43,447.45 768.17,439.89 	"/>
	<line class="st19" x1="516.53" y1="498.05" x2="636.02" y2="498.05"/>
	<line class="st16" x1="570.5" y1="498.05" x2="716.43" y2="498.05"/>
	<path class="st38" d="M361.58,600H109.35c-10.57-3.37,2.21-67.61,3.96-75.4c8.77-38.76,21.96-78.97,49.91-112.01
		c8.03-9.51,17.78-23.97,30.7-29.04c87.98-5.38,127.87,108.32,151.69,166.57c1.26,3.07,2.47,5.91,3.64,8.5
		C353.29,567.52,359.25,590.08,361.58,600z"/>
	<path class="st39" d="M326.11,600h-226.1c-1.08-10.78,1.94-67.61,3.48-75.4c10.05-50.83,17.34-111.86,70.76-135.7
		c4.33-1.93,8.52-3.33,12.59-4.24c10.35-2.32,19.87-1.47,28.64,1.84c53.02,20.04,78.57,130.03,95.32,172.12
		C314.35,567.52,324.06,590.08,326.11,600z"/>
	<path class="st8" d="M203.43,672.96"/>
	<path class="st40" d="M293.39,600H116.37c-0.52-13.81-0.64-31.38,0.5-51.63c2.97-52.8,4.85-79.55,24.26-97.08
		c21.85-19.72,51.44-16.52,54.21-16.18c36.54,4.52,56.02,38.28,61.48,47.73c12.51,21.68,9.53,33.92,19.42,69.58
		C281.43,571.13,287.63,587.13,293.39,600z"/>
	<path class="st38" d="M418.02,524.1c-19.8-1.94-57.78,17.87-72.41,26.02c1.26,3.07,2.47,5.91,3.64,8.5
		c4.04,8.9,10,31.46,12.33,41.38h91.82v-46.49C453.4,553.51,442.89,526.53,418.02,524.1z M434.68,593.06h-72.26l-3.32-29.28
		l-0.72-6.38c0,0,35.89-21.36,52.57-19.73s23.73,19.73,23.73,19.73V593.06z"/>
	<path class="st41" d="M434.68,557.4v5.13c-8.03-12.87-16.73-15.76-20.11-16.59c-8.73-2.13-19.42,2.26-40.45,11.13
		c-5.79,2.44-10.85,4.74-15.02,6.71l-0.72-6.38c0,0,35.89-21.36,52.57-19.73S434.68,557.4,434.68,557.4z"/>
	<g>
		<g>
			<path class="st2" d="M468.06,195.42v34.39c0,6.33-3.74,11.78-9.14,14.28l-2.12,16.37l-19.08-14.92h-68.79
				c-8.69,0-15.75-7.04-15.75-15.73v-34.39c0-8.69,7.05-15.75,15.75-15.75h83.39C461.01,179.67,468.06,186.72,468.06,195.42z"/>
		</g>
		<circle class="st42" cx="379.23" cy="212.74" r="8.57"/>
		<circle class="st42" cx="410.62" cy="212.74" r="8.57"/>
		<circle class="st42" cx="443.25" cy="212.74" r="8.57"/>
	</g>
	<polygon class="st38" points="776.58,429.46 776.58,600 764.87,600 764.87,461.78 768.17,452 	"/>
	<g>
		<g>
			<path class="st25" d="M375.96,517.88c-3.74,0-7.8-0.29-12.42-0.88c-0.25-0.03-0.5-0.06-0.76-0.09c-2.69-0.31-7.7-0.88-9.39-5.89
				c-0.81-2.4-0.52-4.72-0.29-6.59c1.86-15.18,1.53-30.69-0.97-46.17c-1.98-12.21-7.74-24.57-18.14-38.89
				c-1.3-1.8-2.66-3.53-4.06-5.17c-0.38-0.45-0.71-0.81-1.02-1.16l-3.26-3.62l1.28-0.91c-0.15-1.59,0.62-2.9,1.35-3.6l2.08-2.02
				l2.56,1.36c7.67,4.07,26.89,16.28,30.24,19.2c1.85,1.62,3.71,3.26,5.59,4.92c15.55,13.75,31.64,27.98,50.73,34.13
				c3.57,1.15,7.55,1.74,11.83,1.74c5.49,0,11.46-0.94,17.74-2.8c1.43-0.42,2.68-0.63,3.84-0.63c3.61,0,5.31,1.99,6.01,3.18
				c2.31,3.93-0.02,9.3-1.62,12.16c-0.9,1.62-1.97,3.24-3.17,4.81c-4.23,5.58-9.78,10.37-16.04,13.85
				c-0.58,0.33-1.18,0.64-1.79,0.93c0.31,0.48,0.54,1.01,0.68,1.57c0.43,1.79-0.09,4.31-2.84,6c-1.01,0.62-2.01,0.9-2.88,1.12
				c-4.37,1.1-9.03,1.69-14.18,1.81c0,0.26-0.03,0.53-0.07,0.82c-0.75,4.55-6.12,5.44-15.14,5.44c-2.04,0-3.94-0.06-5.28-0.12
				c-0.34,0.76-0.9,1.45-1.63,1.98c-1.1,0.8-2.23,1.16-3.21,1.45C386.9,517.21,381.74,517.88,375.96,517.88z"/>
			<path class="st8" d="M331.06,407.76c7.88,4.18,26.56,16.13,29.49,18.68c17.26,15.08,35.45,32.67,57.71,39.85
				c4.2,1.35,8.61,1.93,13.05,1.93c6.41,0,12.88-1.19,18.87-2.97c1.08-0.32,1.98-0.46,2.71-0.46c4.55,0,3.14,5.46,0.92,9.42
				c-0.82,1.47-1.78,2.92-2.86,4.35c-3.96,5.21-9.09,9.6-14.81,12.78c-3.59,2-7.53,3.33-11.57,4.07c-0.19,0.04-0.33,0.06-0.48,0.2
				c-0.41,0.4,6.14,1.2,6.74,1.24c1.93,0.15,3.38,1.75,1.21,3.08c-0.54,0.33-1.16,0.5-1.77,0.66c-4.92,1.24-9.99,1.71-15.06,1.71
				c-2.18,0-4.36-0.09-6.53-0.24c-0.46-0.03-0.93-0.11-1.4-0.11c-0.21,0-0.42,0.02-0.62,0.06c0,0,0,0,0,0c0.12,0,1.42,1.18,1.7,1.35
				c0.89,0.53,4.93,1.64,4.69,3.07c-0.29,1.73-6.19,2.1-11.22,2.1c-3.27,0-6.17-0.16-6.89-0.2c-5.39-0.32-10.75-1.82-16.04-3.02
				c-0.14-0.03-0.26-0.04-0.37-0.04c-0.74,0-0.82,0.66-0.15,1.21c1.75,1.45,4.01,2.13,6.26,2.5c2.55,0.41,5.14,0.17,7.63,1
				c0.31,0.1,0.67,0.29,0.68,0.62c0,0.23-0.19,0.42-0.37,0.55c-0.58,0.42-1.29,0.65-1.98,0.85c-4.8,1.39-9.72,1.91-14.65,1.91
				c-3.97,0-7.96-0.34-11.91-0.85c-2.59-0.33-5.9-0.39-6.89-3.31c-0.53-1.56-0.31-3.27-0.11-4.91c1.92-15.68,1.52-31.62-1-47.22
				c-2.45-15.13-10.17-28.63-18.85-40.59c-1.37-1.9-2.8-3.71-4.25-5.41c-0.4-0.48-0.79-0.91-1.16-1.31
				c-0.07-0.08-0.14-0.16-0.21-0.24C332.53,409.4,330.25,408.54,331.06,407.76 M329.66,398.02l-4.15,4.05
				c-1.16,1.13-2,2.62-2.36,4.27l-3.36,2.4l5.86,6.61l0.1,0.11l0.11,0.13l0.04,0.05l0.04,0.05l0.05,0.05
				c0.31,0.34,0.6,0.65,0.85,0.96l0.04,0.05l0.04,0.05c1.33,1.56,2.63,3.21,3.85,4.91c10.03,13.82,15.57,25.64,17.44,37.21
				c2.44,15.11,2.77,30.24,0.96,44.98l-0.01,0.07c-0.25,2.03-0.63,5.09,0.47,8.35c2.5,7.4,9.91,8.25,12.7,8.57
				c0.24,0.03,0.48,0.05,0.7,0.08c4.79,0.61,9.01,0.91,12.93,0.91c6.16,0,11.67-0.73,16.85-2.22c0.87-0.25,2.69-0.78,4.44-2.05
				c0.48-0.35,0.92-0.74,1.32-1.15c1,0.03,2.11,0.05,3.26,0.05c3.43,0,6.3-0.16,8.52-0.48c5.89-0.85,8.61-3.36,9.8-5.89
				c4.28-0.25,8.25-0.85,12.04-1.8c0.77-0.19,2.37-0.6,3.99-1.59c3.35-2.05,5.15-5.49,4.84-9.01c6.31-3.69,11.91-8.63,16.24-14.33
				c1.31-1.73,2.48-3.5,3.47-5.28c2.01-3.6,4.89-10.47,1.58-16.11c-1.92-3.27-5.36-5.14-9.44-5.14c-1.55,0-3.18,0.26-4.97,0.79
				c-5.92,1.75-11.51,2.64-16.61,2.64c-3.86,0-7.43-0.52-10.61-1.54c-18.3-5.9-34.07-19.85-49.31-33.33
				c-1.88-1.66-3.75-3.31-5.6-4.93c-3.57-3.12-22.97-15.46-30.99-19.72L329.66,398.02L329.66,398.02z"/>
		</g>
	</g>
	<path class="st43" d="M207.47,298.39c-14.41,31.78-1.82,64.01,4.05,79.01c1.06,2.7,2.35,5.76,3.96,9.1
		c-8.77-3.31-18.29-4.16-28.64-1.84c-6.19-8.88-10.69-20.26-11.73-34.85c-0.16-2.13-0.24-4.33-0.24-6.59c0-2.55,0.08-5.02,0.24-7.42
		c0.21-3.18,0.55-6.22,1.02-9.13c0.24-1.45,0.49-2.87,0.79-4.25c0.86-4.17,1.98-8.02,3.32-11.59c0.44-1.19,0.91-2.34,1.39-3.48
		c0.49-1.11,1-2.21,1.52-3.28c1.06-2.13,2.19-4.14,3.38-6.03c5.36-8.51,11.97-14.65,18.53-18.85c0.72-0.47,1.45-0.91,2.17-1.32
		c0.36-0.22,0.73-0.43,1.08-0.62c0.72-0.4,1.44-0.78,2.15-1.12c0.36-0.18,0.72-0.35,1.07-0.51c1.05-0.5,2.1-0.94,3.13-1.34
		c0.68-0.26,1.35-0.51,2.01-0.73h0.01c1-0.34,1.97-0.63,2.92-0.87c0.7-0.18,1.39-0.34,2.05-0.48c0.5-0.1,0.99-0.19,1.47-0.26
		c0.36-0.06,0.71-0.1,1.06-0.15c0.25-0.03,0.51-0.06,0.76-0.08c0.74-0.07,1.45-0.1,2.12-0.1c0.22,0,0.43,0,0.65,0.01
		C221.23,277.24,213.11,285.96,207.47,298.39z"/>
	<g>
		<path class="st11" d="M212.88,122.98c0.55,0,1.08-0.25,1.56-0.73c1.23-1.18,2.08-3.75,2.08-6.71c0-4.1-1.64-7.43-3.64-7.43h-2.3
			v-1.78h72.94c1.78,0,3.23,1.45,3.23,3.23v11.97c0,1.78-1.45,3.22-3.23,3.22h-72.94v-1.77H212.88z"/>
		<path class="st3" d="M284.3,117.65v2.72c0,1.44-1.35,2.61-3.02,2.61h-68.31c0.77-1.8,1.28-3.58,1.51-5.33H284.3z"/>
		<path class="st5" d="M284.3,110.71v6.94h-69.81c0.1-0.65,0.14-1.28,0.15-1.92v-0.01c0.02-0.64,0-1.28-0.07-1.92
			c-0.07-0.65-0.17-1.29-0.31-1.93c-0.13-0.61-0.3-1.22-0.51-1.81c-0.21-0.65-0.48-1.29-0.78-1.93h68.31c1.4,0,2.57,0.82,2.92,1.93
			C284.27,110.26,284.3,110.48,284.3,110.71z"/>
		<path class="st4" d="M284.2,110.05h-70.44c-0.21-0.65-0.48-1.29-0.78-1.93h68.31C282.69,108.11,283.86,108.93,284.2,110.05z"/>
		<path class="st6" d="M284.3,111.91v1.89h-69.73c-0.07-0.65-0.17-1.29-0.31-1.93h69.46C283.93,111.86,284.11,111.87,284.3,111.91z"
			/>
		<path class="st7" d="M284.3,113.84v1.89h-69.66v-0.01c0.02-0.64,0-1.28-0.07-1.92h69.15C283.93,113.79,284.11,113.81,284.3,113.84
			z"/>
		<path class="st44" d="M284.3,115.72v1.93h-69.81c0.1-0.65,0.14-1.29,0.15-1.93H284.3z"/>
	</g>
	<g>
		<path class="st45" d="M225.32,105.2c0.46,0,0.9-0.16,1.3-0.47c1.02-0.76,1.73-2.41,1.73-4.32c0-2.64-1.36-4.78-3.02-4.78h-1.91
			v-1.15h60.66c1.48,0,2.68,0.93,2.68,2.08v7.71c0,1.15-1.2,2.07-2.68,2.07h-60.66v-1.14H225.32z"/>
		<path class="st3" d="M284.71,101.76v1.75c0,0.93-1.12,1.68-2.51,1.68H225.4c0.64-1.16,1.07-2.31,1.26-3.43H284.71z"/>
		<path class="st5" d="M284.71,97.29v4.47h-58.06c0.08-0.42,0.12-0.83,0.13-1.24v-0.01c0.02-0.41,0-0.83-0.06-1.24
			c-0.06-0.42-0.14-0.83-0.26-1.25c-0.11-0.39-0.25-0.78-0.42-1.17c-0.17-0.42-0.4-0.83-0.65-1.25h56.81c1.17,0,2.14,0.53,2.43,1.25
			C284.69,97,284.71,97.14,284.71,97.29z"/>
		<path class="st4" d="M284.63,96.87h-58.58c-0.17-0.42-0.4-0.83-0.65-1.25h56.81C283.37,95.62,284.35,96.15,284.63,96.87z"/>
		<path class="st6" d="M284.71,98.06v1.22h-57.98c-0.06-0.42-0.14-0.83-0.26-1.25h57.76C284.4,98.03,284.56,98.04,284.71,98.06z"/>
		<path class="st7" d="M284.71,99.31v1.22h-57.93v-0.01c0.02-0.41,0-0.83-0.06-1.24h57.5C284.4,99.28,284.56,99.29,284.71,99.31z"/>
		<path class="st44" d="M284.71,100.52v1.25h-58.06c0.08-0.42,0.12-0.83,0.13-1.25H284.71z"/>
	</g>
	<g>
		<path class="st46" d="M219.56,93.21c0.53,0,1.03-0.16,1.48-0.47c1.17-0.76,1.98-2.41,1.98-4.32c0-2.64-1.56-4.78-3.46-4.78h-2.19
			v-1.15h69.37c1.69,0,3.07,0.93,3.07,2.08v7.71c0,1.15-1.38,2.07-3.07,2.07h-69.37v-1.14H219.56z"/>
		<path class="st3" d="M287.49,89.78v1.75c0,0.93-1.28,1.68-2.87,1.68h-64.97c0.74-1.16,1.22-2.31,1.44-3.43H287.49z"/>
		<path class="st5" d="M287.49,85.31v4.47h-66.4c0.09-0.42,0.14-0.83,0.15-1.24v-0.01c0.02-0.41,0-0.83-0.06-1.24
			c-0.06-0.42-0.16-0.83-0.29-1.25c-0.13-0.39-0.28-0.78-0.48-1.17c-0.2-0.42-0.45-0.83-0.75-1.25h64.97c1.33,0,2.45,0.53,2.77,1.25
			C287.46,85.02,287.49,85.16,287.49,85.31z"/>
		<path class="st4" d="M287.4,84.88h-67c-0.2-0.42-0.45-0.83-0.75-1.25h64.97C285.96,83.64,287.07,84.16,287.4,84.88z"/>
		<path class="st4" d="M287.49,86.08v1.22h-66.32c-0.06-0.42-0.16-0.83-0.29-1.25h66.06C287.13,86.05,287.31,86.06,287.49,86.08z"/>
		<path class="st7" d="M287.49,87.33v1.22h-66.25v-0.01c0.02-0.41,0-0.83-0.06-1.24h65.77C287.13,87.3,287.31,87.3,287.49,87.33z"/>
		<path class="st4" d="M287.49,88.54v1.25h-66.4c0.09-0.42,0.14-0.83,0.15-1.25H287.49z"/>
	</g>
	<g>
		
			<rect x="176.16" y="85.84" transform="matrix(0.3478 -0.9376 0.9376 0.3478 50.1854 255.862)" class="st11" width="65.68" height="12.05"/>
		<polygon class="st11" points="226.07,63.17 225.97,63.44 203.22,124.74 197.55,122.63 191.92,120.55 214.77,58.97 		"/>
		<path class="st36" d="M224.49,68.34l-1.01,2.62c-0.08,0.2-0.26,0.35-0.46,0.41c-0.14,0.04-0.29,0.04-0.44-0.01L221.66,71
			l-4.34-1.67l-5.34-2.07c-0.35-0.14-0.53-0.53-0.39-0.88l1.02-2.62c0.14-0.35,0.53-0.54,0.88-0.39l5.29,2.04l2.88,1.1l2.43,0.94
			c0.12,0.05,0.23,0.14,0.3,0.24C224.53,67.88,224.57,68.11,224.49,68.34z"/>
		<path class="st36" d="M206.42,117.16l-1.01,2.62c-0.08,0.2-0.26,0.35-0.46,0.41c-0.14,0.04-0.29,0.04-0.44-0.01l-0.63-0.23
			l-0.3-0.12l-4.34-1.67l-5.34-2.07c-0.35-0.14-0.53-0.53-0.39-0.88l1.02-2.62c0.14-0.35,0.53-0.54,0.88-0.39l5.29,2.04l2.88,1.1
			l1.62,0.63l0.82,0.31c0.12,0.05,0.23,0.14,0.3,0.24C206.46,116.7,206.5,116.93,206.42,117.16z"/>
		
			<ellipse transform="matrix(0.3292 -0.9442 0.9442 0.3292 52.807 259.4134)" class="st36" cx="209" cy="92.54" rx="10.78" ry="3.94"/>
		<path class="st47" d="M225.05,65.9l-0.65,1.78c0.14,0.19,0.18,0.42,0.1,0.65l-1.01,2.62c-0.08,0.2-0.26,0.35-0.46,0.41l-0.22,0.61
			l-16.51,44.5c0.01,0,0.03,0.01,0.03,0.03c0.14,0.19,0.18,0.42,0.1,0.65l-1.01,2.62c-0.08,0.2-0.26,0.35-0.46,0.41h-0.04
			l-1.69,4.54l-5.67-2.11l19.77-53.3l1.46-3.93l1.6-4.34l5.68,2.11L225.05,65.9z"/>
	</g>
	<rect x="178.15" y="67.36" class="st36" width="9.37" height="57.39"/>
	<rect x="182.22" y="69.11" class="st48" width="1.49" height="54.62"/>
	<rect x="179.73" y="69.11" class="st49" width="2.49" height="54.62"/>
	<rect x="183.71" y="69.11" class="st49" width="2.22" height="54.62"/>
	<rect x="183.71" y="69.11" class="st50" width="1.55" height="54.62"/>
	<rect x="180.67" y="69.11" class="st50" width="1.55" height="54.62"/>
	<rect x="120.44" y="75.99" class="st36" width="17.13" height="4.58"/>
	<path class="st47" d="M137.57,54.11v70.64h-8.56V52.38h6.83C136.8,52.38,137.57,53.16,137.57,54.11z"/>
	<path class="st51" d="M322.97,81.81v3.06c-0.76,0.25-1.5,0.46-2.21,0.62v-8.52C321.83,78.78,322.52,80.48,322.97,81.81z"/>
	<path class="st9" d="M324.81,95.61c0,1.02-0.82,1.84-1.84,1.84l0,0c-1.02,0-1.84-0.82-1.84-1.84l0.89-27.78
		c0-1.02,2.25-0.79,2.25,0.23L324.81,95.61z"/>
	<g>
		<path class="st52" d="M343.24,111.1c0,0.09,0,0.18-0.01,0.27c-0.03,3.76-0.95,7.3-2.55,10.38v0.01
			c-3.57,6.88-10.46,11.56-18.39,11.56c-11.57,0-20.95-9.95-20.95-22.22c0-1.08,0.07-2.15,0.22-3.19c0.46-3.38,1.64-6.52,3.36-9.22
			c1.05-1.64,2.3-3.12,3.71-4.41c9.4,1.17,18.52,1.25,27.32,0C340.4,98.35,343.24,104.37,343.24,111.1z"/>
	</g>
	<rect x="96.95" y="124.75" class="st26" width="261.52" height="19.68"/>
	<rect x="96.95" y="144.42" class="st53" width="261.52" height="6.13"/>
	<g>
		<path class="st9" d="M315.78,79.66c-1.45-0.71-2.84-1.53-4.22-2.36c-1.38-0.84-2.72-1.73-4.03-2.66c-1.31-0.94-2.61-1.9-3.84-2.95
			c-1.22-1.05-2.45-2.14-3.38-3.46c1.16,1.12,2.44,2.07,3.73,3.02l3.92,2.78l3.94,2.77C313.19,77.74,314.5,78.67,315.78,79.66z"/>
	</g>
	<g>
		<polygon class="st9" points="306.1,73.4 300.43,71.72 306.2,73.01 		"/>
	</g>
	<g>
		<polygon class="st9" points="309.21,75.34 308.95,71.57 309.6,75.29 		"/>
	</g>
	<g>
		<polygon class="st9" points="311.59,77.33 307.93,76.55 311.66,76.86 		"/>
	</g>
	<g>
		<polygon class="st9" points="313.83,78.6 313.8,76.19 314.3,78.55 		"/>
	</g>
	<g>
		<path class="st10" d="M327.96,81.38c1.64-0.47,3.24-1.07,4.77-1.79c1.53-0.73,3-1.57,4.37-2.57c2.77-1.95,5.11-4.46,7.04-7.27
			c-0.81,1.5-1.82,2.9-2.96,4.18c-1.15,1.27-2.44,2.43-3.83,3.43c-1.41,0.99-2.9,1.85-4.48,2.52
			C331.29,80.57,329.64,81.06,327.96,81.38z"/>
	</g>
	<g>
		<path class="st10" d="M337.8,76.68c-0.2-0.57-0.26-1.19-0.17-1.77c0.09-0.58,0.31-1.13,0.59-1.62c-0.45,1.05-0.5,2.26,0.01,3.21
			L337.8,76.68z"/>
	</g>
	<g>
		<polygon class="st10" points="340.22,74.54 344.22,73.67 340.27,74.76 		"/>
	</g>
	<path class="st54" d="M323.09,68.81c-0.3,0.15-0.93,0.34-2.23-0.2c-1.69-0.71-2.98-2.01-3.68-2.83c1.13-0.46,2.08-0.52,2.67-0.51
		c0.77,0.02,2.48,0.05,3.36,1.23c0.31,0.42,0.73,1.28,0.39,1.87C323.44,68.63,323.2,68.75,323.09,68.81z"/>
	<path class="st54" d="M322.85,68.81c0.3,0.15,0.93,0.34,2.23-0.2c1.69-0.71,2.98-2.01,3.68-2.83c-1.13-0.46-2.08-0.52-2.67-0.51
		c-0.77,0.02-2.48,0.05-3.36,1.23c-0.31,0.42-0.73,1.28-0.39,1.87C322.5,68.63,322.74,68.75,322.85,68.81z"/>
	<path class="st54" d="M320.73,63.63c-0.17-0.66-0.55-2.19,0-4.04c0.43-1.44,1.21-2.4,1.67-2.88c0.45,0.39,1.05,0.98,1.62,1.82
		c1.84,2.73,1.62,5.59,1.52,6.42c-0.12,1.01-0.37,3.12-1.31,3.34C323.08,68.54,321.33,65.92,320.73,63.63z"/>
	<path class="st11" d="M322.97,68.92c-1.08,0.44-3.29-2.18-4.41-4.38c-1.04-2.04-1.27-3.97-1.32-5.23c0.54,0.11,1.34,0.32,2.22,0.78
		c0.48,0.25,3.34,1.82,4.03,4.98C323.77,66.36,323.83,68.57,322.97,68.92z"/>
	<path class="st11" d="M322.97,68.92c1.08,0.44,3.29-2.18,4.41-4.38c1.04-2.04,1.27-3.97,1.32-5.23c-0.54,0.11-1.34,0.32-2.22,0.78
		c-0.48,0.25-3.34,1.82-4.03,4.98C322.17,66.36,322.11,68.57,322.97,68.92z"/>
	<path class="st55" d="M310.62,104.03c0,2.96-2.4,5.36-5.36,5.36c-1.44,0-2.74-0.56-3.7-1.48c0.46-3.38,1.64-6.52,3.36-9.22
		c0.11-0.02,0.23-0.02,0.34-0.02C308.22,98.67,310.62,101.07,310.62,104.03z"/>
	<circle class="st55" cx="318.59" cy="117.36" r="5.36"/>
	<circle class="st55" cx="330.8" cy="104.03" r="5.36"/>
	<path class="st55" d="M343.23,111.37c-0.03,3.76-0.95,7.3-2.55,10.38c-2.18-0.68-3.76-2.71-3.76-5.11c0-2.96,2.4-5.36,5.36-5.36
		C342.6,111.28,342.92,111.31,343.23,111.37z"/>
</g>
<g id="Слой_2" class="st56">
	<g class="st57">
		<g>
			<path class="st25" d="M332.46,406.39c2.53,0.58,4.73,1.98,6.93,3.29c2.23,1.32,4.52,2.35,6.88,3.41
				c4.55,2.05,8.95,4.45,13.13,7.18c8.09,5.27,15.27,11.78,21.79,18.87c3.38,3.67,6.58,7.5,9.69,11.41
				c2.99,3.76,5.87,7.63,9.49,10.83c3.63,3.2,7.61,5.23,12.18,6.71c1.12,0.36,2.15,0.98,3.24,1.42c1.34,0.54,2.67,1.1,4.02,1.6
				c2.75,1,5.68,1.5,8.53,2.17c3.17,0.75,6.33,1.45,9.6,1.52c3.16,0.07,6.34-0.13,9.51-0.18c2.79-0.04,5.66-0.28,8.43,0.07
				c0.9,0.11,1.81,0.3,2.68,0.56c0.37,0.11,0.72,0.26,1.08,0.41c0.36,0.15,0.38,0.21,0.4,0.3c0.36,1.89,3.25,1.09,2.89-0.8
				c-0.33-1.72-2.36-2.47-3.84-2.88c-1.63-0.45-3.33-0.66-5.02-0.71c-5.96-0.19-11.98,0.59-17.92,0.14
				c-2.91-0.22-5.78-1.04-8.61-1.71c-2.87-0.68-5.68-1.28-8.43-2.37c-1.34-0.53-2.67-1.07-3.97-1.7c-1.18-0.58-2.42-0.88-3.67-1.31
				c-2.2-0.76-4.27-1.85-6.19-3.17c-3.95-2.71-7.11-6.43-10.04-10.17c-3.15-4.02-6.35-7.99-9.73-11.82
				c-6.52-7.38-13.68-14.19-21.75-19.86c-4.58-3.22-9.44-6.04-14.51-8.43c-2.7-1.27-5.42-2.36-7.99-3.88
				c-2.54-1.5-5.1-3.14-8.01-3.81C331.37,403.06,330.57,405.96,332.46,406.39L332.46,406.39z"/>
		</g>
	</g>
	<g class="st57">
		<g>
			<path class="st25" d="M351.07,503.7c0.55,0.16,0.94,0.83,1.41,1.14c0.79,0.53,1.75,0.73,2.67,0.91c2.06,0.39,3.96,1.17,5.95,1.81
				c4.08,1.29,8.32,2.6,12.52,3.43c4.19,0.83,8.47,0.86,12.73,0.87c4.43,0,8.69-0.31,13.08-0.98c4.06-0.61,7.77-1.68,11.59-3.19
				c4.17-1.65,8.38-3.17,12.56-4.79c1.7-0.66,3.14-1.67,4.55-2.81c1.47-1.19,2.94-2.29,4.51-3.35c3.39-2.27,6.48-4.96,9.43-7.78
				c2.8-2.68,5.92-5.45,7.73-8.94c0.91-1.76,1.56-3.68,1.77-5.65c0.12-1.1,0.15-2.22-0.02-3.32c-0.17-1.08-0.55-2.1-0.75-3.17
				c-0.35-1.9-3.25-1.09-2.89,0.8c0.16,0.87,0.46,1.7,0.64,2.57c0.18,0.88,0.14,1.83,0.06,2.73c-0.14,1.62-0.71,3.25-1.47,4.68
				c-1.57,2.95-4.17,5.26-6.54,7.56c-2.8,2.71-5.7,5.34-8.91,7.56c-1.46,1.01-2.93,1.94-4.3,3.07c-1.3,1.06-2.57,2.2-4.09,2.94
				c-1.86,0.9-3.91,1.49-5.84,2.22c-1.99,0.76-3.98,1.52-5.97,2.3c-3.59,1.41-7.13,2.81-10.96,3.4c-4.09,0.63-8.12,1.18-12.26,1.16
				c-4.06-0.02-8.18,0.12-12.21-0.48c-4.46-0.66-8.94-2.12-13.24-3.43c-2.15-0.65-4.23-1.6-6.44-2.01
				c-0.79-0.15-1.74-0.21-2.39-0.73c-0.72-0.58-1.18-1.12-2.1-1.39C350.02,500.26,349.22,503.16,351.07,503.7L351.07,503.7z"/>
		</g>
	</g>
	<g class="st57">
		<g>
			<path class="st25" d="M429.15,476.93c-1.91,2.44-0.37,4.92,1.62,6.7c1.13,1.01,2.03,1.96,3.42,2.62
				c-0.12-0.06,0.35,0.05,0.34,0.05c0.26,0.15,0.47,0.47,0.72,0.64c0.62,0.44,1.37,0.64,2.08,0.87c1.48,0.49,2.75,1.1,4.34,1.13
				c1.49,0.03,2.99,0.08,4.42-0.38c2.67-0.86,5.29-2.59,7.41-4.44c1.03-0.9,1.59-2.14,2.14-3.37c0.74-1.63,1.14-3.25,1.38-5.01
				c0.09-0.65,0.29-1.31,0.32-1.97c0.04-0.69-0.12-1.37-0.23-2.05c-0.28-1.75-0.92-3.35-1.31-5.07c-0.66-2.89-0.79-6.34-2.7-8.74
				c-1.31-1.64-3.45-4.29-5.91-3.21c-0.74,0.33-1.32,0.98-1.93,1.49c-0.72,0.6-1.45,1.2-2.19,1.79c-1.31,1.04-2.78,1.94-3.95,3.14
				c-1.16,1.2-1.93,2.73-2.88,4.09c-0.83,1.19-2.07,2.1-2.6,3.48c-0.7,1.8,2.2,2.58,2.89,0.8c0.24-0.62,1.13-1.2,1.54-1.73
				c0.79-1.02,1.5-2.11,2.19-3.2c1.3-2.04,3.45-3.26,5.3-4.75c0.49-0.39,0.97-0.79,1.46-1.19c0.29-0.24,0.9-1,1.26-1.08
				c0.58-0.14,1.21,0.74,1.52,1.14c0.78,1.02,1.47,1.75,1.87,3c0.36,1.13,0.54,2.3,0.75,3.46c0.21,1.14,0.45,2.28,0.75,3.4
				c0.32,1.21,0.79,2.32,0.99,3.56c0.37,2.31-0.17,5-1.1,7.15c-0.42,0.97-0.85,2.06-1.67,2.76c-0.88,0.75-1.87,1.36-2.84,1.97
				c-0.96,0.61-1.77,1.17-2.85,1.56c-1.21,0.43-2.29,0.39-3.56,0.4c-1.36,0.01-2.36-0.46-3.62-0.89c-0.57-0.2-1.16-0.31-1.65-0.66
				c-0.41-0.3-0.69-0.6-1.17-0.8c-1.17-0.51-1.85-1.23-2.79-2.07c-0.41-0.37-2.16-1.76-1.62-2.46
				C432.45,477.55,430.34,475.41,429.15,476.93L429.15,476.93z"/>
		</g>
	</g>
	<g class="st57">
		<g>
			<path class="st25" d="M442.18,462.75c0.12-0.57,0.34-1.13,0.31-1.72c-0.03-0.69-0.19-1.51-0.34-2.18
				c-0.24-1.12-0.86-2.17-1.55-3.07c-1.45-1.9-3.7-3.45-6.17-3.35c-2.62,0.1-4.92,1.74-6.42,3.79c-0.72,0.98-1.32,2.06-2,3.07
				c-0.74,1.11-1.44,2.26-1.83,3.54c-0.42,1.34-0.45,2.76-0.65,4.15c-0.22,1.55-0.23,2.99-0.21,4.55c0.02,1.93,3.02,1.93,3,0
				c-0.03-2.52,0.01-5.15,0.67-7.61c0.33-1.24,1.08-2.3,1.78-3.36c0.7-1.05,1.28-2.22,2.12-3.17c1.58-1.79,3.96-2.62,6.01-1.11
				c0.86,0.64,1.56,1.48,2.03,2.44c0.23,0.47,0.33,0.92,0.4,1.43c0.04,0.29,0.18,0.7,0.16,0.99c-0.01,0.26-0.16,0.57-0.21,0.82
				C438.88,463.83,441.77,464.64,442.18,462.75L442.18,462.75z"/>
		</g>
	</g>
	<g class="st57">
		<g>
			<path class="st25" d="M415.53,467.74c-0.02-0.45-0.3-1.29-0.27-1.59c0.03-0.23,0.17-0.47,0.22-0.7c0.07-0.34,0.08-0.7,0.12-1.05
				c0.13-1.32,0.43-2.57,0.77-3.85c0.63-2.35,1.34-4.72,2.74-6.74c0.53-0.77,1.2-1.57,2.08-1.95c0.14-0.06,0.53-0.24,0.67-0.18
				c0.24,0.1,0.54,0.92,0.65,1.16c0.55,1.19,1.13,2.35,1.71,3.53c0.27,0.55,0.59,1.07,0.86,1.61c0.09,0.18,0.19,0.38,0.27,0.57
				c0.04,0.07,0.07,0.13,0.1,0.2c0.07,0.21,0.08,0.24,0.01,0.09c-0.08,0.81,0.75,1.5,1.5,1.5c0.88,0,1.42-0.69,1.5-1.5
				c0.13-1.24-0.98-2.67-1.52-3.71c-0.71-1.39-1.33-2.82-2.05-4.2c-0.64-1.23-1.6-2.28-3.09-2.26c-1.45,0.02-2.87,0.88-3.87,1.88
				c-2.18,2.17-3.32,5.19-4.15,8.08c-0.45,1.58-0.89,3.16-1.09,4.8c-0.09,0.75-0.24,1.42-0.4,2.15c-0.17,0.78,0.18,1.41,0.22,2.15
				C412.63,469.66,415.63,469.67,415.53,467.74L415.53,467.74z"/>
		</g>
	</g>
</g>
</svg>
