<?xml version="1.0" encoding="utf-8"?>
<!-- Generator: Adobe Illustrator 15.0.0, SVG Export Plug-In . SVG Version: 6.00 Build 0)  -->
<!DOCTYPE svg PUBLIC "-//W3C//DTD SVG 1.1//EN" "http://www.w3.org/Graphics/SVG/1.1/DTD/svg11.dtd">
<svg version="1.1" id="Layer_1" xmlns="http://www.w3.org/2000/svg" xmlns:xlink="http://www.w3.org/1999/xlink" x="0px" y="0px"
	 width="755.303px" height="575.072px" viewBox="0 0 755.303 575.072" enable-background="new 0 0 755.303 575.072"
	 xml:space="preserve">
<g>
	<path fill="#FFFFFF" d="M489.284,102c0,2.762-2.239,5-5,5H218.812c-2.761,0-5-2.238-5-5V7c0-2.762,2.239-5,5-5h265.473
		c2.761,0,5,2.238,5,5V102z"/>
	<path fill="#BDCCD4" d="M484.284,2c2.761,0,5,2.238,5,5v95c0,2.762-2.239,5-5,5H218.812c-2.761,0-5-2.238-5-5V7
		c0-2.762,2.239-5,5-5H484.284 M484.284,0H218.812c-3.86,0-7,3.14-7,7v95c0,3.86,3.14,7,7,7h265.473c3.859,0,7-3.14,7-7V7
		C491.284,3.14,488.144,0,484.284,0L484.284,0z"/>
</g>
<g>
	<path fill="#FFFFFF" d="M571.754,504c0,2.762-2.238,5-5,5H366.365c-2.762,0-5-2.238-5-5V136c0-2.762,2.238-5,5-5h200.389
		c2.762,0,5,2.238,5,5V504z"/>
	<path fill="#BDCCD4" d="M566.754,131c2.762,0,5,2.238,5,5v368c0,2.762-2.238,5-5,5H366.365c-2.762,0-5-2.238-5-5V136
		c0-2.762,2.238-5,5-5H566.754 M566.754,129H366.365c-3.86,0-7,3.14-7,7v368c0,3.859,3.14,7,7,7h200.389c3.859,0,7-3.141,7-7V136
		C573.754,132.14,570.613,129,566.754,129L566.754,129z"/>
</g>
<path fill="#9E4F8F" d="M579.354,163.227c0,2.762-2.239,5-5,5H366.365c-2.762,0-5-2.238-5-5v-27.5c0-2.762,2.238-5,5-5h207.989
	c2.761,0,5,2.238,5,5V163.227z"/>
<rect x="361.366" y="158.227" fill="#FFFFFF" width="217.989" height="27.274"/>
<path fill="#65B069" d="M550.605,278.895c0,0.553-0.448,1-1,1h-166.34c-0.553,0-1-0.447-1-1V180c0-0.553,0.447-1,1-1h166.34
	c0.552,0,1,0.447,1,1V278.895z"/>
<path fill="#DEE2D7" d="M550.605,399.895c0,0.553-0.448,1-1,1h-166.34c-0.553,0-1-0.447-1-1V301c0-0.553,0.447-1,1-1h166.34
	c0.552,0,1,0.447,1,1V399.895z"/>
<path fill="#DEE2D7" d="M550.605,489.333c0,0.552-0.447,1-1,1h-166.34c-0.553,0-1-0.448-1-1V420c0-0.553,0.447-1,1-1h166.34
	c0.553,0,1,0.447,1,1V489.333z"/>
<g>
	<path fill="#FFFFFF" d="M535.313,234.895c0,2.762,2.239,5,5,5h207.989c2.762,0,5-2.238,5-5V74.5c0-2.762-2.238-5-5-5H540.313
		c-2.761,0-5,2.238-5,5V234.895z"/>
	<path fill="#BDCCD4" d="M748.303,69.5c2.762,0,5,2.238,5,5v160.395c0,2.762-2.238,5-5,5H540.313c-2.761,0-5-2.238-5-5V74.5
		c0-2.762,2.239-5,5-5H748.303 M748.303,67.5H540.313c-3.859,0-7,3.14-7,7v160.395c0,3.86,3.141,7,7,7h207.989c3.859,0,7-3.14,7-7
		V74.5C755.303,70.64,752.162,67.5,748.303,67.5L748.303,67.5z"/>
</g>
<g>
	<path fill="#FFFFFF" d="M338.539,256.783c0,2.762-2.238,5-5,5H122.465c-2.762,0-5-2.238-5-5V128c0-2.762,2.238-5,5-5h211.074
		c2.762,0,5,2.238,5,5V256.783z"/>
	<path fill="#BDCCD4" d="M333.539,123c2.762,0,5,2.238,5,5v128.783c0,2.762-2.238,5-5,5H122.465c-2.762,0-5-2.238-5-5V128
		c0-2.762,2.238-5,5-5H333.539 M333.539,121H122.465c-3.86,0-7,3.14-7,7v128.783c0,3.86,3.14,7,7,7h211.074c3.86,0,7-3.14,7-7V128
		C340.539,124.14,337.399,121,333.539,121L333.539,121z"/>
</g>
<path fill="#9E4F8F" d="M489.283,34.5c0,2.762-2.829,5-6.318,5H220.13c-3.49,0-6.318-2.238-6.318-5V7c0-2.762,2.828-5,6.318-5
	h262.835c3.489,0,6.318,2.238,6.318,5V34.5z"/>
<rect x="213.813" y="29.5" fill="#FFFFFF" width="275.472" height="27.274"/>
<path fill="#9E4F8F" d="M753.303,102c0,2.762-2.239,5-5,5H540.313c-2.762,0-5-2.238-5-5V74.5c0-2.762,2.238-5,5-5h207.989
	c2.761,0,5,2.238,5,5V102z"/>
<rect x="535.314" y="97" fill="#FFFFFF" width="217.989" height="27.274"/>
<path fill="#9E4F8F" d="M338.539,155.5c0,2.762-2.271,5-5.07,5H122.535c-2.801,0-5.07-2.238-5.07-5V128c0-2.762,2.27-5,5.07-5
	h210.934c2.799,0,5.07,2.238,5.07,5V155.5z"/>
<rect x="117.466" y="150.5" fill="#FFFFFF" width="221.073" height="27.274"/>
<g>
	<path fill="#65B069" d="M81.308,477.684c0,0,19.729,14.242,35.432-20.746C116.739,456.938,81.128,454.633,81.308,477.684"/>
	<g>
		<path fill="#472A2B" d="M96.921,558.934h-32.75c-4.453,0-8.4-2.867-9.773-7.104l-13.889-42.744
			c-0.566-1.752,0.65-3.564,2.484-3.711c25.285-1.959,50.322-1.963,75.113-0.004c1.83,0.146,3.047,1.959,2.48,3.707l-13.889,42.752
			C105.319,556.066,101.374,558.934,96.921,558.934"/>
		<path fill="#11110E" d="M117.679,508.48c0,1.137-16.525,2.059-36.908,2.059c-20.385,0-36.908-0.922-36.908-2.059
			c0-1.139,16.523-2.061,36.908-2.061C101.153,506.42,117.679,507.342,117.679,508.48"/>
		<path fill="#32663A" d="M79.878,426.686c0,0,23.875,0.023,28.063-29.971C107.94,396.715,74.087,397.234,79.878,426.686"/>
		<path fill="#32663A" d="M82.097,478.115c0,0-0.361-23.875-30.416-27.582C51.681,450.533,52.735,484.375,82.097,478.115"/>
		<path fill="#65B069" d="M82.278,508.23V384.055c0-0.957-0.773-1.732-1.732-1.732c-0.955,0-1.732,0.775-1.732,1.732V508.23
			C80.067,508.58,81.237,508.58,82.278,508.23"/>
		<path fill="#65B069" d="M80.546,396.613c0,0,3.279-23.648,33.563-23.648C114.108,372.965,108.917,406.42,80.546,396.613"/>
		<path fill="#65B069" d="M82.097,403.879c0,0-3.283-23.652-33.566-23.652C48.53,380.227,53.726,413.684,82.097,403.879"/>
		<path fill="#65B069" d="M82.438,424.887c0,0-7.756-22.582-37.479-16.775C44.96,408.111,56.474,439.955,82.438,424.887"/>
		<path fill="#65B069" d="M80.522,429.926c0,0,22.254,8.658,37.002-17.789C117.524,412.137,85.78,400.371,80.522,429.926"/>
		<path fill="#65B069" d="M80.091,451.275c0,0,17.662,16.732,37.869-15.869C117.96,435.406,82.964,428.406,80.091,451.275"/>
		<path fill="#65B069" d="M80.546,480.711c0,0-0.695-24.322-38.02-15.504C42.526,465.207,62.36,494.875,80.546,480.711"/>
		<path fill="#65B069" d="M82.341,450.047c0,0-0.098-24.336-37.627-16.43C44.714,433.617,63.813,463.758,82.341,450.047"/>
	</g>
</g>
<g opacity="0.15">
	<g>
		<defs>
			<rect id="SVGID_1_" y="537.021" width="735.65" height="51.475"/>
		</defs>
		<clipPath id="SVGID_2_">
			<use xlink:href="#SVGID_1_"  overflow="visible"/>
		</clipPath>
		<path clip-path="url(#SVGID_2_)" fill="#2C2A40" d="M735.65,562.754c0,14.222-164.678,25.742-367.822,25.742
			C164.686,588.496,0,576.976,0,562.754c0-14.21,164.686-25.741,367.828-25.741C570.973,537.013,735.65,548.544,735.65,562.754"/>
	</g>
</g>
<circle fill="#C6BDC5" cx="255.97" cy="66.986" r="23.484"/>
<path fill="#C6BDC5" d="M468.849,48.334c0,0.553-0.448,1-1,1H296.682c-0.553,0-1-0.447-1-1v-3.831c0-0.552,0.447-1,1-1h171.167
	c0.552,0,1,0.448,1,1V48.334z"/>
<path fill="#C6BDC5" d="M468.849,69.334c0,0.553-0.448,1-1,1H296.682c-0.553,0-1-0.447-1-1v-3.831c0-0.552,0.447-1,1-1h171.167
	c0.552,0,1,0.448,1,1V69.334z"/>
<path fill="#C3DDC4" d="M468.849,90.334c0,0.553-0.448,1-1,1H296.682c-0.553,0-1-0.447-1-1v-3.831c0-0.552,0.447-1,1-1h171.167
	c0.552,0,1,0.448,1,1V90.334z"/>
<circle fill="#C6BDC5" cx="300.97" cy="187.986" r="23.484"/>
<path fill="#C6BDC5" d="M259.515,168.902c0,0.553-0.448,1-1,1H137.348c-0.553,0-1-0.447-1-1v-3.831c0-0.552,0.447-1,1-1h121.167
	c0.552,0,1,0.448,1,1V168.902z"/>
<path fill="#C6BDC5" d="M259.515,189.902c0,0.553-0.448,1-1,1H137.348c-0.553,0-1-0.447-1-1v-3.831c0-0.552,0.447-1,1-1h121.167
	c0.552,0,1,0.448,1,1V189.902z"/>
<path fill="#C6BDC5" d="M259.515,210.902c0,0.553-0.448,1-1,1H137.348c-0.553,0-1-0.447-1-1v-3.831c0-0.552,0.447-1,1-1h121.167
	c0.552,0,1,0.448,1,1V210.902z"/>
<path fill="#C6BDC5" d="M319.515,231.902c0,0.553-0.448,1-1,1H137.348c-0.553,0-1-0.447-1-1v-3.831c0-0.552,0.447-1,1-1h181.167
	c0.552,0,1,0.448,1,1V231.902z"/>
<path fill="#65B069" d="M294.175,231.902c0,0.553-0.448,1-1,1h-59.584c-0.552,0-1-0.447-1-1v-3.831c0-0.552,0.448-1,1-1h59.584
	c0.552,0,1,0.448,1,1V231.902z"/>
<path fill="#9E4F8F" d="M197.932,168.902c0,0.553-0.448,1-1,1h-59.584c-0.552,0-1-0.447-1-1v-3.831c0-0.552,0.448-1,1-1h59.584
	c0.552,0,1,0.448,1,1V168.902z"/>
<g>
	<circle fill="#FFFFFF" cx="229.577" cy="15.273" r="4.107"/>
	<circle fill="#FFFFFF" cx="242.887" cy="15.273" r="4.107"/>
	<circle fill="#FFFFFF" cx="256.197" cy="15.273" r="4.107"/>
</g>
<g>
	<circle fill="#FFFFFF" cx="131.577" cy="137.273" r="4.107"/>
	<circle fill="#FFFFFF" cx="144.887" cy="137.273" r="4.107"/>
	<circle fill="#FFFFFF" cx="158.197" cy="137.273" r="4.107"/>
</g>
<g>
	<circle fill="#FFFFFF" cx="377.577" cy="145.273" r="4.107"/>
	<circle fill="#FFFFFF" cx="390.887" cy="145.273" r="4.107"/>
	<circle fill="#FFFFFF" cx="404.197" cy="145.273" r="4.107"/>
</g>
<g>
	<circle fill="#FFFFFF" cx="549.577" cy="83.273" r="4.107"/>
	<circle fill="#FFFFFF" cx="562.887" cy="83.273" r="4.107"/>
	<circle fill="#FFFFFF" cx="576.197" cy="83.273" r="4.107"/>
</g>
<path fill="#CCB4C9" d="M735.303,220c0,0.553-0.447,1-1,1H554.684c-0.553,0-1-0.447-1-1V113.5c0-0.553,0.447-1,1-1h179.619
	c0.553,0,1,0.447,1,1V220z"/>
<g>
	<path fill="#93678F" d="M694.636,221c-0.385-1.764-1.037-3.423-1.966-4.826l-53.713-81.294c-3.165-4.793-8.302-4.793-11.47,0
		l-53.714,81.294c-0.927,1.403-1.581,3.062-1.965,4.826H694.636L694.636,221z"/>
	<path fill="#FFFFFF" d="M616.254,173.454l11.474-11.986l4.222,10.965l9.187-9.765l18.656,13.475l-3.034-14.322l-17.801-26.94
		c-3.167-4.793-8.302-4.793-11.47,0l-14.693,22.237l3.971,2.811L616.254,173.454z"/>
	<g opacity="0.05">
		<g>
			<g>
				<defs>
					<rect id="SVGID_3_" x="633.224" y="131.285" width="61.412" height="89.715"/>
				</defs>
				<clipPath id="SVGID_4_">
					<use xlink:href="#SVGID_3_"  overflow="visible"/>
				</clipPath>
				<path clip-path="url(#SVGID_4_)" fill="#270702" d="M694.636,221c-0.385-1.764-1.037-3.423-1.966-4.826l-53.713-81.294
					c-1.585-2.396-3.659-3.595-5.735-3.595V221H694.636L694.636,221z"/>
			</g>
		</g>
	</g>
</g>
<g>
	<path fill="#BAA0B9" d="M631.138,221c-0.231-1.062-0.625-2.061-1.182-2.904l-32.32-48.915c-1.906-2.885-4.996-2.885-6.902,0
		l-32.32,48.915c-0.558,0.844-0.951,1.843-1.183,2.904H631.138L631.138,221z"/>
	<path fill="#FFFFFF" d="M585.354,189.135l6.065-8.622l2.765,9.384l5.375-6.75l5.681,6.77l0.517-8.445l-1.691-2.558l-6.431-9.733
		c-1.905-2.885-4.995-2.885-6.901,0l-8.841,13.381l3.569-0.953L585.354,189.135z"/>
	<g opacity="0.2">
		<g>
			<g>
				<defs>
					<rect id="SVGID_5_" x="594.185" y="167.017" width="36.953" height="53.983"/>
				</defs>
				<clipPath id="SVGID_6_">
					<use xlink:href="#SVGID_5_"  overflow="visible"/>
				</clipPath>
				<path clip-path="url(#SVGID_6_)" fill="#270702" d="M631.138,221c-0.231-1.062-0.625-2.061-1.182-2.904l-32.32-48.915
					c-0.953-1.442-2.202-2.164-3.451-2.164V221H631.138z"/>
			</g>
		</g>
	</g>
</g>
<circle fill="#EFDFEE" cx="708.455" cy="140.381" r="14.484"/>
<g>
	<g>
		<path fill="#A78462" d="M333.483,495.052c-17.617-1.473-16.239,3.519-27.092-4.129c-14.324-10.642-47.877-47.157-47.877-47.157
			c5.66-9.778,30.846-38.539,32.891-41.953c2.048-3.41,5.93,6.221,19.908,4.404c13.978-1.817,17.951-3.887,29.808-6.677
			c12.978-3.055,42.415-13.944,58.07-23.391c15.658-9.445,19.818-23.093,35.544-35.344c15.724-12.247,33.464-20.625,24.517,3.298
			c-5.097,13.627-17.381,23.971-20.799,29.967c9.379-2.185,4.837,5.938,2.439,9.458c-4.109,6.026-19.758,22.533-28.074,27.175
			c19.677-1.634-16.646,29.154-24.2,32.247c10.393-0.41,3.932,7.761,0.37,11.021c-4.868,4.453-20.481,14.639-27.677,16.381
			C366.406,474.355,365.198,483.772,333.483,495.052z"/>
		<path fill="#47292B" d="M333.261,497.702c-6.335-0.525-10.149-0.189-12.935,0.06c-5.595,0.494-8.153,0.488-15.523-4.704
			c-14.358-10.666-46.869-45.992-48.247-47.493l-1.324-1.438l0.98-1.692c3.727-6.44,15.379-20.516,23.884-30.791
			c4.316-5.212,8.393-10.139,9.028-11.199c0.711-1.183,1.629-1.668,2.272-1.865c1.914-0.588,3.554,0.466,5.287,1.581
			c2.724,1.746,6.839,4.388,14.287,3.421c9.253-1.206,13.89-2.48,19.77-4.099c2.749-0.754,5.869-1.612,9.771-2.53
			c2.096-0.494,4.639-1.2,7.562-2.097c14.765-4.533,37.219-13.426,49.746-20.984c8.049-4.856,12.996-10.989,18.237-17.48
			c4.701-5.831,9.563-11.854,17.04-17.683c4.519-3.514,13.104-9.728,19.881-11.809c4.235-1.3,7.406-0.873,9.418,1.267
			c2.766,2.93,2.556,8.293-0.651,16.87c-3.537,9.454-10.375,17.409-15.37,23.218c-0.973,1.13-1.896,2.204-2.717,3.197
			c0.959,0.348,1.721,0.934,2.277,1.746c1.738,2.535,0.777,6.515-2.844,11.83c-3.609,5.293-14.927,17.471-23.697,24.365
			c0.996,0.773,1.487,1.763,1.711,2.695c0.359,1.495,1.451,6.046-12.809,19.27c-4.324,4.011-9.138,7.922-13.005,10.646
			c0.55,0.49,0.969,1.087,1.255,1.783c1.905,4.638-3.928,10.469-5.762,12.146c-4.156,3.801-16.668,12.266-25.148,15.755
			c0.564,1.33,0.744,2.79,0.502,4.278c-1.187,7.254-11.873,14.521-31.763,21.595l-0.542,0.19L333.261,497.702z M360.684,467.768
			c0.246-0.059,0.501-0.131,0.769-0.213c7.203-2.212,21.489-11.66,25.74-15.548c2.674-2.447,4.309-5.113,4.408-6.102
			c-0.285-0.128-1.074-0.367-2.877-0.297l-15.071,0.592l13.961-5.715c2.561-1.047,9.947-6.459,16.865-12.846
			c9.25-8.543,11.36-12.895,11.455-14.131c-0.31-0.113-1.123-0.301-2.896-0.156l-12.255,1.018l10.737-5.991
			c7.834-4.372,23.225-20.557,27.171-26.35c1.948-2.854,2.645-4.812,2.759-5.655c-0.383-0.03-1.123-0.01-2.396,0.288l-5.93,1.378
			l3.015-5.289c1.285-2.254,3.562-4.902,6.199-7.97c4.998-5.812,11.218-13.045,14.421-21.608c3.439-9.207,1.944-11.17,1.762-11.361
			c-0.353-0.374-1.608-0.556-3.982,0.173c-4.42,1.356-10.872,5.235-18.17,10.921c-6.994,5.447-11.66,11.232-16.173,16.827
			c-5.541,6.865-10.774,13.355-19.629,18.693c-13.03,7.862-35.486,16.774-50.933,21.517c-3.032,0.931-5.694,1.67-7.905,2.189
			c-3.805,0.896-6.74,1.702-9.577,2.483c-5.839,1.606-10.877,2.99-20.494,4.24c-9.376,1.22-14.887-2.32-17.849-4.221
			c-0.248-0.157-0.523-0.334-0.78-0.492c-1.321,1.807-4.181,5.27-8.835,10.893c-7.692,9.296-17.998,21.741-22.352,28.41
			c6.432,6.931,33.796,36.172,46.081,45.303c6.013,4.237,7.385,4.115,11.931,3.712c2.895-0.256,6.826-0.607,13.271-0.106
			c24.576-8.818,27.462-15.423,27.758-17.247c0.063-0.373,0.248-1.509-1.216-2.659l-4.312-3.389L360.684,467.768z"/>
	</g>
	<path fill="#472A2B" d="M143.649,441.039c8.745-22.674,23.579-36.29,34.647-43.783c-7.723-9.732-13.301-23.008-13.301-41.107
		c0-49.742,35.21-66.484,51.275-66.484c9.306,0,16.645,4.737,22.54,8.539c2.003,1.297,4.86,3.138,6.569,3.793
		c1.711-0.655,4.569-2.496,6.574-3.793c5.896-3.802,13.231-8.539,22.54-8.539c16.062,0,51.278,16.742,51.278,66.484
		c0,12.246-2.563,22.275-6.605,30.503l-0.16,0.035c-4.367,8.164-11.153,15.929-19.053,21.772c0,0,15.801,15.703,17.465,49.629
		c2.633,53.693-21.188,79.215-26.869,86.033c-0.738,0.889,1.185,4.287,5.987,6.875c5.36,2.889,9.241,5.766,13.852,9.492
		c0.474,1.22,0.769,2.615,0.708,4.252c-0.217,5.771-4.617,8.57-6.076,9.498c-3.65,2.326-7.424,3.531-11.23,3.671
		c-2.959,7.407-11.57,18.254-21.289,18.382c-1.146,1.771-2.723,3.77-4.898,6.039c-6.879,7.185-13.104,10.829-18.508,10.829
		c-1.256,0-2.479-0.214-3.662-0.577c-1.18,0.363-2.406,0.577-3.662,0.577c-5.402,0-11.632-3.642-18.506-10.829
		c-2.178-2.27-3.758-4.268-4.9-6.039c-9.722-0.128-18.334-10.971-21.291-18.382c-3.801-0.14-7.58-1.345-11.247-3.681
		c-1.442-0.918-5.843-3.721-6.058-9.488c-0.063-1.621,0.229-3.005,0.689-4.217c-7.736-2.834-15.213-10.435-22.27-22.693
		C143.131,511.681,132.922,468.872,143.649,441.039z"/>
	<path fill="#A68462" d="M278.639,555.474c2.182-1.729,4.41-3.663,6.674-5.813c13.91,15.951,17.655,13.523,14.107,15.784
		c-2.256,1.438-4.359,2.089-6.329,2.089c-3.347,0-6.318-1.874-9.038-4.977C281.258,559.355,279.783,557.012,278.639,555.474z"/>
	<path fill="#A68462" d="M275.447,557.893c0.482,0.55,1.002,1.159,1.564,1.867c4.176,5.283,7.859,9.553,7.479,13.224
		c-0.304,2.899-7.479,12.896-12.167,12.896c-1.252,0-2.328-0.71-3.045-2.466c-3.893-9.525-5.106-15.073-6.043-18.236
		C266.947,563.419,271.064,561.057,275.447,557.893z"/>
	<path fill="#A68462" d="M205.506,549.717c2.267,2.15,4.5,4.076,6.684,5.805c-1.143,1.54-2.611,3.876-5.379,7.035
		c-2.713,3.103-5.688,4.977-9.034,4.977c-1.972,0-4.075-0.651-6.327-2.089C187.902,563.188,191.633,565.603,205.506,549.717z"/>
	<path fill="#A68462" d="M215.379,557.937c4.389,3.168,8.518,5.521,12.241,7.279c-0.934,3.162-2.151,8.71-6.034,18.197
		c-0.719,1.756-1.793,2.466-3.045,2.466c-4.688,0-11.864-9.996-12.164-12.896c-0.379-3.671,3.299-7.94,7.476-13.224
		C214.399,559.073,214.908,558.475,215.379,557.937z"/>
	<path fill="#A68462" d="M153.383,444.79c9.422-24.433,26.609-36.989,36.725-42.555c1.246,1.056,2.52,2.037,3.811,2.963
		c-6.283,6.5-18.292,21.984-20.333,46.954c-0.138,1.678-0.253,3.398-0.345,5.154c-0.063,1.252-0.102,2.545-0.141,3.83
		c-0.012,0.506-0.041,0.994-0.05,1.506c-0.036,1.749-0.042,3.534-0.021,5.34c0,0.054,0,0.113,0,0.166
		c0.315,24.347,6.298,53.301,27.422,76.347c0.012,0.009,0.018,0.025,0.029,0.034c-1.949,4.646-5.334,7.047-10.766,7.047
		c-1.154,0-2.402-0.107-3.742-0.321C166.853,548.211,139.475,480.857,153.383,444.79z"/>
	<path fill="#A68462" d="M248.488,588.327c-0.035-6.121-0.067-12.872-0.014-18.363c2.517-0.401,6.217-1.265,10.738-3.049
		c1.836,5.669,5.447,14.514,5.721,20.845c0.148,3.396-11.563,14.969-15.838,14.969c-0.268,0-0.493-0.041-0.695-0.113
		c0.082-0.445,0.127-0.91,0.127-1.389C248.527,598.165,248.51,592.016,248.488,588.327z"/>
	<path fill="#A68462" d="M242.396,569.976c0.051,5.492,0.015,12.236-0.018,18.352c-0.021,3.688-0.039,9.838-0.039,12.899
		c0,0.479,0.044,0.943,0.125,1.389c-0.202,0.072-0.428,0.113-0.693,0.113c-4.281,0-15.99-11.572-15.844-14.969
		c0.275-6.325,3.876-15.143,5.719-20.81C236.155,568.714,239.854,569.574,242.396,569.976z"/>
	<path fill="#A68462" d="M200.154,535.438c-0.037-0.054-0.078-0.104-0.117-0.148c-0.189-0.248-0.378-0.491-0.57-0.735
		c-3.463-4.521-6.423-9.272-8.932-14.198c0-0.004-0.003-0.01-0.003-0.01c-0.083-0.154-0.154-0.306-0.231-0.461
		c-0.984-1.967-1.9-3.953-2.75-5.967c-0.207-0.482-0.42-0.961-0.614-1.447c-0.003-0.005-0.007-0.014-0.009-0.023
		c-1.092-2.716-2.054-5.473-2.906-8.264c-0.008-0.018-0.013-0.033-0.019-0.051c-0.188-0.624-0.365-1.246-0.547-1.871
		c-0.352-1.229-0.694-2.458-1.001-3.697c-0.002-0.006-0.005-0.019-0.005-0.026c-0.11-0.427-0.206-0.863-0.31-1.294
		c-0.343-1.449-0.67-2.898-0.961-4.358v-0.004c-0.061-0.291-0.104-0.583-0.16-0.874c-0.304-1.602-0.592-3.211-0.834-4.822
		c0-0.01-0.003-0.012-0.003-0.019c-0.048-0.333-0.089-0.662-0.13-0.996c-0.601-4.209-0.985-8.439-1.19-12.673
		c-0.015-0.345-0.036-0.69-0.05-1.039c0-0.022-0.004-0.05-0.004-0.07c-0.033-0.842-0.077-1.685-0.099-2.526c0-0.003,0-0.009,0-0.015
		c-0.009-0.381-0.005-0.762-0.009-1.143c-0.057-3.465-0.014-6.928,0.152-10.364c0-0.009,0-0.011,0-0.015
		c0.092-1.912,0.214-3.817,0.365-5.712c2-24.433,14.247-39.015,19.533-44.255c8.533,5.064,17.141,7.651,22.9,8.932
		c9.1,2.023,18.043,2.326,22.559,2.326c0.457,0,0.852-0.004,1.17-0.009c0.32,0.005,0.713,0.009,1.176,0.009
		c4.514,0,13.454-0.303,22.554-2.326c5.759-1.28,14.369-3.867,22.903-8.932c5.289,5.242,17.534,19.826,19.527,44.255
		c0.391,4.778,0.564,9.624,0.533,14.481c0,0.922,0,1.842-0.021,2.764c0,0.003,0,0.007,0,0.012c-0.064,2.791-0.229,5.587-0.453,8.378
		c-0.006,0.021-0.006,0.038-0.009,0.059c-0.083,1.039-0.169,2.081-0.278,3.115c0,0.007,0,0.011,0,0.011
		c-0.096,0.911-0.215,1.815-0.327,2.721c0,0.002,0,0.006,0,0.012c-0.099,0.794-0.209,1.588-0.322,2.385
		c-0.165,1.137-0.347,2.273-0.541,3.41c-0.003,0.002-0.003,0.008-0.003,0.012c-0.102,0.588-0.214,1.175-0.324,1.764
		c-0.252,1.333-0.515,2.656-0.813,3.98c-0.211,0.942-0.432,1.887-0.666,2.823c-0.004,0.012-0.006,0.019-0.006,0.027
		c-0.238,0.946-0.485,1.889-0.746,2.829c-0.257,0.913-0.527,1.826-0.804,2.736c-0.003,0.009-0.009,0.018-0.009,0.029
		c-0.539,1.756-1.127,3.502-1.762,5.23c-0.025,0.077-0.056,0.16-0.083,0.244v0.002c-0.352,0.943-0.698,1.885-1.071,2.818
		c-0.006,0.009-0.006,0.011-0.012,0.02c-0.196,0.488-0.407,0.974-0.618,1.456c-0.794,1.892-1.651,3.763-2.568,5.61
		c-0.134,0.259-0.261,0.521-0.393,0.782c-0.002,0.006-0.005,0.012-0.011,0.015c-0.658,1.297-1.342,2.582-2.064,3.853
		c-0.26,0.429-0.501,0.86-0.756,1.291c-0.01,0.019-0.021,0.033-0.033,0.051c-0.531,0.901-1.047,1.806-1.611,2.69
		c-0.004,0.002-0.004,0.002-0.008,0.005c-0.151,0.241-0.316,0.476-0.48,0.714c-3.109,4.769-6.677,9.338-10.826,13.621
		c-17.022,17.552-31.962,21.193-37.77,21.952l-1.305,0.144l-1.3-0.144c-5.811-0.759-20.747-4.4-37.771-21.952
		C204.086,540.271,202.072,537.874,200.154,535.438z"/>
	<path fill="#A68462" d="M267.977,412.201c-8.802,1.956-17.584,2.201-21.42,2.201c-0.471,0-0.86-0.003-1.176-0.009
		c-0.311,0.006-0.705,0.009-1.17,0.009c-3.84,0-12.621-0.245-21.424-2.201c-11.73-2.609-47.364-13.468-47.364-56.053
		c0-42.584,29.115-56.054,40.849-56.054c11.354,0,20.272,11.778,29.109,12.528c8.842-0.75,17.756-12.528,29.114-12.528
		c11.729,0,40.849,13.47,40.849,56.054C315.344,398.733,279.707,409.592,267.977,412.201z"/>
	<g>
		<path fill="#CFAB7A" d="M221.68,320.625c9.245,0,16.507,7.549,23.701,8.028c7.199-0.479,14.454-8.028,23.705-8.028
			c9.55,0,33.257,8.631,33.257,35.916c0,27.287-29.014,34.25-38.565,35.918c-8.033,1.405-16.047,1.432-18.396,1.405
			c-2.351,0.026-10.362,0-18.396-1.405c-9.547-1.668-38.564-8.631-38.564-35.918C188.42,329.256,212.123,320.625,221.68,320.625z"/>
	</g>
	<g>
		<g>
			<defs>
				<path id="SVGID_7_" d="M267.977,412.201c-8.802,1.956-17.584,2.201-21.42,2.201c-0.471,0-0.86-0.003-1.176-0.009
					c-0.311,0.006-0.705,0.009-1.17,0.009c-3.84,0-12.621-0.245-21.424-2.201c-11.73-2.609-47.364-13.468-47.364-56.053
					c0-42.584,29.115-56.054,40.849-56.054c11.354,0,20.272,11.778,29.109,12.528c8.842-0.75,17.756-12.528,29.114-12.528
					c11.729,0,40.849,13.47,40.849,56.054C315.344,398.733,279.707,409.592,267.977,412.201z"/>
			</defs>
			<clipPath id="SVGID_8_">
				<use xlink:href="#SVGID_7_"  overflow="visible"/>
			</clipPath>
			<g clip-path="url(#SVGID_8_)">
				<path fill="#7E543A" d="M262.873,381.567c0,0-8.193,35.846-17.756,35.846c-9.558,0-17.227-35.846-17.227-35.846H262.873z"/>
			</g>
		</g>
		<path fill="#472A2B" d="M227.891,381.567c0,7.325,7.756,25.987,17.49,25.987c9.545,0,17.492-18.87,17.492-25.987
			c0-9.642-7.846-17.486-17.492-17.486C235.738,364.081,227.891,371.926,227.891,381.567z M235.387,381.567
			c0-5.51,4.486-9.992,9.994-9.992c5.512,0,9.994,4.482,9.994,9.992c0,6.484-7.566,18.49-9.994,18.49
			C242.396,400.058,235.387,388.119,235.387,381.567z"/>
		<path fill="#DF7A1C" d="M245.381,370.076c6.35,0,11.494,5.146,11.494,11.491c0,6.347-7.496,19.989-11.494,19.989
			c-4.496,0-11.493-13.643-11.493-19.989C233.888,375.222,239.037,370.076,245.381,370.076z"/>
		<g>
			<defs>
				<path id="SVGID_9_" d="M256.875,381.567c0,6.347-7.496,19.989-11.494,19.989c-4.496,0-11.493-13.643-11.493-19.989
					c0-6.346,5.149-11.491,11.493-11.491C251.73,370.076,256.875,375.222,256.875,381.567z"/>
			</defs>
			<clipPath id="SVGID_10_">
				<use xlink:href="#SVGID_9_"  overflow="visible"/>
			</clipPath>
			<path clip-path="url(#SVGID_10_)" fill="#B15C12" d="M256.875,381.567c0,0-7.678,15.741-11.805,15.741
				c-4.12,0-11.244-16.864-11.244-16.864s1.502,23.61,11.244,23.61C254.816,404.055,256.875,381.567,256.875,381.567z"/>
		</g>
	</g>
	<g>
		<path fill="#CFAB7A" d="M245.342,532.35c-11.376-0.117-46.418-26.054-46.418-61.895c0-35.253,39.549-37.739,41.203-37.823h10.51
			c1.654,0.084,41.201,2.57,41.201,37.823c0,35.841-35.037,61.777-46.416,61.895H245.342z"/>
	</g>
	<path fill="#EEB480" d="M239.688,386.318c-1.293-2.754-3.301-6.646-3.763-7.412c-0.464-0.768,3.023-5.166,3.219-4.291
		C243.271,393.081,243.196,393.789,239.688,386.318z"/>
	<g>
		<g>
			<path fill="#FFFFFF" d="M249.631,349.18c0,13.985,11.341,25.32,25.325,25.32c13.981,0,25.319-11.335,25.319-25.32
				c0-13.986-11.338-25.321-25.319-25.321C260.972,323.858,249.631,335.193,249.631,349.18z"/>
			<path fill="#472A2B" d="M246.513,349.18c0-15.683,12.757-28.442,28.443-28.442c15.684,0,28.44,12.76,28.44,28.442
				c0,15.684-12.757,28.441-28.44,28.441C259.27,377.621,246.513,364.863,246.513,349.18z M252.754,349.18
				c0,12.241,9.957,22.2,22.202,22.2c12.239,0,22.199-9.959,22.199-22.2s-9.96-22.201-22.199-22.201
				C262.711,326.979,252.754,336.938,252.754,349.18z"/>
		</g>
		<g>
			<circle fill="#FFFFFF" cx="215.81" cy="349.18" r="25.321"/>
			<path fill="#472A2B" d="M187.367,349.18c0-15.683,12.762-28.442,28.443-28.442c15.684,0,28.443,12.76,28.443,28.442
				c0,15.684-12.76,28.441-28.443,28.441C200.129,377.621,187.367,364.863,187.367,349.18z M193.611,349.18
				c0,12.241,9.957,22.2,22.199,22.2s22.201-9.959,22.201-22.2s-9.959-22.201-22.201-22.201S193.611,336.938,193.611,349.18z"/>
		</g>
	</g>
	<g>
		<defs>
			<path id="SVGID_11_" d="M278.529,555.474c2.18-1.729,4.408-3.663,6.672-5.813c13.91,15.951,17.656,13.523,14.107,15.784
				c-2.256,1.438-4.358,2.089-6.328,2.089c-3.346,0-6.318-1.874-9.037-4.977C281.144,559.355,279.675,557.012,278.529,555.474z
				 M327.581,496.967c1.628-0.631,2.595-60.158,2.595-60.158c-6.667-13.234-3.361-23.451-9.652-23.957
				c-9.164-0.74-16.018-5.699-19.978-10.616c-1.247,1.056-2.52,2.037-3.808,2.963c6.859,6.247,18.352,23.397,20.327,46.954
				c0.14,1.678,0.257,3.398,0.345,5.154c0.063,1.201,0.096,2.44,0.134,3.68c0.017,0.556,0.052,1.097,0.06,1.663
				c0.033,1.674,0.038,3.385,0.018,5.113c0,0.134,0.004,0.265,0.004,0.395c-0.117,8.961-1.314,21.012-3.606,30.397
				C314.019,498.555,325.954,497.594,327.581,496.967z M263.122,565.177c0.937,3.163,2.151,8.711,6.048,18.236
				c0.718,1.756,1.791,2.466,3.043,2.466c4.689,0,11.864-9.996,12.165-12.896c0.381-3.671-3.299-7.94-7.476-13.224
				c-0.563-0.708-1.084-1.317-1.568-1.867C270.955,561.057,266.838,563.419,263.122,565.177z M191.336,565.444
				c2.255,1.438,4.357,2.089,6.33,2.089c3.344,0,6.322-1.874,9.035-4.977c2.764-3.159,4.236-5.495,5.375-7.035
				c-2.18-1.729-4.415-3.654-6.682-5.805C191.523,565.603,187.793,563.188,191.336,565.444z M213.742,559.76
				c-4.176,5.283-7.856,9.553-7.477,13.224c0.299,2.899,7.477,12.896,12.165,12.896c1.253,0,2.327-0.71,3.047-2.466
				c3.88-9.487,5.099-15.035,6.032-18.197c-3.727-1.759-7.854-4.111-12.242-7.279C214.799,558.475,214.287,559.073,213.742,559.76z
				 M185.862,551.255c1.342,0.214,2.587,0.321,3.739,0.321c5.434,0,8.816-2.4,10.77-7.047c-0.013-0.009-0.021-0.025-0.031-0.034
				c-21.124-23.046-27.109-52-27.422-76.347c-0.002-0.053,0-0.112,0-0.166c-0.021-1.806-0.018-3.591,0.018-5.34
				c0.01-0.512,0.043-1,0.055-1.506c0.039-1.285,0.074-2.578,0.139-3.83c0.094-1.756,0.209-3.477,0.346-5.154
				c2.037-24.97,14.051-40.454,20.33-46.954c-1.287-0.926-2.561-1.907-3.808-2.963c-10.114,5.565-27.304,18.122-36.729,42.555
				C139.365,480.857,166.742,548.211,185.862,551.255z M248.418,601.227c0,0.479-0.045,0.943-0.129,1.389
				c0.199,0.072,0.43,0.113,0.694,0.113c4.276,0,15.989-11.572,15.841-14.969c-0.273-6.331-3.886-15.176-5.721-20.845
				c-4.521,1.784-8.226,2.647-10.742,3.049c-0.052,5.491-0.018,12.242,0.014,18.363
				C248.396,592.016,248.418,598.165,248.418,601.227z M231.535,566.95c-1.842,5.667-5.441,14.484-5.717,20.81
				c-0.146,3.396,11.563,14.969,15.844,14.969c0.264,0,0.49-0.041,0.692-0.113c-0.079-0.445-0.125-0.91-0.125-1.389
				c0-3.062,0.019-9.211,0.038-12.899c0.03-6.115,0.068-12.859,0.017-18.352C239.743,569.574,236.045,568.714,231.535,566.95z
				 M206.201,542.564c17.02,17.552,31.959,21.193,37.766,21.952l1.303,0.144l1.307-0.144c5.807-0.759,20.746-4.4,37.769-21.952
				c4.151-4.283,7.718-8.853,10.825-13.621c0.164-0.238,0.332-0.473,0.486-0.714c0-0.003,0-0.003,0.002-0.005
				c0.564-0.885,1.08-1.789,1.613-2.69c0.011-0.018,0.023-0.032,0.031-0.051c0.254-0.431,0.496-0.862,0.756-1.291
				c0.721-1.271,1.407-2.556,2.065-3.853c0.003-0.003,0.008-0.009,0.013-0.015c0.129-0.262,0.258-0.523,0.393-0.782
				c0.915-1.848,1.771-3.719,2.565-5.61c0.212-0.482,0.423-0.968,0.619-1.456c0.007-0.009,0.007-0.011,0.009-0.02
				c0.375-0.934,0.725-1.875,1.071-2.818v-0.002c0.029-0.084,0.057-0.167,0.084-0.244c0.633-1.729,1.226-3.475,1.763-5.23
				c0-0.012,0.007-0.021,0.01-0.029c0.276-0.91,0.547-1.823,0.803-2.736c0.264-0.94,0.506-1.883,0.748-2.829
				c0-0.009,0-0.016,0.005-0.027c0.235-0.937,0.456-1.881,0.667-2.823c0.294-1.324,0.559-2.647,0.809-3.98
				c0.113-0.589,0.227-1.176,0.328-1.764c0-0.004,0-0.01,0.002-0.012c0.193-1.137,0.375-2.273,0.543-3.41
				c0.111-0.797,0.22-1.591,0.319-2.385c0-0.006,0-0.01,0-0.012c0.114-0.905,0.232-1.81,0.325-2.721c0,0,0.003-0.004,0.003-0.011
				c0.11-1.034,0.196-2.076,0.28-3.115c0.002-0.021,0.002-0.038,0.006-0.059c0.225-2.791,0.389-5.587,0.455-8.378
				c0-0.005,0-0.009,0-0.012c0.02-0.922,0.02-1.842,0.02-2.764c0.029-4.857-0.143-9.703-0.531-14.481
				c-1.994-24.429-14.241-39.013-19.531-44.255c-8.531,5.064-17.14,7.651-22.902,8.932c-9.102,2.023-18.037,2.326-22.556,2.326
				c-0.458,0-0.851-0.004-1.173-0.009c-0.32,0.005-0.71,0.009-1.168,0.009c-4.52,0-13.459-0.303-22.559-2.326
				c-5.762-1.28-14.369-3.867-22.904-8.932c-5.286,5.24-17.531,19.822-19.529,44.255c-0.154,1.895-0.277,3.8-0.369,5.712
				c0,0.004,0,0.006,0,0.015c-0.164,3.437-0.205,6.899-0.148,10.364c0.002,0.381,0,0.762,0.01,1.143c0,0.006,0,0.012,0,0.015
				c0.02,0.842,0.061,1.685,0.098,2.526c0,0.021,0.002,0.048,0.002,0.07c0.016,0.349,0.036,0.694,0.051,1.039
				c0.203,4.233,0.589,8.464,1.189,12.673c0.043,0.334,0.084,0.663,0.133,0.996c0,0.007,0.002,0.009,0.002,0.019
				c0.24,1.611,0.525,3.221,0.832,4.822c0.057,0.291,0.103,0.583,0.161,0.874v0.004c0.288,1.46,0.62,2.909,0.961,4.358
				c0.101,0.431,0.2,0.867,0.306,1.294c0.004,0.008,0.004,0.021,0.006,0.026c0.311,1.239,0.652,2.469,1.004,3.697
				c0.181,0.625,0.359,1.247,0.547,1.871c0.006,0.018,0.008,0.033,0.018,0.051c0.854,2.791,1.814,5.548,2.906,8.264
				c0.004,0.01,0.007,0.019,0.009,0.023c0.197,0.486,0.408,0.965,0.617,1.447c0.847,2.014,1.763,4,2.747,5.967
				c0.078,0.155,0.15,0.307,0.229,0.461c0,0,0.007,0.006,0.007,0.01c2.504,4.926,5.468,9.677,8.93,14.198
				c0.193,0.244,0.381,0.487,0.572,0.735c0.038,0.044,0.08,0.095,0.115,0.148C201.962,537.874,203.977,540.271,206.201,542.564z
				 M315.232,356.148c0-42.584-29.117-56.054-40.848-56.054c-11.36,0-20.276,11.778-29.115,12.528
				c-8.834-0.75-17.754-12.528-29.108-12.528c-11.735,0-40.851,13.47-40.851,56.054c0,42.585,35.636,53.443,47.365,56.053
				c8.803,1.956,17.584,2.201,21.426,2.201c0.464,0,0.859-0.003,1.168-0.009c0.313,0.006,0.705,0.009,1.173,0.009
				c3.841,0,12.622-0.245,21.421-2.201C279.598,409.592,315.232,398.733,315.232,356.148z"/>
		</defs>
		<clipPath id="SVGID_12_">
			<use xlink:href="#SVGID_11_"  overflow="visible"/>
		</clipPath>
		<g clip-path="url(#SVGID_12_)">
			<path fill="#7E543A" d="M306.65,504.133c0,0-26.447,52.337-60.508,52.337c-38.938,0-62.232-52.286-62.232-52.286l-0.342,7.523
				l16.076,28.684l19.988,16.079l13.908,7.821c0,0,6.948,2.609,11.729,2.609c4.785,0,17.816-2.175,24.77-8.69
				c6.955-6.521,22.597-19.994,26.508-25.644c3.909-5.646,10.428-26.074,10.428-26.074L306.65,504.133z"/>
		</g>
		<path clip-path="url(#SVGID_12_)" fill="#7E543A" d="M204.695,547.994l9.942,6.518l8.637,6.193l21.995,7.869l22-7.869l8.639-6.193
			l9.937-6.518l3.912,6.194l-0.544,0.273c0,0-2.607-0.438-6.082,1.737c-3.477,2.172-3.043,6.516-3.043,6.516
			s-4.998-0.215-10.209,2.391c-5.217,2.605-6.682,6.03-6.682,6.03l-2.119,0.652c0,0-3.26-1.144-7.006-0.328
			c-3.75,0.815-6.033,4.239-6.033,4.239l-2.441,0.125v0.036l-0.328-0.019l-0.324,0.019v-0.036l-2.445-0.125
			c0,0-2.28-3.424-6.029-4.239c-3.75-0.815-7.006,0.328-7.006,0.328l-2.118-0.652c0,0-1.47-3.425-6.679-6.03
			c-5.219-2.605-10.213-2.391-10.213-2.391s0.435-4.344-3.043-6.516c-3.475-2.176-6.08-1.737-6.08-1.737l-0.547-0.273
			L204.695,547.994z"/>
		<g clip-path="url(#SVGID_12_)">
			<g>
				<path fill="#7E543A" d="M315.774,445.226c0,0,7.388,31.285-1.737,66.919c-9.127,35.636-21.291,42.154-21.291,42.154
					l-5.649-9.563c0,0,19.989-21.733,25.634-58.664C318.381,449.137,315.774,445.226,315.774,445.226z"/>
			</g>
			<g>
				<path fill="#7E543A" d="M174.766,445.226c0,0-7.383,31.285,1.74,66.919c9.127,35.636,21.291,42.154,21.291,42.154l5.648-9.563
					c0,0-19.989-21.733-25.636-58.664C172.16,449.137,174.766,445.226,174.766,445.226z"/>
			</g>
		</g>
		<path clip-path="url(#SVGID_12_)" fill="#7E543A" d="M234.287,417.633c-6.148-1.74-11.689-0.342-11.689-0.342
			s-3.693-3.134-16.867-1.83c-13.182,1.304-20.643,6.521-20.643,6.521l7.91-11.085l5.777-5.215l17.598,8.038l29.225,3.65
			l26.395-3.434l20.209-8.906l5.992,5.866l7.475,10.647c0,0-7.895-5.432-21.07-6.735c-13.179-1.306-16.004,2.481-16.004,2.481
			s-5.537-1.83-11.686-0.096L234.287,417.633z"/>
		<g clip-path="url(#SVGID_12_)">
			<path fill="#7E543A" d="M183.352,420.459c0,0-4.347,1.086-6.738-1.309c-2.389-2.386-1.518-6.299-1.518-6.299l-0.438-4.996
				l12.819-8.911l8.259,5.435l-3.262,7.822L183.352,420.459z"/>
		</g>
		<path clip-path="url(#SVGID_12_)" fill="#7E543A" d="M245.598,424.359"/>
	</g>
	<g>
		<g>
			<g>
				<path fill="#B15C12" d="M285.918,583.56c0.971,0,3.42-0.233,5.174-2.401c1.865-2.311,2.275-5.994,1.214-10.947
					c-2.647-12.346-12.565-16.52-12.985-16.693c-0.217-0.086-0.443-0.13-0.669-0.13c-0.333,0-0.665,0.095-0.952,0.276l-9.312,5.915
					c-0.556,0.348-0.868,0.979-0.819,1.63c0.049,0.654,0.457,1.229,1.055,1.49c2.297,1.015,8.356,4.581,8.787,8.829
					c0.703,6.91,5.498,11.486,7.387,11.921C285.105,583.52,285.506,583.56,285.918,583.56L285.918,583.56z"/>
				<path fill="#472A2B" d="M278.651,555.16c0,0,9.438,3.853,11.92,15.422c2.136,9.967-2.627,11.204-4.653,11.204
					c-0.326,0-0.583-0.032-0.726-0.065c-1.073-0.248-5.384-4.141-6.019-10.371c-0.633-6.231-9.838-10.274-9.838-10.274
					L278.651,555.16 M278.651,551.614c-0.667,0-1.327,0.188-1.904,0.554l-9.312,5.911c-1.106,0.704-1.737,1.957-1.637,3.266
					c0.103,1.308,0.911,2.452,2.113,2.979c2.383,1.047,7.414,4.229,7.734,7.382c0.725,7.167,5.671,12.767,8.756,13.474
					c0.439,0.098,0.963,0.154,1.516,0.154c2.592,0,4.98-1.118,6.551-3.061c2.221-2.749,2.749-6.932,1.571-12.435
					c-2.841-13.25-13.595-17.777-14.05-17.962C279.559,551.701,279.104,551.614,278.651,551.614L278.651,551.614z"/>
			</g>
			<g>
				<path fill="#B15C12" d="M274.046,587.504c2.829,0,6.589-1.664,8.433-9.592c3.344-14.351-8.938-21.002-9.063-21.068
					c-0.26-0.136-0.545-0.204-0.828-0.204c-0.333,0-0.666,0.096-0.961,0.282l-8.719,5.616c-0.514,0.334-0.82,0.907-0.816,1.519
					c0.01,0.608,0.332,1.172,0.855,1.49c0.062,0.038,6.577,4.17,5.279,8.228c-1.953,6.112,0.297,12.141,2.707,13.069
					C271.49,587.063,272.615,587.504,274.046,587.504L274.046,587.504z"/>
				<path fill="#472A2B" d="M272.588,558.412c0,0,11.236,5.914,8.167,19.099c-1.597,6.859-4.552,8.22-6.709,8.22
					c-1.181,0-2.124-0.407-2.476-0.541c-1.198-0.462-3.42-5.352-1.653-10.874c1.768-5.524-6.051-10.284-6.051-10.284
					L272.588,558.412 M272.588,554.865c-0.669,0-1.34,0.191-1.922,0.566l-8.721,5.619c-1.023,0.657-1.632,1.801-1.623,3.017
					c0.013,1.216,0.654,2.351,1.69,2.987c1.702,1.054,5.2,4.066,4.524,6.181c-2.178,6.816,0.276,13.923,3.762,15.265l0.061,0.024
					c0.527,0.208,1.92,0.752,3.687,0.752c2.841,0,7.942-1.421,10.161-10.959c2.923-12.539-5.24-20.557-9.965-23.044
					C273.722,555,273.156,554.865,272.588,554.865L272.588,554.865z"/>
			</g>
			<g>
				<path fill="#B15C12" d="M262.605,589.807c3.206,0,6.127-2.196,8.678-6.521c5.861-9.952-3.266-21.774-3.654-22.271
					c-0.345-0.439-0.865-0.677-1.398-0.677c-0.265,0-0.532,0.056-0.781,0.18l-7.813,3.851c-0.508,0.249-0.869,0.731-0.965,1.294
					c-0.095,0.56,0.084,1.134,0.483,1.539c0.038,0.04,4.358,4.56,1.938,7.71c-3.667,4.774-3.891,10.673-1.645,12.759
					c0.859,0.798,2.672,2.137,5.152,2.137H262.605z"/>
				<path fill="#472A2B" d="M266.234,562.109c0,0,8.835,11.254,3.52,20.274c-2.616,4.436-5.152,5.646-7.148,5.646
					c-2.068,0-3.553-1.293-3.948-1.659c-1.294-1.199-1.559-5.947,1.845-10.38c3.402-4.432-2.08-10.03-2.08-10.03L266.234,562.109
					 M266.23,558.562c-0.529,0-1.064,0.119-1.568,0.365l-7.811,3.85c-1.014,0.499-1.723,1.462-1.916,2.576
					c-0.199,1.113,0.155,2.261,0.938,3.075c0.035,0.034,3.248,3.535,1.813,5.4c-4.419,5.756-4.315,12.477-1.442,15.142
					c1.05,0.976,3.273,2.609,6.357,2.609c3.883,0,7.315-2.49,10.211-7.393c6.47-10.983-3.369-23.73-3.791-24.269
					C268.334,559.04,267.293,558.562,266.23,558.562L266.23,558.562z"/>
			</g>
		</g>
		<g>
			<g>
				<path fill="#B15C12" d="M204.845,583.56c-0.97,0-3.418-0.233-5.174-2.401c-1.865-2.311-2.276-5.994-1.214-10.947
					c2.647-12.346,12.566-16.52,12.986-16.693c0.218-0.086,0.442-0.13,0.669-0.13c0.333,0,0.663,0.095,0.952,0.276l9.312,5.915
					c0.554,0.348,0.869,0.979,0.821,1.63c-0.051,0.654-0.458,1.229-1.057,1.49c-2.297,1.015-8.356,4.581-8.791,8.829
					c-0.701,6.91-5.494,11.486-7.383,11.921C205.656,583.52,205.259,583.56,204.845,583.56L204.845,583.56z"/>
				<path fill="#472A2B" d="M212.112,555.16l9.314,5.915c0,0-9.204,4.043-9.839,10.274c-0.633,6.23-4.943,10.123-6.018,10.371
					c-0.143,0.033-0.398,0.065-0.726,0.065c-2.026,0-6.79-1.237-4.652-11.204C202.672,559.013,212.112,555.16,212.112,555.16
					 M212.112,551.614c-0.451,0-0.907,0.087-1.339,0.263c-0.455,0.185-11.206,4.712-14.05,17.962
					c-1.179,5.503-0.651,9.686,1.569,12.435c1.572,1.942,3.961,3.061,6.552,3.061c0.55,0,1.074-0.057,1.517-0.154
					c3.086-0.707,8.026-6.307,8.755-13.474c0.322-3.152,5.353-6.335,7.735-7.382c1.201-0.527,2.012-1.672,2.111-2.979
					c0.1-1.309-0.529-2.562-1.635-3.266l-9.313-5.911C213.439,551.803,212.779,551.614,212.112,551.614L212.112,551.614z"/>
			</g>
			<g>
				<path fill="#B15C12" d="M216.718,587.504c-2.829,0-6.591-1.664-8.435-9.592c-3.344-14.351,8.943-21.002,9.065-21.068
					c0.259-0.136,0.544-0.204,0.823-0.204c0.336,0,0.672,0.096,0.965,0.282l8.719,5.616c0.515,0.334,0.82,0.907,0.814,1.519
					c-0.008,0.608-0.33,1.172-0.854,1.49c-0.063,0.038-6.577,4.17-5.28,8.228c1.952,6.112-0.298,12.141-2.71,13.069
					C219.272,587.063,218.148,587.504,216.718,587.504L216.718,587.504z"/>
				<path fill="#472A2B" d="M218.172,558.412l8.723,5.619c0,0-7.813,4.76-6.047,10.284c1.767,5.522-0.457,10.412-1.654,10.874
					c-0.352,0.134-1.296,0.541-2.476,0.541c-2.157,0-5.111-1.36-6.708-8.22C206.939,564.326,218.172,558.412,218.172,558.412
					 M218.172,554.865c-0.564,0-1.129,0.135-1.648,0.408c-4.727,2.487-12.889,10.505-9.969,23.044
					c2.221,9.538,7.322,10.959,10.163,10.959c1.768,0,3.158-0.544,3.683-0.752l0.065-0.024c3.483-1.342,5.937-8.448,3.761-15.265
					c-0.676-2.114,2.823-5.127,4.524-6.181c1.034-0.637,1.675-1.771,1.687-2.987s-0.596-2.359-1.621-3.017l-8.723-5.619
					C219.513,555.057,218.844,554.865,218.172,554.865L218.172,554.865z"/>
			</g>
			<g>
				<path fill="#B15C12" d="M228.161,589.807c-3.21,0-6.13-2.196-8.681-6.521c-5.863-9.952,3.264-21.774,3.653-22.271
					c0.349-0.439,0.869-0.677,1.398-0.677c0.265,0,0.532,0.056,0.782,0.18l7.813,3.851c0.512,0.249,0.868,0.731,0.967,1.294
					c0.092,0.56-0.086,1.134-0.482,1.539c-0.041,0.04-4.361,4.56-1.942,7.71c3.665,4.774,3.891,10.673,1.645,12.759
					C232.453,588.468,230.643,589.807,228.161,589.807L228.161,589.807z"/>
				<path fill="#472A2B" d="M224.532,562.109l7.81,3.851c0,0-5.482,5.599-2.08,10.03c3.406,4.433,3.139,9.181,1.845,10.38
					c-0.396,0.366-1.881,1.659-3.945,1.659c-1.999,0-4.54-1.21-7.151-5.646C215.695,573.363,224.532,562.109,224.532,562.109
					 M224.532,558.562c-1.063,0-2.1,0.479-2.794,1.356c-0.422,0.538-10.257,13.285-3.784,24.269
					c2.89,4.902,6.323,7.393,10.207,7.393c3.085,0,5.308-1.634,6.356-2.609c2.875-2.665,2.979-9.386-1.442-15.142
					c-1.429-1.865,1.78-5.366,1.813-5.4c0.784-0.814,1.139-1.962,0.938-3.075c-0.192-1.114-0.9-2.077-1.915-2.576l-7.813-3.85
					C225.598,558.681,225.063,558.562,224.532,558.562L224.532,558.562z"/>
			</g>
		</g>
	</g>
	<circle fill="#342209" cx="284.203" cy="352.41" r="7.938"/>
	<circle fill="#342209" cx="224.347" cy="352.41" r="7.938"/>
</g>
</svg>
